<svg width="49" height="36" viewBox="0 0 49 36" fill="none" xmlns="http://www.w3.org/2000/svg">
<g clip-path="url(#clip0_64_113)">
<path d="M0.786328 2.8916C0.238281 3.16406 0 3.49805 0 4.04297C0 4.58789 0.238281 4.92188 0.786328 5.19434C1.10801 5.35254 1.42969 5.36133 6.07617 5.36133H11.0205L14.2135 15.9785C15.9648 21.8145 17.3945 26.6221 17.3945 26.6748C17.3945 26.7188 17.1205 26.877 16.7869 27.0264C15.9887 27.3691 15.2143 28.0283 14.7496 28.7402C14.4279 29.2324 14.3684 29.4346 14.3207 30.1992C14.285 30.8936 14.3088 31.1924 14.4756 31.5615C15.0236 32.8184 16.2865 33.7676 17.9545 34.1982C18.4906 34.3301 18.9672 34.3652 20.3611 34.374H22.1006L21.4811 34.541C19.2412 35.1299 17.8711 36.5713 17.8711 38.3203C17.8711 40.5967 20.1467 42.2754 23.2324 42.2754C26.3182 42.2754 28.5938 40.5967 28.5938 38.3203C28.5938 36.5713 27.2236 35.1299 24.9838 34.541C24.3762 34.3828 24.5072 34.374 35.8613 34.374C47.2154 34.374 47.3465 34.3828 46.7389 34.541C44.499 35.1299 43.1289 36.5713 43.1289 38.3203C43.1289 40.5967 45.4045 42.2754 48.4902 42.2754C51.576 42.2754 53.8516 40.5967 53.8516 38.3203C53.8516 36.5625 52.4814 35.1299 50.2297 34.541L49.6221 34.374H51.1709C52.4814 34.3652 52.7674 34.3389 53.0652 34.1982C53.6133 33.9258 53.8516 33.5918 53.8516 33.0469C53.8516 32.5283 53.6252 32.1855 53.1248 31.9219C52.8627 31.7812 51.576 31.7725 36.04 31.7285L19.2412 31.6846L18.8242 31.4912C17.6924 30.9727 17.7043 29.751 18.848 29.2939C19.2174 29.1445 20.1229 29.1357 35.9924 29.1094L52.7555 29.0918L53.2439 28.7578L53.7324 28.4326L57.3662 19.0547C59.8205 12.7266 61 9.53613 61 9.25488C61 8.97363 60.9166 8.75391 60.7379 8.55176C60.1779 7.9541 62.0008 7.99805 37.6604 7.99805H15.6074L15.5479 7.7959C15.5121 7.69043 15.2262 6.73242 14.9045 5.66895C14.5828 4.60547 14.2611 3.62988 14.2016 3.50684C14.1301 3.375 13.868 3.15527 13.6178 2.99707L13.165 2.72461H7.14844C1.45352 2.72461 1.10801 2.7334 0.786328 2.8916ZM56.7109 10.7402C56.699 10.8018 55.3408 14.3525 53.6848 18.6328L50.6705 26.4111L35.909 26.4287L21.1475 26.4551L18.7885 18.6064C17.4898 14.2998 16.4414 10.7402 16.4414 10.6963C16.4414 10.6611 25.508 10.6348 36.5762 10.6348C52.6125 10.6348 56.7109 10.6611 56.7109 10.7402ZM24.1141 37.2568C24.6264 37.5117 24.9004 37.8721 24.9004 38.3203C24.9004 39.0234 24.1855 39.5508 23.2324 39.5508C22.2793 39.5508 21.5645 39.0234 21.5645 38.3203C21.5645 37.6172 22.2793 37.0898 23.2324 37.0898C23.5541 37.0898 23.8996 37.1602 24.1141 37.2568ZM49.3719 37.2568C49.8842 37.5117 50.1582 37.8721 50.1582 38.3203C50.1582 39.0234 49.4434 39.5508 48.4902 39.5508C47.5371 39.5508 46.8223 39.0234 46.8223 38.3203C46.8223 37.6172 47.5371 37.0898 48.4902 37.0898C48.8119 37.0898 49.1574 37.1602 49.3719 37.2568Z" fill="white"/>
</g>
<defs>
<clipPath id="clip0_64_113">
<rect width="61" height="45" fill="white"/>
</clipPath>
</defs>
</svg>
