<svg width="77" height="55" viewBox="0 0 77 55" fill="none" xmlns="http://www.w3.org/2000/svg">
<g clip-path="url(#clip0_64_109)">
<path d="M15.791 0.311436V0.612217L14.0465 0.67667C12.5877 0.730381 12.1816 0.784092 11.5049 1.02042C10.5725 1.34269 10.016 1.76163 9.51973 2.53507L9.17383 3.08292L9.20391 27.9941L9.24902 52.9052L9.7002 53.4853C10.1965 54.1191 11.1891 54.7206 12.0162 54.9032C12.3771 54.9784 20.784 54.9999 38.2895 54.9784L64.0062 54.9462L64.668 54.6347C65.6004 54.1943 66.1418 53.7431 66.4727 53.0878C66.7734 52.5292 66.7734 52.2177 66.7734 38.6396V24.7607H67.2697H67.751L67.7961 21.2909C67.8111 18.9599 67.7811 17.7567 67.6607 17.6064C67.5555 17.4452 67.5555 17.3485 67.6607 17.2519C67.7811 17.1552 67.8111 15.995 67.7961 13.578L67.751 10.0439H67.2697H66.7734V6.63859C66.7734 3.46964 66.7584 3.19034 66.4727 2.64249C66.0967 1.95499 65.2545 1.29972 64.2469 0.945225L63.54 0.698154L42.6658 0.665928C26.2883 0.644444 21.8066 0.612217 21.8217 0.504795C21.9119 -0.0215721 22.0172 -8.7738e-05 18.7988 -8.7738e-05H15.791V0.311436ZM63.0137 3.64151C63.1189 3.78116 63.1641 10.6776 63.1641 25.1796C63.1641 44.4189 63.134 46.5136 62.9234 46.664C62.7129 46.8144 60.2465 46.8359 37.9736 46.8359C15.7008 46.8359 13.2344 46.8144 13.0238 46.664C12.8133 46.5136 12.7832 44.4081 12.7832 25.0937C12.7832 8.59366 12.8283 3.663 12.9637 3.56632C13.099 3.46964 18.874 3.43741 38.0037 3.43741C62.4121 3.43741 62.8482 3.43741 63.0137 3.64151ZM38.8008 49.2636C39.4775 49.5536 39.7934 50.0693 39.7332 50.7782C39.7182 50.9071 39.4625 51.1864 39.1768 51.4013C38.7256 51.7235 38.5451 51.7773 37.9586 51.7773C37.3721 51.7773 37.1916 51.7235 36.7705 51.4228C36.1389 50.9716 35.9734 50.4345 36.3193 49.9081C36.8006 49.1991 37.9285 48.8984 38.8008 49.2636Z" fill="white"/>
</g>
<defs>
<clipPath id="clip0_64_109">
<rect width="77" height="55" fill="white"/>
</clipPath>
</defs>
</svg>
