<?xml version="1.0" encoding="UTF-8"?>
<svg xmlns="http://www.w3.org/2000/svg" xmlns:xlink="http://www.w3.org/1999/xlink" width="50px" height="50px" viewBox="0 0 50 50" version="1.1">
<g id="surface1">
<path style=" stroke:none;fill-rule:nonzero;fill:rgb(100%,100%,100%);fill-opacity:1;" d="M 18.015625 14.632812 L 17.929688 14.707031 L 17.921875 24.953125 C 17.914062 34.484375 17.917969 35.199219 17.957031 35.277344 C 18.019531 35.398438 18.15625 35.457031 18.28125 35.417969 C 18.332031 35.402344 18.398438 35.367188 18.425781 35.335938 C 18.476562 35.28125 18.476562 35.082031 18.488281 25.210938 L 18.503906 15.144531 L 24.996094 15.136719 L 31.484375 15.128906 L 31.484375 25.175781 C 31.484375 35.085938 31.484375 35.222656 31.535156 35.304688 C 31.609375 35.425781 31.757812 35.464844 31.890625 35.402344 C 31.949219 35.371094 32.003906 35.324219 32.023438 35.285156 C 32.050781 35.234375 32.058594 33.089844 32.058594 24.980469 L 32.058594 14.734375 L 31.878906 14.558594 L 18.097656 14.558594 Z M 18.015625 14.632812 "/>
<path style=" stroke:none;fill-rule:nonzero;fill:rgb(100%,100%,100%);fill-opacity:1;" d="M 19.449219 15.980469 C 19.285156 16.066406 19.296875 15.25 19.296875 25.683594 C 19.296875 33.179688 19.304688 35.207031 19.332031 35.257812 C 19.382812 35.359375 19.496094 35.429688 19.605469 35.425781 C 19.664062 35.421875 19.917969 35.324219 20.273438 35.160156 C 20.589844 35.019531 21.566406 34.578125 22.449219 34.179688 C 24.308594 33.339844 24.464844 33.269531 25.191406 32.941406 C 25.636719 32.738281 25.746094 32.679688 25.785156 32.617188 C 25.832031 32.542969 25.832031 32.296875 25.824219 25.660156 L 25.820312 18.777344 L 25.753906 18.714844 C 25.71875 18.675781 25.386719 18.511719 25.019531 18.347656 C 24.183594 17.972656 23.253906 17.550781 22.304688 17.125 C 21.902344 16.941406 21.449219 16.738281 21.296875 16.671875 C 21.144531 16.605469 21.015625 16.542969 21.015625 16.527344 C 21.015625 16.519531 23.058594 16.511719 25.558594 16.511719 L 30.105469 16.511719 L 30.105469 25.863281 C 30.105469 33.269531 30.113281 35.234375 30.136719 35.285156 C 30.15625 35.324219 30.214844 35.371094 30.269531 35.402344 C 30.402344 35.464844 30.550781 35.425781 30.625 35.304688 C 30.675781 35.222656 30.675781 35.089844 30.675781 25.667969 L 30.675781 16.113281 L 30.5 15.9375 L 25.007812 15.9375 C 20.203125 15.941406 19.511719 15.945312 19.449219 15.980469 Z M 20.148438 16.792969 C 20.273438 16.847656 20.628906 17.007812 20.9375 17.148438 C 21.246094 17.285156 21.792969 17.535156 22.148438 17.695312 C 22.507812 17.855469 23.222656 18.179688 23.738281 18.410156 C 24.253906 18.644531 24.792969 18.886719 24.933594 18.949219 C 25.074219 19.011719 25.207031 19.074219 25.226562 19.089844 C 25.253906 19.117188 25.261719 20.199219 25.253906 25.695312 L 25.246094 32.269531 L 24.503906 32.609375 C 23.710938 32.96875 23.046875 33.269531 21.746094 33.855469 C 21.292969 34.058594 20.730469 34.3125 20.496094 34.417969 C 20.257812 34.527344 20.027344 34.632812 19.980469 34.652344 L 19.894531 34.6875 L 19.894531 25.691406 C 19.894531 20.742188 19.902344 16.691406 19.90625 16.691406 C 19.914062 16.691406 20.023438 16.738281 20.148438 16.792969 Z M 20.148438 16.792969 "/>
<path style=" stroke:none;fill-rule:nonzero;fill:rgb(100%,100%,100%);fill-opacity:1;" d="M 24.464844 23.917969 C 24.425781 23.933594 24.363281 23.976562 24.335938 24.011719 C 24.285156 24.066406 24.285156 24.109375 24.277344 24.964844 C 24.269531 25.730469 24.273438 25.871094 24.308594 25.9375 C 24.378906 26.074219 24.554688 26.128906 24.699219 26.0625 C 24.839844 26 24.84375 25.992188 24.84375 25 C 24.847656 23.980469 24.847656 23.988281 24.675781 23.917969 C 24.566406 23.871094 24.566406 23.871094 24.464844 23.917969 Z M 24.464844 23.917969 "/>
</g>
</svg>
