<?xml version="1.0" encoding="UTF-8"?>
<svg xmlns="http://www.w3.org/2000/svg" xmlns:xlink="http://www.w3.org/1999/xlink" width="75px" height="75px" viewBox="0 0 75 75" version="1.1">
<g id="surface1">
<path style=" stroke:none;fill-rule:nonzero;fill:rgb(100%,100%,100%);fill-opacity:1;" d="M 27.023438 21.949219 L 26.894531 22.0625 L 26.882812 37.429688 C 26.871094 51.726562 26.875 52.800781 26.9375 52.917969 C 27.03125 53.097656 27.234375 53.1875 27.421875 53.128906 C 27.5 53.105469 27.597656 53.050781 27.640625 53.003906 C 27.714844 52.921875 27.714844 52.621094 27.734375 37.816406 L 27.753906 22.714844 L 37.492188 22.703125 L 47.226562 22.695312 L 47.226562 37.761719 C 47.226562 52.628906 47.226562 52.832031 47.304688 52.957031 C 47.414062 53.140625 47.636719 53.199219 47.835938 53.101562 C 47.921875 53.058594 48.007812 52.984375 48.035156 52.929688 C 48.074219 52.851562 48.085938 49.632812 48.085938 37.46875 L 48.085938 22.101562 L 47.820312 21.835938 L 27.148438 21.835938 Z M 27.023438 21.949219 "/>
<path style=" stroke:none;fill-rule:nonzero;fill:rgb(100%,100%,100%);fill-opacity:1;" d="M 29.171875 23.96875 C 28.925781 24.101562 28.945312 22.875 28.945312 38.523438 C 28.945312 49.769531 28.957031 52.8125 28.996094 52.886719 C 29.074219 53.039062 29.246094 53.144531 29.40625 53.136719 C 29.496094 53.132812 29.878906 52.984375 30.410156 52.742188 C 30.882812 52.527344 32.351562 51.867188 33.671875 51.269531 C 36.464844 50.011719 36.699219 49.902344 37.789062 49.410156 C 38.457031 49.109375 38.621094 49.019531 38.679688 48.925781 C 38.746094 48.8125 38.75 48.445312 38.738281 38.488281 L 38.730469 28.164062 L 38.632812 28.070312 C 38.578125 28.015625 38.082031 27.769531 37.53125 27.523438 C 36.277344 26.960938 34.878906 26.328125 33.457031 25.6875 C 32.855469 25.414062 32.175781 25.109375 31.945312 25.007812 C 31.714844 24.90625 31.523438 24.8125 31.523438 24.792969 C 31.523438 24.777344 34.589844 24.765625 38.339844 24.765625 L 45.15625 24.765625 L 45.15625 38.796875 C 45.15625 49.90625 45.167969 52.851562 45.207031 52.929688 C 45.234375 52.984375 45.320312 53.058594 45.40625 53.101562 C 45.605469 53.199219 45.828125 53.140625 45.9375 52.957031 C 46.015625 52.832031 46.015625 52.636719 46.015625 38.5 L 46.015625 24.171875 L 45.75 23.90625 L 37.511719 23.90625 C 30.304688 23.910156 29.265625 23.917969 29.171875 23.96875 Z M 30.222656 25.191406 C 30.410156 25.273438 30.945312 25.511719 31.40625 25.722656 C 31.867188 25.929688 32.6875 26.300781 33.222656 26.542969 C 33.761719 26.785156 34.832031 27.269531 35.605469 27.617188 C 36.378906 27.96875 37.1875 28.328125 37.398438 28.421875 C 37.609375 28.515625 37.808594 28.613281 37.839844 28.636719 C 37.882812 28.675781 37.890625 30.300781 37.882812 38.542969 L 37.871094 48.40625 L 36.757812 48.914062 C 35.566406 49.453125 34.570312 49.902344 32.617188 50.78125 C 31.941406 51.089844 31.097656 51.46875 30.742188 51.628906 C 30.386719 51.792969 30.039062 51.949219 29.972656 51.976562 L 29.84375 52.03125 L 29.84375 38.535156 C 29.84375 31.113281 29.851562 25.039062 29.859375 25.039062 C 29.871094 25.039062 30.035156 25.105469 30.222656 25.191406 Z M 30.222656 25.191406 "/>
<path style=" stroke:none;fill-rule:nonzero;fill:rgb(100%,100%,100%);fill-opacity:1;" d="M 36.699219 35.875 C 36.636719 35.902344 36.546875 35.964844 36.503906 36.015625 C 36.429688 36.097656 36.425781 36.164062 36.414062 37.445312 C 36.40625 38.597656 36.410156 38.804688 36.464844 38.90625 C 36.570312 39.109375 36.832031 39.195312 37.046875 39.09375 C 37.261719 39 37.265625 38.988281 37.265625 37.5 C 37.269531 35.972656 37.273438 35.984375 37.011719 35.875 C 36.851562 35.808594 36.847656 35.808594 36.699219 35.875 Z M 36.699219 35.875 "/>
</g>
</svg>
