<?xml version="1.0" encoding="UTF-8"?>
<svg xmlns="http://www.w3.org/2000/svg" xmlns:xlink="http://www.w3.org/1999/xlink" width="26px" height="26px" viewBox="0 0 26 26" version="1.1">
<g id="surface1">
<path style=" stroke:none;fill-rule:nonzero;fill:rgb(100%,100%,100%);fill-opacity:1;" d="M 9.367188 7.609375 L 9.324219 7.648438 L 9.320312 12.976562 C 9.316406 17.933594 9.316406 18.304688 9.339844 18.34375 C 9.371094 18.40625 9.441406 18.4375 9.507812 18.417969 C 9.535156 18.410156 9.566406 18.390625 9.582031 18.375 C 9.609375 18.347656 9.609375 18.242188 9.613281 13.109375 L 9.621094 7.875 L 16.371094 7.867188 L 16.371094 13.089844 C 16.371094 18.246094 16.371094 18.316406 16.398438 18.359375 C 16.4375 18.421875 16.515625 18.441406 16.582031 18.410156 C 16.613281 18.394531 16.644531 18.367188 16.652344 18.347656 C 16.664062 18.320312 16.667969 17.207031 16.667969 12.988281 L 16.667969 7.660156 L 16.578125 7.570312 L 9.410156 7.570312 Z M 9.367188 7.609375 "/>
<path style=" stroke:none;fill-rule:nonzero;fill:rgb(100%,100%,100%);fill-opacity:1;" d="M 10.113281 8.308594 C 10.027344 8.355469 10.035156 7.929688 10.035156 13.355469 C 10.035156 17.253906 10.039062 18.308594 10.050781 18.335938 C 10.078125 18.386719 10.136719 18.421875 10.195312 18.421875 C 10.226562 18.417969 10.359375 18.367188 10.542969 18.285156 C 10.707031 18.210938 11.214844 17.980469 11.671875 17.773438 C 12.640625 17.335938 12.722656 17.300781 13.101562 17.128906 C 13.332031 17.023438 13.386719 16.992188 13.410156 16.960938 C 13.433594 16.921875 13.433594 16.792969 13.429688 13.34375 L 13.425781 9.761719 L 13.394531 9.730469 C 13.375 9.710938 13.203125 9.625 13.011719 9.542969 C 12.574219 9.347656 12.089844 9.128906 11.597656 8.90625 C 11.390625 8.808594 11.152344 8.703125 11.074219 8.667969 C 10.996094 8.632812 10.929688 8.601562 10.929688 8.59375 C 10.929688 8.589844 11.992188 8.585938 13.292969 8.585938 L 15.652344 8.585938 L 15.652344 13.449219 C 15.652344 17.300781 15.660156 18.320312 15.671875 18.347656 C 15.679688 18.367188 15.710938 18.394531 15.742188 18.410156 C 15.808594 18.441406 15.886719 18.421875 15.925781 18.359375 C 15.953125 18.316406 15.953125 18.246094 15.953125 13.347656 L 15.953125 8.378906 L 15.859375 8.289062 L 13.003906 8.289062 C 10.503906 8.289062 10.144531 8.292969 10.113281 8.308594 Z M 10.476562 8.734375 C 10.542969 8.761719 10.726562 8.84375 10.886719 8.917969 C 11.046875 8.988281 11.332031 9.117188 11.515625 9.203125 C 11.703125 9.285156 12.074219 9.453125 12.34375 9.574219 C 12.613281 9.695312 12.890625 9.820312 12.964844 9.851562 C 13.039062 9.886719 13.105469 9.917969 13.117188 9.925781 C 13.132812 9.941406 13.136719 10.503906 13.132812 13.363281 L 13.128906 16.78125 L 12.742188 16.957031 C 12.328125 17.144531 11.984375 17.300781 11.308594 17.605469 C 11.074219 17.710938 10.78125 17.84375 10.65625 17.898438 C 10.535156 17.953125 10.414062 18.007812 10.390625 18.019531 L 10.347656 18.039062 L 10.347656 13.359375 C 10.347656 10.785156 10.347656 8.679688 10.351562 8.679688 C 10.355469 8.679688 10.414062 8.703125 10.476562 8.734375 Z M 10.476562 8.734375 "/>
<path style=" stroke:none;fill-rule:nonzero;fill:rgb(100%,100%,100%);fill-opacity:1;" d="M 12.722656 12.4375 C 12.699219 12.445312 12.667969 12.46875 12.65625 12.484375 C 12.628906 12.515625 12.628906 12.535156 12.625 12.980469 C 12.621094 13.378906 12.621094 13.453125 12.640625 13.488281 C 12.675781 13.558594 12.769531 13.585938 12.84375 13.550781 C 12.917969 13.519531 12.917969 13.515625 12.917969 13 C 12.921875 12.46875 12.921875 12.472656 12.832031 12.4375 C 12.773438 12.414062 12.773438 12.414062 12.722656 12.4375 Z M 12.722656 12.4375 "/>
</g>
</svg>
