<?xml version="1.0" encoding="UTF-8"?>
<svg xmlns="http://www.w3.org/2000/svg" xmlns:xlink="http://www.w3.org/1999/xlink" width="45px" height="45px" viewBox="0 0 45 45" version="1.1">
<g id="surface1">
<path style=" stroke:none;fill-rule:nonzero;fill:rgb(100%,100%,100%);fill-opacity:1;" d="M 16.214844 13.167969 L 16.136719 13.238281 L 16.128906 22.457031 C 16.121094 31.035156 16.125 31.679688 16.164062 31.75 C 16.21875 31.859375 16.339844 31.914062 16.453125 31.878906 C 16.5 31.863281 16.558594 31.832031 16.585938 31.800781 C 16.628906 31.753906 16.628906 31.574219 16.640625 22.691406 L 16.652344 13.628906 L 22.496094 13.621094 L 28.335938 13.617188 L 28.335938 22.65625 C 28.335938 31.578125 28.335938 31.699219 28.382812 31.773438 C 28.449219 31.882812 28.582031 31.917969 28.703125 31.859375 C 28.753906 31.835938 28.804688 31.789062 28.820312 31.757812 C 28.84375 31.710938 28.851562 29.78125 28.851562 22.480469 L 28.851562 13.261719 L 28.691406 13.101562 L 16.289062 13.101562 Z M 16.214844 13.167969 "/>
<path style=" stroke:none;fill-rule:nonzero;fill:rgb(100%,100%,100%);fill-opacity:1;" d="M 17.503906 14.382812 C 17.355469 14.460938 17.367188 13.726562 17.367188 23.113281 C 17.367188 29.863281 17.375 31.6875 17.398438 31.730469 C 17.445312 31.824219 17.546875 31.886719 17.644531 31.882812 C 17.699219 31.878906 17.925781 31.789062 18.246094 31.644531 C 18.53125 31.515625 19.410156 31.121094 20.203125 30.761719 C 21.878906 30.007812 22.019531 29.941406 22.671875 29.644531 C 23.074219 29.464844 23.171875 29.410156 23.207031 29.355469 C 23.246094 29.289062 23.25 29.066406 23.242188 23.09375 L 23.238281 16.898438 L 23.179688 16.84375 C 23.148438 16.808594 22.847656 16.660156 22.519531 16.515625 C 21.765625 16.175781 20.925781 15.796875 20.074219 15.414062 C 19.714844 15.25 19.304688 15.066406 19.167969 15.003906 C 19.027344 14.945312 18.914062 14.886719 18.914062 14.875 C 18.914062 14.867188 20.753906 14.859375 23.003906 14.859375 L 27.09375 14.859375 L 27.09375 23.277344 C 27.09375 29.945312 27.101562 31.710938 27.125 31.757812 C 27.140625 31.789062 27.191406 31.835938 27.242188 31.859375 C 27.363281 31.917969 27.496094 31.882812 27.5625 31.773438 C 27.609375 31.699219 27.609375 31.582031 27.609375 23.101562 L 27.609375 14.503906 L 27.449219 14.34375 L 22.507812 14.34375 C 18.183594 14.347656 17.558594 14.351562 17.503906 14.382812 Z M 18.132812 15.113281 C 18.246094 15.164062 18.566406 15.308594 18.84375 15.433594 C 19.121094 15.558594 19.613281 15.78125 19.933594 15.925781 C 20.257812 16.070312 20.898438 16.363281 21.363281 16.570312 C 21.828125 16.78125 22.3125 16.996094 22.4375 17.054688 C 22.566406 17.109375 22.683594 17.167969 22.703125 17.183594 C 22.730469 17.207031 22.734375 18.179688 22.730469 23.125 L 22.722656 29.042969 L 22.054688 29.347656 C 21.339844 29.671875 20.742188 29.941406 19.570312 30.46875 C 19.164062 30.652344 18.660156 30.882812 18.445312 30.976562 C 18.230469 31.074219 18.023438 31.167969 17.984375 31.1875 L 17.90625 31.21875 L 17.90625 23.121094 C 17.90625 18.667969 17.910156 15.023438 17.914062 15.023438 C 17.921875 15.023438 18.019531 15.0625 18.132812 15.113281 Z M 18.132812 15.113281 "/>
<path style=" stroke:none;fill-rule:nonzero;fill:rgb(100%,100%,100%);fill-opacity:1;" d="M 22.019531 21.523438 C 21.980469 21.542969 21.929688 21.578125 21.902344 21.609375 C 21.859375 21.660156 21.855469 21.699219 21.847656 22.46875 C 21.84375 23.160156 21.847656 23.28125 21.878906 23.34375 C 21.941406 23.464844 22.097656 23.515625 22.226562 23.457031 C 22.355469 23.398438 22.359375 23.394531 22.359375 22.5 C 22.363281 21.582031 22.363281 21.589844 22.207031 21.523438 C 22.109375 21.484375 22.109375 21.484375 22.019531 21.523438 Z M 22.019531 21.523438 "/>
</g>
</svg>
