<?xml version="1.0" encoding="UTF-8"?>
<svg xmlns="http://www.w3.org/2000/svg" xmlns:xlink="http://www.w3.org/1999/xlink" width="50px" height="50px" viewBox="0 0 50 50" version="1.1">
<g id="surface1">
<path style=" stroke:none;fill-rule:nonzero;fill:rgb(100%,100%,100%);fill-opacity:1;" d="M 15.027344 7.015625 C 14.75 7.164062 14.617188 7.515625 14.617188 8.128906 C 14.617188 8.894531 15.085938 9.292969 15.75 9.066406 C 15.921875 9.003906 15.960938 8.90625 15.960938 8.441406 C 15.960938 7.890625 15.960938 7.890625 15.625 7.890625 C 15.441406 7.890625 15.289062 7.941406 15.289062 8.015625 C 15.289062 8.078125 15.402344 8.140625 15.539062 8.140625 C 15.75 8.140625 15.777344 8.191406 15.75 8.480469 C 15.730469 8.753906 15.664062 8.84375 15.453125 8.867188 C 15.066406 8.929688 14.808594 8.59375 14.808594 8.015625 C 14.808594 7.277344 15.277344 6.925781 15.777344 7.265625 C 15.894531 7.351562 15.960938 7.351562 15.960938 7.277344 C 15.960938 6.953125 15.421875 6.8125 15.027344 7.015625 Z M 15.027344 7.015625 "/>
<path style=" stroke:none;fill-rule:nonzero;fill:rgb(100%,100%,100%);fill-opacity:1;" d="M 16.546875 7.929688 C 16.222656 9.054688 16.210938 9.144531 16.335938 9.144531 C 16.382812 9.144531 16.453125 9.003906 16.480469 8.832031 C 16.539062 8.554688 16.597656 8.515625 16.960938 8.515625 C 17.328125 8.515625 17.394531 8.554688 17.441406 8.832031 C 17.480469 9.003906 17.546875 9.144531 17.605469 9.144531 C 17.664062 9.144531 17.691406 9.054688 17.664062 8.96875 C 17.632812 8.867188 17.492188 8.355469 17.347656 7.839844 C 17.203125 7.316406 17.039062 6.890625 16.972656 6.890625 C 16.902344 6.890625 16.722656 7.351562 16.546875 7.929688 Z M 17.203125 8.105469 C 17.210938 8.203125 17.097656 8.265625 16.914062 8.265625 C 16.597656 8.265625 16.597656 8.230469 16.847656 7.390625 L 16.941406 7.078125 L 17.066406 7.515625 C 17.144531 7.753906 17.203125 8.027344 17.203125 8.105469 Z M 17.203125 8.105469 "/>
<path style=" stroke:none;fill-rule:nonzero;fill:rgb(100%,100%,100%);fill-opacity:1;" d="M 18.078125 8.015625 C 18.078125 8.679688 18.117188 9.144531 18.171875 9.144531 C 18.230469 9.144531 18.269531 8.730469 18.277344 8.167969 L 18.277344 7.203125 L 18.578125 8.179688 C 18.742188 8.71875 18.921875 9.128906 18.972656 9.105469 C 19.019531 9.09375 19.210938 8.617188 19.382812 8.078125 L 19.703125 7.078125 L 19.710938 8.105469 C 19.710938 8.71875 19.75 9.144531 19.808594 9.144531 C 19.867188 9.144531 19.902344 8.679688 19.902344 8.015625 C 19.902344 6.5625 19.742188 6.511719 19.289062 7.789062 L 18.960938 8.703125 L 18.796875 8.203125 C 18.710938 7.929688 18.578125 7.515625 18.5 7.289062 C 18.433594 7.078125 18.308594 6.890625 18.230469 6.890625 C 18.105469 6.890625 18.078125 7.078125 18.078125 8.015625 Z M 18.078125 8.015625 "/>
<path style=" stroke:none;fill-rule:nonzero;fill:rgb(100%,100%,100%);fill-opacity:1;" d="M 20.480469 8.015625 L 20.480469 9.144531 L 20.914062 9.144531 C 21.152344 9.144531 21.347656 9.082031 21.347656 9.019531 C 21.347656 8.941406 21.191406 8.894531 21.007812 8.894531 C 20.703125 8.894531 20.671875 8.867188 20.671875 8.515625 C 20.671875 8.179688 20.703125 8.140625 20.960938 8.140625 C 21.125 8.140625 21.25 8.078125 21.25 8.015625 C 21.25 7.941406 21.125 7.890625 20.960938 7.890625 C 20.703125 7.890625 20.671875 7.851562 20.671875 7.515625 C 20.671875 7.164062 20.703125 7.140625 21.007812 7.140625 C 21.191406 7.140625 21.347656 7.078125 21.347656 7.015625 C 21.347656 6.9375 21.152344 6.890625 20.914062 6.890625 L 20.480469 6.890625 Z M 20.480469 8.015625 "/>
<path style=" stroke:none;fill-rule:nonzero;fill:rgb(100%,100%,100%);fill-opacity:1;" d="M 22.5 8.015625 C 22.5 8.679688 22.539062 9.144531 22.597656 9.144531 C 22.652344 9.144531 22.691406 8.730469 22.703125 8.167969 L 22.703125 7.203125 L 23 8.179688 C 23.164062 8.71875 23.347656 9.128906 23.394531 9.105469 C 23.441406 9.09375 23.632812 8.617188 23.808594 8.078125 L 24.125 7.078125 L 24.132812 8.105469 C 24.132812 8.71875 24.171875 9.144531 24.230469 9.144531 C 24.289062 9.144531 24.328125 8.679688 24.328125 8.015625 C 24.328125 6.5625 24.164062 6.511719 23.710938 7.789062 L 23.382812 8.703125 L 23.222656 8.203125 C 23.132812 7.929688 23 7.515625 22.921875 7.289062 C 22.855469 7.078125 22.730469 6.890625 22.652344 6.890625 C 22.527344 6.890625 22.5 7.078125 22.5 8.015625 Z M 22.5 8.015625 "/>
<path style=" stroke:none;fill-rule:nonzero;fill:rgb(100%,100%,100%);fill-opacity:1;" d="M 25.007812 7.929688 C 24.683594 9.054688 24.671875 9.144531 24.796875 9.144531 C 24.847656 9.144531 24.914062 9.003906 24.941406 8.832031 C 25 8.554688 25.058594 8.515625 25.421875 8.515625 C 25.789062 8.515625 25.855469 8.554688 25.902344 8.832031 C 25.941406 9.003906 26.007812 9.144531 26.066406 9.144531 C 26.125 9.144531 26.152344 9.054688 26.125 8.96875 C 26.097656 8.867188 25.953125 8.355469 25.808594 7.839844 C 25.664062 7.316406 25.5 6.890625 25.433594 6.890625 C 25.367188 6.890625 25.183594 7.351562 25.007812 7.929688 Z M 25.664062 8.105469 C 25.671875 8.203125 25.558594 8.265625 25.375 8.265625 C 25.058594 8.265625 25.058594 8.230469 25.308594 7.390625 L 25.402344 7.078125 L 25.527344 7.515625 C 25.605469 7.753906 25.664062 8.027344 25.664062 8.105469 Z M 25.664062 8.105469 "/>
<path style=" stroke:none;fill-rule:nonzero;fill:rgb(100%,100%,100%);fill-opacity:1;" d="M 26.539062 8.015625 C 26.539062 8.78125 26.578125 9.144531 26.644531 9.144531 C 26.730469 9.144531 26.742188 8.855469 26.703125 8.167969 C 26.644531 7.0625 26.671875 7.089844 27.242188 8.417969 C 27.683594 9.457031 27.789062 9.382812 27.789062 8.015625 C 27.789062 7.351562 27.75 6.890625 27.691406 6.890625 C 27.632812 6.890625 27.597656 7.277344 27.597656 7.789062 L 27.585938 8.703125 L 27.191406 7.789062 C 26.644531 6.5625 26.539062 6.601562 26.539062 8.015625 Z M 26.539062 8.015625 "/>
<path style=" stroke:none;fill-rule:nonzero;fill:rgb(100%,100%,100%);fill-opacity:1;" d="M 28.367188 8.015625 C 28.367188 8.679688 28.402344 9.144531 28.460938 9.144531 C 28.519531 9.144531 28.558594 8.679688 28.558594 8.015625 C 28.558594 7.351562 28.519531 6.890625 28.460938 6.890625 C 28.402344 6.890625 28.367188 7.351562 28.367188 8.015625 Z M 28.367188 8.015625 "/>
<path style=" stroke:none;fill-rule:nonzero;fill:rgb(100%,100%,100%);fill-opacity:1;" d="M 29.144531 7.929688 C 28.816406 9.054688 28.808594 9.144531 28.933594 9.144531 C 28.980469 9.144531 29.046875 9.003906 29.078125 8.832031 C 29.132812 8.554688 29.191406 8.515625 29.558594 8.515625 C 29.921875 8.515625 29.992188 8.554688 30.039062 8.832031 C 30.078125 9.003906 30.144531 9.144531 30.203125 9.144531 C 30.257812 9.144531 30.289062 9.054688 30.257812 8.96875 C 30.230469 8.867188 30.085938 8.355469 29.941406 7.839844 C 29.796875 7.316406 29.632812 6.890625 29.566406 6.890625 C 29.5 6.890625 29.316406 7.351562 29.144531 7.929688 Z M 29.796875 8.105469 C 29.808594 8.203125 29.691406 8.265625 29.507812 8.265625 C 29.191406 8.265625 29.191406 8.230469 29.441406 7.390625 L 29.539062 7.078125 L 29.664062 7.515625 C 29.742188 7.753906 29.796875 8.027344 29.796875 8.105469 Z M 29.796875 8.105469 "/>
<path style=" stroke:none;fill-rule:nonzero;fill:rgb(100%,100%,100%);fill-opacity:1;" d="M 14.578125 11.722656 C 14.546875 11.835938 14.519531 14.84375 14.519531 18.410156 C 14.519531 24.148438 14.539062 24.925781 14.671875 25.101562 C 14.789062 25.25 15.039062 25.300781 15.777344 25.300781 L 16.742188 25.300781 L 16.597656 25.640625 C 16.347656 26.277344 15.683594 28.996094 15.578125 29.847656 C 15.402344 31.101562 15.480469 32.300781 15.757812 32.828125 C 16.085938 33.46875 16.414062 33.730469 16.941406 33.792969 L 17.414062 33.855469 L 18.269531 32.703125 L 19.125 31.5625 L 24.191406 31.5625 L 24.472656 31.914062 C 24.632812 32.101562 24.914062 32.476562 25.097656 32.753906 C 25.625 33.53125 25.953125 33.816406 26.316406 33.816406 C 27.308594 33.816406 27.980469 32.453125 27.847656 30.710938 L 27.777344 29.933594 L 33.367188 29.933594 L 33.507812 29.632812 C 33.644531 29.382812 33.652344 28.78125 33.632812 25.238281 C 33.605469 21.355469 33.597656 21.140625 33.421875 20.96875 C 33.277344 20.828125 32.855469 20.792969 31.617188 20.792969 L 30 20.792969 L 30 16.308594 C 30 12.988281 29.972656 11.785156 29.882812 11.671875 C 29.796875 11.5625 27.960938 11.523438 22.203125 11.523438 C 15.394531 11.523438 14.632812 11.546875 14.578125 11.722656 Z M 28.941406 16.785156 L 28.941406 20.792969 L 25.507812 20.792969 C 21.453125 20.792969 21.730469 20.691406 21.730469 22.195312 L 21.730469 23.183594 L 20.75 23.121094 C 20.203125 23.082031 19.539062 23.019531 19.257812 22.984375 C 18.664062 22.882812 17.933594 23.144531 17.546875 23.609375 C 17.316406 23.898438 17.222656 23.921875 16.433594 23.921875 L 15.578125 23.921875 L 15.578125 12.777344 L 28.941406 12.777344 Z M 32.578125 25.386719 L 32.546875 28.621094 L 30.019531 28.65625 C 28.046875 28.683594 27.492188 28.65625 27.460938 28.53125 C 27.441406 28.445312 27.242188 27.667969 27.007812 26.804688 C 26.230469 23.921875 25.644531 23.070312 24.347656 22.945312 C 23.902344 22.910156 23.652344 22.933594 23.617188 23.035156 C 23.578125 23.109375 23.375 23.171875 23.164062 23.171875 C 22.789062 23.171875 22.789062 23.171875 22.789062 22.671875 L 22.789062 22.167969 L 32.597656 22.167969 Z M 19.289062 24.296875 C 19.375 24.410156 23.039062 24.398438 24.308594 24.285156 C 24.992188 24.222656 25.492188 25.175781 26.191406 27.929688 C 26.664062 29.757812 26.894531 31.226562 26.789062 31.738281 C 26.75 31.925781 26.632812 32.1875 26.527344 32.328125 L 26.328125 32.589844 L 25.644531 31.613281 C 24.625 30.171875 24.671875 30.183594 21.644531 30.183594 C 18.632812 30.183594 18.644531 30.183594 17.632812 31.601562 C 17.117188 32.339844 16.980469 32.464844 16.847656 32.363281 C 16.617188 32.175781 16.441406 31.699219 16.441406 31.25 C 16.441406 30.261719 17.355469 26.429688 17.902344 25.148438 C 18.203125 24.449219 19.019531 23.949219 19.289062 24.296875 Z M 19.289062 24.296875 "/>
<path style=" stroke:none;fill-rule:nonzero;fill:rgb(100%,100%,100%);fill-opacity:1;" d="M 27.277344 17.511719 C 27.066406 17.8125 27.066406 18.761719 27.269531 19.136719 C 27.433594 19.4375 27.867188 19.515625 28.058594 19.261719 C 28.210938 19.0625 28.210938 17.636719 28.058594 17.433594 C 27.882812 17.210938 27.453125 17.257812 27.277344 17.511719 Z M 27.277344 17.511719 "/>
<path style=" stroke:none;fill-rule:nonzero;fill:rgb(100%,100%,100%);fill-opacity:1;" d="M 30.882812 24.449219 C 30.730469 24.648438 30.730469 26.078125 30.882812 26.277344 C 31.078125 26.527344 31.507812 26.453125 31.671875 26.152344 C 31.875 25.777344 31.875 24.75 31.671875 24.5 C 31.5 24.261719 31.046875 24.234375 30.882812 24.449219 Z M 30.882812 24.449219 "/>
<path style=" stroke:none;fill-rule:nonzero;fill:rgb(100%,100%,100%);fill-opacity:1;" d="M 21.269531 25.703125 C 21.203125 25.789062 21.152344 26.003906 21.152344 26.175781 C 21.152344 26.351562 21.203125 26.566406 21.269531 26.652344 C 21.335938 26.742188 21.5 26.804688 21.632812 26.804688 C 21.769531 26.804688 21.933594 26.742188 22 26.652344 C 22.066406 26.566406 22.117188 26.351562 22.117188 26.175781 C 22.117188 26.003906 22.066406 25.789062 22 25.703125 C 21.933594 25.613281 21.769531 25.550781 21.632812 25.550781 C 21.5 25.550781 21.335938 25.613281 21.269531 25.703125 Z M 21.269531 25.703125 "/>
<path style=" stroke:none;fill-rule:nonzero;fill:rgb(100%,100%,100%);fill-opacity:1;" d="M 35.492188 12.324219 C 35.328125 12.550781 35.277344 12.738281 35.308594 13.164062 C 35.335938 13.714844 35.335938 13.714844 35.75 13.753906 L 36.152344 13.789062 L 36.144531 13.3125 C 36.125 12.925781 36.117188 12.902344 36.085938 13.1875 C 36.046875 13.503906 36.007812 13.539062 35.742188 13.503906 C 35.492188 13.476562 35.421875 13.402344 35.402344 13.125 C 35.367188 12.664062 35.683594 12.273438 36.105469 12.273438 C 36.671875 12.273438 36.992188 12.902344 36.730469 13.539062 C 36.664062 13.703125 36.664062 13.777344 36.722656 13.777344 C 36.847656 13.777344 36.972656 13.1875 36.933594 12.839844 C 36.847656 12.050781 35.921875 11.722656 35.492188 12.324219 Z M 35.492188 12.324219 "/>
<path style=" stroke:none;fill-rule:nonzero;fill:rgb(100%,100%,100%);fill-opacity:1;" d="M 12.144531 12.675781 C 11.703125 12.886719 11.347656 13.125 11.347656 13.214844 C 11.347656 13.351562 12.730469 14.152344 12.972656 14.152344 C 13.171875 14.152344 13.066406 13.929688 12.835938 13.851562 C 12.625 13.777344 12.597656 13.703125 12.597656 13.226562 C 12.597656 12.75 12.625 12.664062 12.835938 12.601562 C 12.972656 12.550781 13.078125 12.460938 13.078125 12.398438 C 13.078125 12.238281 13.078125 12.238281 12.144531 12.675781 Z M 12.402344 13.289062 C 12.402344 13.703125 12.375 13.703125 11.730469 13.375 L 11.492188 13.25 L 11.828125 13.089844 C 12.335938 12.839844 12.402344 12.863281 12.402344 13.289062 Z M 12.402344 13.289062 "/>
<path style=" stroke:none;fill-rule:nonzero;fill:rgb(100%,100%,100%);fill-opacity:1;" d="M 35.191406 14.214844 C 35.191406 14.242188 35.328125 14.355469 35.480469 14.464844 C 35.722656 14.628906 35.769531 14.742188 35.769531 15.105469 C 35.769531 15.480469 35.730469 15.570312 35.480469 15.667969 C 35.328125 15.742188 35.191406 15.855469 35.191406 15.917969 C 35.191406 16.070312 35.183594 16.082031 36.105469 15.644531 C 36.703125 15.367188 36.921875 15.191406 36.902344 15.066406 C 36.867188 14.804688 35.191406 13.976562 35.191406 14.214844 Z M 36.539062 14.941406 L 36.777344 15.054688 L 36.492188 15.230469 C 36.007812 15.507812 35.867188 15.457031 35.867188 15.015625 C 35.867188 14.605469 35.894531 14.605469 36.539062 14.941406 Z M 36.539062 14.941406 "/>
<path style=" stroke:none;fill-rule:nonzero;fill:rgb(100%,100%,100%);fill-opacity:1;" d="M 11.347656 14.65625 C 11.347656 14.730469 11.703125 14.78125 12.242188 14.765625 C 12.972656 14.753906 13.058594 14.730469 12.742188 14.640625 C 12.203125 14.503906 11.347656 14.503906 11.347656 14.65625 Z M 11.347656 14.65625 "/>
<path style=" stroke:none;fill-rule:nonzero;fill:rgb(100%,100%,100%);fill-opacity:1;" d="M 11.347656 15.65625 C 11.347656 15.730469 11.644531 15.78125 12.046875 15.78125 L 12.742188 15.792969 L 12.046875 16.308594 C 11.097656 17.023438 11.125 17.160156 12.242188 17.148438 C 12.941406 17.148438 13.078125 17.121094 12.882812 17.023438 C 12.75 16.945312 12.414062 16.921875 12.144531 16.957031 C 11.578125 17.046875 11.480469 16.894531 11.921875 16.660156 C 12.421875 16.394531 13.085938 15.78125 13.027344 15.65625 C 12.953125 15.492188 11.347656 15.492188 11.347656 15.65625 Z M 11.347656 15.65625 "/>
<path style=" stroke:none;fill-rule:nonzero;fill:rgb(100%,100%,100%);fill-opacity:1;" d="M 35.25 16.644531 C 35.296875 16.722656 35.644531 16.785156 36.007812 16.808594 L 36.683594 16.847656 L 35.933594 17.210938 C 35.519531 17.410156 35.203125 17.621094 35.222656 17.699219 C 35.230469 17.761719 35.597656 18 36.007812 18.210938 L 36.777344 18.601562 L 35.992188 18.636719 C 34.914062 18.6875 34.972656 18.914062 36.058594 18.914062 C 37.171875 18.914062 37.222656 18.699219 36.230469 18.109375 C 35.453125 17.648438 35.453125 17.660156 36.421875 17.210938 C 36.777344 17.046875 36.921875 16.921875 36.921875 16.757812 C 36.921875 16.558594 36.828125 16.53125 36.039062 16.53125 C 35.480469 16.53125 35.191406 16.582031 35.25 16.644531 Z M 35.25 16.644531 "/>
<path style=" stroke:none;fill-rule:nonzero;fill:rgb(100%,100%,100%);fill-opacity:1;" d="M 12.132812 18.0625 C 11.585938 18.335938 11.347656 18.511719 11.367188 18.636719 C 11.394531 18.789062 12 19.152344 12.769531 19.464844 C 13.058594 19.589844 13.039062 19.363281 12.742188 19.1875 C 12.546875 19.074219 12.5 18.949219 12.5 18.601562 C 12.5 18.238281 12.546875 18.136719 12.742188 18.035156 C 12.875 17.972656 12.980469 17.859375 12.980469 17.785156 C 12.980469 17.722656 12.972656 17.660156 12.960938 17.671875 C 12.941406 17.671875 12.578125 17.859375 12.132812 18.0625 Z M 12.402344 18.675781 C 12.402344 19.089844 12.375 19.089844 11.730469 18.761719 L 11.492188 18.636719 L 11.828125 18.472656 C 12.335938 18.222656 12.402344 18.25 12.402344 18.675781 Z M 12.402344 18.675781 "/>
<path style=" stroke:none;fill-rule:nonzero;fill:rgb(100%,100%,100%);fill-opacity:1;" d="M 35.191406 20.226562 C 35.191406 20.542969 35.242188 20.792969 35.289062 20.792969 C 35.347656 20.792969 35.382812 20.589844 35.382812 20.351562 C 35.382812 19.953125 35.402344 19.914062 35.671875 19.914062 C 35.933594 19.914062 35.960938 19.953125 35.960938 20.289062 C 35.960938 20.492188 36.007812 20.667969 36.058594 20.667969 C 36.117188 20.667969 36.152344 20.492188 36.152344 20.289062 C 36.152344 19.953125 36.183594 19.914062 36.441406 19.914062 C 36.710938 19.914062 36.730469 19.953125 36.730469 20.351562 C 36.730469 20.589844 36.777344 20.792969 36.828125 20.792969 C 36.882812 20.792969 36.921875 20.542969 36.921875 20.226562 L 36.921875 19.664062 L 35.191406 19.664062 Z M 35.191406 20.226562 "/>
<path style=" stroke:none;fill-rule:nonzero;fill:rgb(100%,100%,100%);fill-opacity:1;" d="M 11.347656 20.242188 C 11.347656 20.351562 11.617188 20.589844 12.046875 20.855469 C 12.617188 21.191406 12.703125 21.292969 12.546875 21.367188 C 11.828125 21.71875 11.347656 22.054688 11.347656 22.21875 C 11.347656 22.382812 11.492188 22.417969 12.164062 22.417969 C 13.164062 22.417969 13.257812 22.195312 12.289062 22.144531 L 11.585938 22.105469 L 12.289062 21.742188 C 12.683594 21.542969 12.972656 21.332031 12.953125 21.242188 C 12.933594 21.167969 12.597656 20.929688 12.210938 20.730469 L 11.507812 20.351562 L 12.242188 20.316406 C 13.25 20.265625 13.183594 20.039062 12.164062 20.039062 C 11.492188 20.039062 11.347656 20.078125 11.347656 20.242188 Z M 11.347656 20.242188 "/>
<path style=" stroke:none;fill-rule:nonzero;fill:rgb(100%,100%,100%);fill-opacity:1;" d="M 35.191406 22.417969 C 35.191406 22.496094 35.507812 22.546875 35.941406 22.558594 L 36.683594 22.558594 L 35.933594 22.945312 C 35.519531 23.160156 35.203125 23.398438 35.222656 23.460938 C 35.230469 23.523438 35.597656 23.773438 36.007812 23.996094 L 36.777344 24.410156 L 35.992188 24.425781 C 35.519531 24.425781 35.191406 24.472656 35.191406 24.550781 C 35.191406 24.625 35.546875 24.675781 36.058594 24.675781 C 37.171875 24.675781 37.210938 24.460938 36.230469 23.871094 L 35.527344 23.445312 L 35.894531 23.246094 C 36.085938 23.132812 36.402344 22.957031 36.585938 22.871094 C 36.769531 22.769531 36.921875 22.59375 36.921875 22.496094 C 36.921875 22.332031 36.777344 22.292969 36.058594 22.292969 C 35.546875 22.292969 35.191406 22.34375 35.191406 22.417969 Z M 35.191406 22.417969 "/>
<path style=" stroke:none;fill-rule:nonzero;fill:rgb(100%,100%,100%);fill-opacity:1;" d="M 11.367188 24.449219 L 11.347656 25.050781 L 12.980469 25.050781 L 12.960938 24.449219 C 12.953125 23.910156 12.941406 23.898438 12.914062 24.324219 C 12.875 24.773438 12.855469 24.800781 12.546875 24.800781 C 12.25 24.800781 12.222656 24.761719 12.183594 24.386719 L 12.144531 23.984375 L 12.132812 24.386719 C 12.117188 24.773438 12.085938 24.800781 11.789062 24.800781 C 11.472656 24.800781 11.453125 24.773438 11.414062 24.324219 C 11.382812 23.898438 11.375 23.910156 11.367188 24.449219 Z M 11.367188 24.449219 "/>
<path style=" stroke:none;fill-rule:nonzero;fill:rgb(100%,100%,100%);fill-opacity:1;" d="M 35.191406 25.289062 C 35.191406 25.351562 35.296875 25.4375 35.433594 25.476562 C 35.632812 25.539062 35.671875 25.625 35.671875 26.050781 C 35.671875 26.476562 35.632812 26.578125 35.433594 26.679688 C 35.296875 26.742188 35.191406 26.867188 35.191406 26.941406 C 35.191406 27.027344 35.257812 27.042969 35.367188 26.992188 C 35.453125 26.941406 35.847656 26.753906 36.230469 26.578125 C 36.605469 26.402344 36.921875 26.203125 36.921875 26.113281 C 36.921875 26.027344 36.566406 25.789062 36.125 25.5625 C 35.257812 25.136719 35.191406 25.125 35.191406 25.289062 Z M 36.507812 25.9375 L 36.777344 26.078125 L 36.441406 26.238281 C 35.882812 26.515625 35.769531 26.476562 35.769531 26.039062 C 35.769531 25.6875 35.789062 25.652344 36.007812 25.726562 C 36.132812 25.765625 36.367188 25.863281 36.507812 25.9375 Z M 36.507812 25.9375 "/>
<path style=" stroke:none;fill-rule:nonzero;fill:rgb(100%,100%,100%);fill-opacity:1;" d="M 11.347656 26.027344 C 11.347656 26.191406 11.519531 26.351562 11.953125 26.578125 C 12.277344 26.753906 12.539062 26.953125 12.539062 27.003906 C 12.527344 27.066406 12.25 27.265625 11.914062 27.441406 C 11.546875 27.628906 11.289062 27.855469 11.269531 27.96875 C 11.242188 28.15625 11.347656 28.179688 12.105469 28.179688 C 12.625 28.179688 12.980469 28.132812 12.980469 28.054688 C 12.980469 27.980469 12.664062 27.929688 12.242188 27.917969 L 11.492188 27.917969 L 12.242188 27.53125 C 12.652344 27.316406 12.972656 27.078125 12.953125 27.003906 C 12.933594 26.941406 12.605469 26.703125 12.210938 26.492188 L 11.507812 26.113281 L 12.242188 26.078125 C 13.25 26.027344 13.183594 25.800781 12.164062 25.800781 C 11.433594 25.800781 11.347656 25.828125 11.347656 26.027344 Z M 11.347656 26.027344 "/>
<path style=" stroke:none;fill-rule:nonzero;fill:rgb(100%,100%,100%);fill-opacity:1;" d="M 35.480469 27.691406 C 35.664062 27.753906 35.980469 27.769531 36.183594 27.730469 C 36.375 27.691406 36.539062 27.707031 36.539062 27.769531 C 36.539062 27.832031 36.242188 28.09375 35.867188 28.355469 C 34.933594 29.007812 34.972656 29.183594 36.058594 29.183594 C 36.566406 29.183594 36.921875 29.132812 36.921875 29.058594 C 36.921875 28.984375 36.605469 28.933594 36.183594 28.933594 L 35.433594 28.933594 L 36.039062 28.507812 C 37.203125 27.691406 37.203125 27.554688 36.039062 27.566406 C 35.316406 27.582031 35.210938 27.605469 35.480469 27.691406 Z M 35.480469 27.691406 "/>
<path style=" stroke:none;fill-rule:nonzero;fill:rgb(100%,100%,100%);fill-opacity:1;" d="M 12.046875 29.082031 C 11.605469 29.296875 11.25 29.535156 11.25 29.621094 C 11.25 29.746094 12.691406 30.5625 12.914062 30.5625 C 13.085938 30.5625 12.953125 30.324219 12.742188 30.261719 C 12.527344 30.183594 12.5 30.109375 12.5 29.632812 C 12.5 29.160156 12.527344 29.070312 12.710938 29.03125 C 12.828125 29.007812 12.933594 28.921875 12.960938 28.832031 C 13.007812 28.632812 12.960938 28.644531 12.046875 29.082031 Z M 12.402344 29.609375 C 12.402344 30.023438 12.308594 30.074219 11.894531 29.910156 C 11.472656 29.734375 11.453125 29.621094 11.808594 29.457031 C 12.257812 29.234375 12.402344 29.285156 12.402344 29.609375 Z M 12.402344 29.609375 "/>
<path style=" stroke:none;fill-rule:nonzero;fill:rgb(100%,100%,100%);fill-opacity:1;" d="M 35.671875 30.058594 C 36.441406 30.199219 36.828125 30.199219 36.828125 30.058594 C 36.828125 29.984375 36.492188 29.949219 35.992188 29.949219 C 35.171875 29.972656 35.164062 29.972656 35.671875 30.058594 Z M 35.671875 30.058594 "/>
<path style=" stroke:none;fill-rule:nonzero;fill:rgb(100%,100%,100%);fill-opacity:1;" d="M 35.191406 30.660156 C 35.191406 30.722656 35.296875 30.835938 35.433594 30.910156 C 35.605469 31.011719 35.671875 31.148438 35.671875 31.398438 C 35.671875 31.824219 35.597656 31.976562 35.296875 32.140625 C 35.164062 32.214844 35.097656 32.300781 35.152344 32.339844 C 35.203125 32.378906 35.597656 32.238281 36.039062 32.027344 C 36.992188 31.574219 37.019531 31.398438 36.203125 31 C 35.347656 30.585938 35.191406 30.535156 35.191406 30.660156 Z M 36.441406 31.351562 L 36.683594 31.464844 L 36.394531 31.636719 C 35.914062 31.914062 35.769531 31.863281 35.769531 31.425781 C 35.769531 31.011719 35.796875 31.011719 36.441406 31.351562 Z M 36.441406 31.351562 "/>
<path style=" stroke:none;fill-rule:nonzero;fill:rgb(100%,100%,100%);fill-opacity:1;" d="M 11.335938 31.238281 C 11.085938 31.953125 11.5 32.691406 12.152344 32.691406 C 12.796875 32.691406 13.105469 32.101562 12.921875 31.210938 C 12.875 30.988281 12.796875 30.9375 12.441406 30.9375 C 12.019531 30.9375 12.019531 30.9375 12.019531 31.375 C 12.019531 31.613281 12.066406 31.8125 12.117188 31.8125 C 12.171875 31.8125 12.210938 31.664062 12.210938 31.488281 C 12.210938 31.210938 12.25 31.175781 12.480469 31.210938 C 12.683594 31.238281 12.75 31.324219 12.769531 31.601562 C 12.816406 32.101562 12.558594 32.441406 12.117188 32.441406 C 11.546875 32.441406 11.277344 31.824219 11.539062 31.175781 C 11.617188 31.011719 11.605469 30.9375 11.539062 30.9375 C 11.480469 30.9375 11.394531 31.074219 11.335938 31.238281 Z M 11.335938 31.238281 "/>
</g>
</svg>
