<?xml version="1.0" standalone="no"?>
<!DOCTYPE svg PUBLIC "-//W3C//DTD SVG 20010904//EN"
 "http://www.w3.org/TR/2001/REC-SVG-20010904/DTD/svg10.dtd">
<svg version="1.0" xmlns="http://www.w3.org/2000/svg"
 width="520.000000pt" height="399.000000pt" viewBox="0 0 520.000000 399.000000"
 preserveAspectRatio="xMidYMid meet">

<g transform="translate(0.000000,399.000000) scale(0.100000,-0.100000)"
fill="#FFFFFF" stroke="none">
<path d="M1563 3430 c-29 -12 -43 -40 -43 -89 0 -61 49 -93 118 -75 18 5 22
13 22 50 0 44 0 44 -35 44 -19 0 -35 -4 -35 -10 0 -5 12 -10 26 -10 22 0 25
-4 22 -27 -2 -22 -9 -29 -31 -31 -40 -5 -67 22 -67 68 0 59 49 87 101 60 12
-7 19 -7 19 -1 0 26 -56 37 -97 21z"/>
<path d="M1721 3357 c-34 -90 -35 -97 -22 -97 5 0 12 11 15 25 6 22 12 25 50
25 38 0 45 -3 50 -25 4 -14 11 -25 17 -25 6 0 9 7 6 14 -3 8 -18 49 -33 90
-15 42 -32 76 -39 76 -7 0 -26 -37 -44 -83z m68 -14 c1 -8 -11 -13 -30 -13
-33 0 -33 3 -7 70 l10 25 13 -35 c8 -19 14 -41 14 -47z"/>
<path d="M1880 3350 c0 -53 4 -90 10 -90 6 0 10 33 11 78 l0 77 31 -78 c17
-43 36 -76 41 -74 5 1 25 39 43 82 l33 80 1 -82 c0 -49 4 -83 10 -83 6 0 10
37 10 90 0 116 -17 120 -64 18 l-34 -73 -17 40 c-9 22 -23 55 -31 73 -7 17
-20 32 -28 32 -13 0 -16 -15 -16 -90z"/>
<path d="M2130 3350 l0 -90 45 0 c25 0 45 5 45 10 0 6 -16 10 -35 10 -32 0
-35 2 -35 30 0 27 3 30 30 30 17 0 30 5 30 10 0 6 -13 10 -30 10 -27 0 -30 3
-30 30 0 28 3 30 35 30 19 0 35 5 35 10 0 6 -20 10 -45 10 l-45 0 0 -90z"/>
<path d="M2340 3350 c0 -53 4 -90 10 -90 6 0 10 33 11 78 l0 77 31 -78 c17
-43 36 -76 41 -74 5 1 25 39 43 82 l33 80 1 -82 c0 -49 4 -83 10 -83 6 0 10
37 10 90 0 116 -17 120 -64 18 l-34 -73 -17 40 c-9 22 -23 55 -31 73 -7 17
-20 32 -28 32 -13 0 -16 -15 -16 -90z"/>
<path d="M2601 3357 c-34 -90 -35 -97 -22 -97 5 0 12 11 15 25 6 22 12 25 50
25 38 0 45 -3 50 -25 4 -14 11 -25 17 -25 6 0 9 7 6 14 -3 8 -18 49 -33 90
-15 42 -32 76 -39 76 -7 0 -26 -37 -44 -83z m68 -14 c1 -8 -11 -13 -30 -13
-33 0 -33 3 -7 70 l10 25 13 -35 c8 -19 14 -41 14 -47z"/>
<path d="M2760 3350 c0 -61 4 -90 11 -90 9 0 10 23 6 78 -6 88 -3 86 56 -20
46 -83 57 -77 57 32 0 53 -4 90 -10 90 -6 0 -10 -31 -10 -72 l-1 -73 -41 73
c-57 98 -68 95 -68 -18z"/>
<path d="M2950 3350 c0 -53 4 -90 10 -90 6 0 10 37 10 90 0 53 -4 90 -10 90
-6 0 -10 -37 -10 -90z"/>
<path d="M3031 3357 c-34 -90 -35 -97 -22 -97 5 0 12 11 15 25 6 22 12 25 50
25 38 0 45 -3 50 -25 4 -14 11 -25 17 -25 6 0 9 7 6 14 -3 8 -18 49 -33 90
-15 42 -32 76 -39 76 -7 0 -26 -37 -44 -83z m68 -14 c1 -8 -11 -13 -30 -13
-33 0 -33 3 -7 70 l10 25 13 -35 c8 -19 14 -41 14 -47z"/>
<path d="M1516 3054 c-3 -9 -6 -249 -6 -534 0 -458 2 -520 16 -534 12 -12 38
-16 115 -16 l100 0 -15 -27 c-26 -51 -95 -268 -106 -336 -18 -100 -10 -196 19
-238 34 -51 68 -72 123 -77 l49 -5 89 92 89 91 263 0 264 0 29 -28 c17 -15 46
-45 65 -67 55 -62 89 -85 127 -85 103 0 173 109 159 248 l-7 62 290 0 291 0
15 24 c14 20 15 68 13 351 -3 310 -4 327 -22 341 -15 11 -59 14 -188 14 l-168
0 0 358 c0 265 -3 361 -12 370 -9 9 -200 12 -799 12 -708 0 -787 -2 -793 -16z
m1494 -404 l0 -320 -357 0 c-422 0 -393 8 -393 -112 l0 -79 -102 5 c-57 3
-126 8 -155 11 -62 8 -138 -13 -178 -50 -24 -23 -34 -25 -116 -25 l-89 0 0
445 0 445 695 0 695 0 0 -320z m378 -687 l-3 -258 -263 -3 c-205 -2 -263 0
-266 10 -2 7 -23 69 -47 138 -81 230 -142 298 -277 308 -46 3 -72 1 -76 -7 -4
-6 -25 -11 -47 -11 -39 0 -39 0 -39 40 l0 40 510 0 510 0 -2 -257z m-1382 87
c9 -9 390 -8 522 1 71 5 123 -71 196 -291 49 -146 73 -263 62 -304 -4 -15 -16
-36 -27 -47 l-21 -21 -71 78 c-106 115 -101 114 -416 114 -313 0 -312 0 -417
-113 -54 -59 -68 -69 -82 -61 -24 15 -42 53 -42 89 0 79 95 385 152 487 31 56
116 96 144 68z"/>
<path d="M2837 2592 c-22 -24 -22 -100 -1 -130 17 -24 62 -30 82 -10 16 16 16
130 0 146 -18 18 -63 14 -81 -6z"/>
<path d="M3212 2038 c-16 -16 -16 -130 0 -146 20 -20 65 -14 82 10 21 30 21
112 0 132 -18 19 -65 21 -82 4z"/>
<path d="M2212 1938 c-7 -7 -12 -24 -12 -38 0 -14 5 -31 12 -38 7 -7 24 -12
38 -12 14 0 31 5 38 12 7 7 12 24 12 38 0 14 -5 31 -12 38 -7 7 -24 12 -38 12
-14 0 -31 -5 -38 -12z"/>
<path d="M3691 3006 c-17 -18 -22 -33 -19 -67 3 -44 3 -44 46 -47 l42 -3 -1
38 c-2 31 -3 33 -6 10 -4 -25 -8 -28 -36 -25 -26 2 -33 8 -35 30 -4 37 29 68
73 68 59 0 92 -50 65 -101 -7 -13 -7 -19 -1 -19 13 0 26 47 22 75 -9 63 -105
89 -150 41z"/>
<path d="M1263 2978 c-46 -17 -83 -36 -83 -43 0 -11 144 -75 169 -75 21 0 10
18 -14 24 -22 6 -25 12 -25 50 0 38 3 45 25 50 14 4 25 11 25 16 0 13 0 13
-97 -22z m27 -49 c0 -33 -3 -33 -70 -7 l-25 10 35 13 c53 20 60 18 60 -16z"/>
<path d="M3660 2855 c0 -2 14 -11 30 -20 25 -13 30 -22 30 -51 0 -30 -4 -37
-30 -45 -16 -6 -30 -15 -30 -20 0 -12 -1 -13 95 22 62 22 85 36 83 46 -4 21
-178 87 -178 68z m140 -58 l25 -9 -30 -14 c-50 -22 -65 -18 -65 17 0 33 3 33
70 6z"/>
<path d="M1180 2820 c0 -6 37 -10 93 -9 76 1 85 3 52 10 -56 11 -145 11 -145
-1z"/>
<path d="M1180 2740 c0 -6 31 -10 73 -10 l72 -1 -72 -41 c-99 -57 -96 -68 20
-67 73 0 87 2 67 10 -14 6 -49 8 -77 5 -59 -7 -69 5 -23 24 52 21 121 70 115
80 -8 13 -175 13 -175 0z"/>
<path d="M3666 2661 c5 -6 41 -11 79 -13 l70 -3 -78 -29 c-43 -16 -76 -33 -74
-39 1 -5 39 -24 82 -41 l80 -31 -82 -3 c-112 -4 -106 -22 7 -22 116 0 121 17
18 64 -81 37 -81 36 20 72 37 13 52 23 52 36 0 16 -10 18 -92 18 -58 0 -88 -4
-82 -9z"/>
<path d="M1262 2548 c-57 -22 -82 -36 -80 -46 3 -12 66 -41 146 -66 30 -10 28
8 -3 22 -20 9 -25 19 -25 47 0 29 5 37 25 45 14 5 25 14 25 20 0 5 -1 10 -2 9
-2 0 -40 -15 -86 -31z m28 -49 c0 -33 -3 -33 -70 -7 l-25 10 35 13 c53 20 60
18 60 -16z"/>
<path d="M3660 2375 c0 -25 5 -45 10 -45 6 0 10 16 10 35 0 32 2 35 30 35 27
0 30 -3 30 -30 0 -16 5 -30 10 -30 6 0 10 14 10 30 0 27 3 30 30 30 28 0 30
-3 30 -35 0 -19 5 -35 10 -35 6 0 10 20 10 45 l0 45 -90 0 -90 0 0 -45z"/>
<path d="M1180 2374 c0 -9 28 -28 73 -49 59 -27 68 -35 52 -41 -75 -28 -125
-55 -125 -68 0 -13 15 -16 85 -16 104 0 114 18 13 22 l-73 3 73 29 c41 16 71
33 69 40 -2 6 -37 25 -77 41 l-73 30 76 3 c105 4 98 22 -8 22 -70 0 -85 -3
-85 -16z"/>
<path d="M3660 2200 c0 -6 33 -10 78 -11 l77 0 -78 -31 c-43 -17 -76 -36 -74
-41 1 -5 39 -25 82 -43 l80 -33 -82 -1 c-49 0 -83 -4 -83 -10 0 -6 37 -10 90
-10 116 0 120 17 18 64 l-73 34 38 16 c20 9 53 23 72 30 19 8 35 22 35 30 0
13 -15 16 -90 16 -53 0 -90 -4 -90 -10z"/>
<path d="M1182 2038 l-2 -48 85 0 85 0 -2 48 c-1 43 -2 44 -5 10 -4 -36 -6
-38 -38 -38 -31 0 -34 3 -38 33 l-4 32 -1 -32 c-2 -31 -5 -33 -36 -33 -33 0
-35 2 -39 38 -3 34 -4 33 -5 -10z"/>
<path d="M3660 1971 c0 -5 11 -12 25 -15 21 -5 25 -12 25 -46 0 -34 -4 -42
-25 -50 -14 -5 -25 -15 -25 -21 0 -7 7 -8 18 -4 9 4 50 19 90 33 39 14 72 30
72 37 0 7 -37 26 -83 44 -90 34 -97 35 -97 22z m137 -52 l28 -11 -35 -13 c-58
-22 -70 -19 -70 16 0 28 2 31 25 25 13 -3 37 -11 52 -17z"/>
<path d="M1180 1912 c0 -13 18 -26 63 -44 34 -14 61 -30 61 -34 -1 -5 -30 -21
-65 -35 -38 -15 -65 -33 -67 -42 -3 -15 8 -17 87 -17 54 0 91 4 91 10 0 6 -33
10 -77 11 l-78 0 78 31 c43 17 76 36 74 42 -2 5 -36 24 -77 41 l-73 30 76 3
c105 4 98 22 -8 22 -76 0 -85 -2 -85 -18z"/>
<path d="M3690 1779 c19 -5 52 -6 73 -3 20 3 37 2 37 -3 0 -5 -31 -26 -70 -47
-97 -52 -93 -66 20 -66 53 0 90 4 90 10 0 6 -33 10 -77 10 l-78 0 63 34 c121
65 121 76 0 75 -75 -1 -86 -3 -58 -10z"/>
<path d="M1253 1668 c-46 -17 -83 -36 -83 -43 0 -10 150 -75 173 -75 18 0 4
19 -18 24 -22 6 -25 12 -25 50 0 38 3 45 22 48 12 2 23 9 26 16 5 16 0 15 -95
-20z m37 -42 c0 -33 -10 -37 -53 -24 -44 14 -46 23 -9 36 47 18 62 14 62 -12z"/>
<path d="M3710 1590 c80 -11 120 -11 120 0 0 6 -35 9 -87 9 -85 -2 -86 -2 -33
-9z"/>
<path d="M3660 1542 c0 -5 11 -14 25 -20 18 -8 25 -19 25 -39 0 -34 -8 -46
-39 -59 -14 -6 -21 -13 -15 -16 5 -3 46 8 92 25 99 36 102 50 17 82 -89 33
-105 37 -105 27z m130 -55 l25 -9 -30 -14 c-50 -22 -65 -18 -65 17 0 33 3 33
70 6z"/>
<path d="M1179 1496 c-26 -57 17 -116 85 -116 67 0 99 47 80 118 -5 18 -13 22
-50 22 -44 0 -44 0 -44 -35 0 -19 5 -35 10 -35 6 0 10 12 10 26 0 22 4 25 28
22 21 -2 28 -9 30 -31 5 -40 -22 -67 -68 -67 -59 0 -87 49 -60 101 8 13 7 19
0 19 -6 0 -15 -11 -21 -24z"/>
</g>
</svg>
