<svg width="111" height="79" viewBox="0 0 111 79" fill="none" xmlns="http://www.w3.org/2000/svg">
<g clip-path="url(#clip0_64_100)">
<path d="M0.975586 11.9117C0.260156 12.1895 0 12.5289 0 13.1924C0 13.6553 0.130078 13.9176 0.498633 14.1645C0.997266 14.4885 1.1707 14.5039 6.02695 14.5039H11.0566V17.7287V20.9689L7.78301 21.0152C4.63945 21.0615 4.4877 21.077 4.09746 21.4318C3.49043 21.9564 3.55547 22.9131 4.22754 23.376C4.72617 23.7463 4.83457 23.7617 7.91309 23.7617H11.0566V24.9961V26.2305H8.12988C5.07305 26.2305 4.11914 26.3848 3.81563 26.9248C3.75059 27.0637 3.68555 29.7947 3.68555 33.0041V38.8365L4.18418 39.1605C4.66113 39.4846 4.89961 39.5 7.86973 39.5H11.0566V40.8115V42.123H7.84805C4.76953 42.123 4.61777 42.1385 4.1625 42.4779C3.46875 43.0025 3.51211 43.9592 4.24922 44.4529C4.76953 44.8078 4.96465 44.8232 7.93477 44.8695L11.0566 44.9158V46.1502V47.3691H7.91309C4.83457 47.3691 4.72617 47.3846 4.22754 47.7549L3.68555 48.1252V54.0039V59.8826L4.22754 60.2529C4.72617 60.6232 4.83457 60.6387 7.91309 60.6387H11.0566V63.5395C11.0566 66.3631 11.0783 66.4557 11.5336 66.7643C12.2273 67.2117 12.9428 67.3352 13.6799 67.1037C14.8939 66.7643 14.959 66.4557 14.959 62.0273V58.0156H19.4033H23.8477V61.9502C23.8477 66.3014 23.9561 66.7643 25.0617 67.0883C25.5387 67.2271 30.8068 67.2734 46.5463 67.2426L67.3805 67.1963L67.9441 66.826L68.5078 66.4557V62.2279V58.0156H72.085H75.6621V61.9348C75.6621 64.3881 75.7488 66.0236 75.9006 66.3322C76.3559 67.258 76.5727 67.2734 85.0711 67.2734C90.5777 67.2734 92.9408 67.2271 93.3311 67.0883C94.4367 66.7334 94.5234 66.3939 94.5234 62.0273V58.0156H97.8404C101.569 58.0156 103.239 57.7996 105.125 57.0898C107.683 56.1178 109.504 54.6057 110.48 52.6307L111 51.6123V38.2502C111 25.351 110.978 24.8418 110.566 23.9006C109.743 21.9719 107.748 20.29 105.19 19.318C102.523 18.2996 105.493 18.3613 58.0582 18.3613H14.959V15.6766C14.959 14.1953 14.8723 12.8066 14.7422 12.5906C14.3303 11.7883 13.7666 11.7266 7.32773 11.7266C3.46875 11.742 1.25742 11.7883 0.975586 11.9117ZM102.87 21.6479C104.539 22.2033 106.057 23.3451 106.664 24.4715C107.098 25.3201 107.098 25.5207 107.054 38.3891L106.989 51.458L106.491 52.1678C105.71 53.3096 104.604 54.0965 103.022 54.652L101.569 55.1611L58.275 55.2074L14.959 55.2383V38.1885V21.1387L58.275 21.1695L101.569 21.2158L102.87 21.6479ZM11.0566 32.8652V36.7227H9.32227H7.58789V32.8652V29.0078H9.32227H11.0566V32.8652ZM11.0566 54.0039V57.8613H9.32227H7.58789V54.0039V50.1465H9.32227H11.0566V54.0039ZM64.6055 61.2559V64.4961H62.0039H59.4023V63.1846C59.4023 61.7496 59.0555 60.9164 58.3617 60.6541C57.6029 60.3609 56.6057 60.4535 56.042 60.8701C55.5434 61.225 55.5 61.3484 55.5 62.876V64.4961H53.6572H51.8145V62.8914C51.8145 61.009 51.576 60.6695 50.1668 60.5307C49.4514 60.4689 49.1912 60.5152 48.6492 60.8393C48.0422 61.225 48.0205 61.2713 47.9555 62.8605L47.8688 64.4961H46.1561H44.4434V62.9686C44.4434 61.1787 44.3783 61.009 43.5545 60.7158C42.6873 60.3918 41.9502 60.4381 41.2564 60.8547C40.6711 61.2096 40.6494 61.2867 40.5844 62.8605L40.4977 64.4961H38.785H37.0723V62.9068C37.0506 61.2713 36.9422 60.9936 36.0533 60.6695C35.2512 60.3609 34.4707 60.4535 33.7986 60.9318C33.1916 61.3793 33.1699 61.4256 33.1699 62.9377V64.4961H30.46H27.75V61.2559V58.0156H46.1777H64.6055V61.2559ZM90.6211 61.2559V64.4961H88.8867H87.1523V63.1846C87.1523 61.7496 86.8055 60.9164 86.1117 60.6541C85.3529 60.3609 84.3557 60.4535 83.792 60.8701C83.2934 61.225 83.25 61.3484 83.25 62.876V64.4961H81.4072H79.5645V61.2559V58.0156H85.0928H90.6211V61.2559Z" fill="white"/>
<path d="M36.5303 23.7155C32.0642 24.1013 28.0318 25.4591 24.8666 27.6038C22.7853 29.0233 21.5496 30.2114 20.3789 31.955C18.9047 34.146 18.5578 35.3341 18.5578 38.1886C18.5578 41.0431 18.9047 42.2312 20.3789 44.4222C21.5496 46.1503 22.7853 47.3692 24.7365 48.6808C27.4682 50.5169 30.2432 51.6124 33.9504 52.3222C36.4435 52.8005 40.9963 52.8005 43.6629 52.3376C51.5543 50.9335 57.3861 46.5515 58.9904 40.8116C59.1205 40.3179 59.2289 39.1298 59.2289 38.1886C59.2289 34.1306 57.2344 30.6743 53.2236 27.8507C48.866 24.7493 42.5139 23.1755 36.5303 23.7155ZM41.1047 27.1101C42.4922 28.4062 43.251 30.9521 42.709 32.5413C42.5789 32.9733 42.4055 33.3282 42.3404 33.3282C42.2754 33.3282 41.8418 33.2511 41.3865 33.1431C40.8228 33.0351 40.541 32.8808 40.541 32.711C40.541 32.5567 40.1941 31.9396 39.7389 31.3069C38.785 29.9491 36.9205 28.5759 34.7959 27.6964L33.3217 27.0792L34.2756 26.8786C35.8582 26.5546 37.3107 26.4157 38.915 26.4312C40.4109 26.462 40.4109 26.462 41.1047 27.1101ZM47.717 28.3136C49.6248 29.1931 51.5976 30.5354 51.5976 30.9675C51.5976 31.631 50.7088 33.2819 49.8633 34.2077C48.9961 35.1489 47.8904 35.8896 46.6764 36.337C46.0693 36.5685 46.0693 36.553 45.7225 35.9821C45.3973 35.4421 45.3973 35.3804 45.7658 34.8403C46.3728 33.9763 46.8281 32.4642 46.8281 31.2452C46.8281 30.2577 46.4379 28.5604 46.0693 27.8815C45.8525 27.4958 46.0476 27.5421 47.717 28.3136ZM31.9342 29.7948C33.4734 30.3503 35.1211 31.3224 35.7932 32.063C36.14 32.4487 36.4219 32.8499 36.4219 32.9425C36.4219 33.0351 36.0967 33.2202 35.7281 33.3437C35.056 33.5597 34.926 33.5442 33.6685 33.1276C31.4355 32.4024 27.4465 32.3099 24.9533 32.9425C24.4547 33.0659 24.0644 33.1122 24.0644 33.0505C24.0644 32.6956 25.6037 31.1526 26.9045 30.1806L28.4221 29.0388L29.7228 29.2548C30.4383 29.3782 31.4355 29.6097 31.9342 29.7948ZM54.8279 35.1335C55.0014 35.5501 55.1748 36.6456 55.2398 37.6022L55.3266 39.3149L54.416 39.7933C52.3998 40.8271 48.7576 41.3362 46.5029 40.8888C45.9609 40.7808 45.5273 40.6728 45.5273 40.6573C45.5273 40.3796 46.2861 39.4692 46.568 39.3921C49.6682 38.6515 52.0746 37.2011 53.7873 35.0718C54.0691 34.7015 54.351 34.4083 54.416 34.4083C54.481 34.4083 54.6762 34.7323 54.8279 35.1335ZM31.4139 35.5038C31.8908 35.6272 32.0642 35.7507 31.9992 35.905C31.9125 36.0284 31.8041 36.2907 31.7391 36.4913C31.6523 36.7536 31.2838 36.9233 30.3732 37.1702C27.9017 37.8028 25.4736 39.3458 23.9994 41.1974L23.2623 42.1386L22.8721 41.1665C22.6553 40.6265 22.4385 39.4847 22.3734 38.636L22.265 37.0776L23.3057 36.5685C24.9316 35.7661 26.9045 35.3341 28.9641 35.3341C29.9396 35.3341 31.0236 35.4112 31.4139 35.5038ZM40.0424 35.8124C40.9746 36.0593 42.0369 36.8771 42.2971 37.5251C42.6006 38.3274 42.3621 39.0526 41.5599 39.7315C40.4109 40.7345 38.85 40.9813 37.2891 40.4259C35.7281 39.855 34.9693 38.528 35.533 37.3091C36.1183 36.0438 38.2646 35.3341 40.0424 35.8124ZM31.9775 40.3796C32.3027 40.9351 32.3027 40.9968 31.7824 41.8146C30.7201 43.481 30.5683 45.5794 31.3488 47.7396C31.5223 48.2333 31.6307 48.6653 31.5873 48.6962C31.3922 48.8351 28.2269 47.1995 27.143 46.3972L25.9723 45.564L26.3191 44.6073C26.7961 43.2804 27.6199 42.2003 28.899 41.2282C29.7879 40.5802 31.1103 39.8858 31.5873 39.8087C31.6307 39.8087 31.8041 40.071 31.9775 40.3796ZM45.2889 43.5735C46.8932 43.913 50.4053 43.8821 52.2914 43.5272L53.7223 43.2649L53.332 43.8204C52.7683 44.6073 51.0557 46.1812 50.1668 46.7366C49.2779 47.3075 48.6709 47.3384 46.9365 46.9063C45.3539 46.5206 43.9447 45.8726 42.7957 45.0239C41.9068 44.3604 41.018 43.4038 41.2131 43.3112C41.2564 43.2958 41.6467 43.1569 42.0586 43.0335C42.7523 42.8021 42.8607 42.8175 43.4678 43.0644C43.8146 43.2032 44.6385 43.4347 45.2889 43.5735ZM37.3758 44.1753C38.2213 45.888 40.606 47.8013 42.9908 48.6808C43.6629 48.9431 44.2266 49.1899 44.2266 49.2362C44.2266 49.4214 41.4082 49.838 39.4787 49.946C37.5709 50.0386 37.5275 50.0386 36.9855 49.6065C35.1644 48.2179 34.2756 45.1782 35.1428 43.3884L35.3596 42.9255L36.1834 43.1569C36.8555 43.3421 37.0506 43.4964 37.3758 44.1753Z" fill="white"/>
<path d="M80.3883 23.7617C76.7895 24.1629 73.2123 25.2738 70.4156 26.8322C67.2938 28.5912 64.6488 31.4457 63.4781 34.3311C63.0662 35.3957 62.9795 35.9203 62.9795 38.1113C62.9795 40.2561 63.0445 40.8424 63.4564 41.8916C65.5377 47.3074 71.4129 51.242 79.2393 52.4764C81.3422 52.8004 85.8082 52.7387 88.1063 52.3375C95.4123 51.0414 101.092 47.0451 103.109 41.7219C103.716 40.1172 103.672 36.0438 103.022 34.3311C101.938 31.5383 99.2279 28.6067 96.0844 26.8322C93.9814 25.6596 90.6428 24.4869 88.2363 24.0703C86.1334 23.7154 82.2094 23.5611 80.3883 23.7617ZM85.2879 26.894C86.6971 28.1901 87.5426 30.4119 87.2824 31.9703C87.0656 33.1738 86.8271 33.3744 85.8299 33.1584C85.1578 33.0041 84.9844 32.8807 84.7676 32.3406C84.0521 30.5662 81.8191 28.7764 78.8273 27.542C77.8084 27.11 77.7867 27.0945 78.2854 26.9557C79.2176 26.7088 81.8191 26.4156 83.2934 26.4002C84.6809 26.3848 84.7676 26.4002 85.2879 26.894ZM93.9381 29.2547C95.9326 30.4274 96.1277 30.6897 95.8242 31.6772C95.2389 33.467 93.1143 35.5963 91.2498 36.2752L90.4693 36.5529L90.1008 35.982C89.7322 35.4266 89.7539 35.3803 90.2742 34.5471C91.51 32.6492 91.575 30.5971 90.491 27.9432L90.3393 27.5729L91.4449 28.0049C92.052 28.2363 93.1576 28.7918 93.9381 29.2547ZM76.4209 29.8565C78.0035 30.3965 79.6945 31.4149 80.4316 32.2789C81.0387 32.9887 80.9953 33.0967 80.0414 33.3127C79.3043 33.4979 79.1092 33.4824 78.3504 33.2047C77.8951 33.035 77.093 32.819 76.5727 32.7264C75.1201 32.4486 71.673 32.4949 69.8736 32.8344L68.291 33.1121L68.8764 32.4178C69.6785 31.4149 71.3912 29.9027 72.2367 29.4399C72.8654 29.1004 73.0172 29.0695 73.9061 29.2084C74.4697 29.2856 75.5971 29.5787 76.4209 29.8565ZM99.5098 36.1055C99.6398 36.661 99.7266 37.633 99.6832 38.2656L99.6182 39.4074L98.6859 39.8549C97.1467 40.5955 95.0871 41.043 93.2227 41.043C91.1197 41.043 89.884 40.8115 90.0791 40.4567C90.1658 40.3178 90.2959 40.0401 90.3393 39.8549C90.426 39.6235 90.7078 39.4537 91.2498 39.3303C93.8297 38.744 96.7781 36.9387 98.1006 35.1334L98.751 34.2539L99.0111 34.6705C99.1412 34.9174 99.3797 35.55 99.5098 36.1055ZM75.7271 35.5037C76.6377 35.6735 76.6377 35.6889 76.1391 36.3986C75.8572 36.7844 75.532 36.9695 74.7949 37.1393C72.3451 37.7256 69.852 39.3457 68.3127 41.3516L67.684 42.1848L67.2938 41.259C67.0336 40.6418 66.9035 39.7932 66.9035 38.6514L66.8818 36.9541L67.9441 36.4604C69.982 35.4883 73.4725 35.0563 75.7271 35.5037ZM84.4857 35.8123C85.8299 36.1672 86.7621 37.1393 86.7621 38.1885C86.7621 39.7777 84.7242 40.9658 82.4912 40.6727C81.4723 40.5338 80.1064 39.5926 79.8029 38.8057C79.0658 36.9078 81.8842 35.1026 84.4857 35.8123ZM76.5293 41.259C75.9439 41.9225 75.4236 43.3574 75.2936 44.5918C75.1852 45.7953 75.402 46.9526 76.009 48.4184L76.1607 48.7887L75.2936 48.4801C74.1445 48.0481 71.543 46.5668 70.9143 45.9805C70.459 45.533 70.459 45.4404 70.6541 44.7152C71.1961 42.9717 73.4291 40.7035 75.2502 40.0709L75.9873 39.824L76.3992 40.3795C76.7244 40.8424 76.7461 40.9967 76.5293 41.259ZM89.8406 43.5889C91.4449 43.9283 95.6291 43.8512 97.1033 43.45C97.6236 43.3111 98.1006 43.2186 98.1439 43.2494C98.3174 43.3729 96.041 45.641 94.9787 46.3971C93.6779 47.3383 93.3311 47.3846 91.4016 46.9063C89.9707 46.5668 88.9084 46.1348 87.8027 45.4713C86.9572 44.9621 85.6348 43.7123 85.6348 43.4346C85.6348 43.342 85.96 43.1568 86.3502 43.0334C86.9789 42.8174 87.1307 42.8328 87.8027 43.0643C88.2363 43.2031 89.1469 43.45 89.8406 43.5889ZM80.7785 43.234C81.3422 43.3729 81.5373 43.5426 81.7541 44.0981C82.3395 45.6256 84.941 47.724 87.4992 48.7733C88.6482 49.2361 88.7133 49.2824 88.2363 49.4059C87.4125 49.6219 84.1172 49.9922 82.9898 49.9922C81.7324 49.9922 81.2121 49.6836 80.3449 48.4647C79.1959 46.8754 78.8273 44.3449 79.5645 43.3574C79.8463 43.0026 79.868 42.9871 80.7785 43.234Z" fill="white"/>
</g>
<defs>
<clipPath id="clip0_64_100">
<rect width="111" height="79" fill="white"/>
</clipPath>
</defs>
</svg>
