<svg width="58" height="55" viewBox="0 0 58 55" fill="none" xmlns="http://www.w3.org/2000/svg">
<path d="M26.3379 0.118164C22.8602 0.397461 19.2352 1.35352 16.1426 2.81445C15.293 3.22266 13.3672 4.27539 13.3672 4.33984C13.3672 4.36133 13.6617 4.27539 14.0242 4.15723C14.9078 3.85645 16.5957 3.86719 17.8191 4.17871C20.3566 4.82324 24.1969 6.81055 27.8219 9.36719L28.966 10.1729L29.6344 9.7002C29.9969 9.44238 30.9711 8.79785 31.7754 8.28223C37.4621 4.62988 41.9027 3.26562 44.4289 4.39355L44.916 4.61914L44.6328 4.39355C44.2703 4.10352 43.1035 3.46973 41.8348 2.85742C37.1789 0.644531 31.7527 -0.311523 26.3379 0.118164Z" fill="white"/>
<path d="M45.3691 7.45507C42.1633 8.69043 38.8441 10.7314 35.5137 13.5137L34.2562 14.5557L36.3066 16.6504C40.9852 21.4521 43.466 24.4922 45.9582 28.4668C49.0055 33.333 50.2855 36.3301 50.7613 39.7139C50.9199 40.874 50.8406 44.0215 50.6254 45.1602L50.4895 45.8906L50.0477 44.6016C49.1754 42.002 46.9664 38.3174 44.6781 35.6211C41.2457 31.5928 37.077 27.2314 32.2059 22.5586L29.0113 19.4971L28.1391 20.3027C25.8168 22.4619 18.8387 29.3369 17.6152 30.6689C13.7523 34.9014 10.909 38.6611 9.30039 41.6689C8.5414 43.0869 7.8164 44.8916 7.8164 45.3643C7.8164 45.4932 7.77109 45.665 7.71445 45.7402C7.57851 45.9443 7.49922 45.5684 7.36328 44.2148C7.05742 41.1855 8.04297 36.8135 10.0594 32.3125C11.8719 28.2412 17.298 20.9473 22.2937 15.8447C22.9961 15.1357 23.5625 14.5234 23.5625 14.4912C23.5625 14.4482 23.0074 13.9111 22.3164 13.2881C18.6914 9.958 14.7832 7.74511 11.7586 7.29394C10.5238 7.11132 9.31172 7.4873 8.22422 8.38964C5.95859 10.2803 3.01328 14.7168 1.71054 18.208C-0.974221 25.373 -0.4418 33.2363 3.16054 39.9395C4.66718 42.7217 6.0832 44.5479 8.55273 46.8896C11.1582 49.3604 13.2426 50.7891 16.3578 52.207C19.1672 53.4961 21.6367 54.2266 24.752 54.6992C26.9949 55.043 31.0844 55.043 33.2707 54.6992C39.8184 53.6895 45.2332 51.0361 49.8098 46.6104C55.6324 40.9707 58.6344 32.9785 57.8754 25.1367C57.2863 18.9814 54.5336 13.084 50.2516 8.84082C49.1754 7.7666 48.5977 7.41211 47.6008 7.208C46.7172 7.03613 46.366 7.06836 45.3691 7.45507Z" fill="white"/>
</svg>
