<?xml version="1.0" encoding="UTF-8"?>
<svg xmlns="http://www.w3.org/2000/svg" xmlns:xlink="http://www.w3.org/1999/xlink" width="200px" height="154px" viewBox="0 0 200 154" version="1.1">
<g id="surface1">
<path style=" stroke:none;fill-rule:nonzero;fill:rgb(100%,0%,0%);fill-opacity:1;" d="M 60.117188 21.601562 C 59 22.066406 58.460938 23.144531 58.460938 25.035156 C 58.460938 27.390625 60.347656 28.625 63 27.929688 C 63.691406 27.738281 63.847656 27.429688 63.847656 26 C 63.847656 24.304688 63.847656 24.304688 62.5 24.304688 C 61.769531 24.304688 61.152344 24.457031 61.152344 24.6875 C 61.152344 24.882812 61.617188 25.074219 62.152344 25.074219 C 63 25.074219 63.117188 25.230469 63 26.117188 C 62.921875 26.964844 62.652344 27.234375 61.808594 27.3125 C 60.269531 27.503906 59.230469 26.464844 59.230469 24.6875 C 59.230469 22.414062 61.117188 21.332031 63.117188 22.375 C 63.578125 22.644531 63.847656 22.644531 63.847656 22.414062 C 63.847656 21.410156 61.691406 20.984375 60.117188 21.601562 Z M 60.117188 21.601562 "/>
<path style=" stroke:none;fill-rule:nonzero;fill:rgb(100%,0%,0%);fill-opacity:1;" d="M 66.191406 24.417969 C 64.882812 27.890625 64.847656 28.160156 65.347656 28.160156 C 65.539062 28.160156 65.808594 27.738281 65.921875 27.195312 C 66.152344 26.347656 66.382812 26.234375 67.847656 26.234375 C 69.308594 26.234375 69.578125 26.347656 69.769531 27.195312 C 69.921875 27.738281 70.191406 28.160156 70.421875 28.160156 C 70.652344 28.160156 70.769531 27.890625 70.652344 27.621094 C 70.539062 27.3125 69.960938 25.730469 69.382812 24.148438 C 68.808594 22.527344 68.152344 21.21875 67.882812 21.21875 C 67.617188 21.21875 66.882812 22.644531 66.191406 24.417969 Z M 68.808594 24.960938 C 68.847656 25.269531 68.382812 25.460938 67.652344 25.460938 C 66.382812 25.460938 66.382812 25.34375 67.382812 22.761719 L 67.769531 21.796875 L 68.269531 23.144531 C 68.578125 23.878906 68.808594 24.726562 68.808594 24.960938 Z M 68.808594 24.960938 "/>
<path style=" stroke:none;fill-rule:nonzero;fill:rgb(100%,0%,0%);fill-opacity:1;" d="M 72.308594 24.6875 C 72.308594 26.734375 72.460938 28.160156 72.691406 28.160156 C 72.921875 28.160156 73.078125 26.886719 73.117188 25.152344 L 73.117188 22.183594 L 74.308594 25.191406 C 74.960938 26.851562 75.691406 28.121094 75.882812 28.046875 C 76.078125 28.007812 76.847656 26.542969 77.539062 24.882812 L 78.808594 21.796875 L 78.847656 24.960938 C 78.847656 26.851562 79 28.160156 79.230469 28.160156 C 79.460938 28.160156 79.617188 26.734375 79.617188 24.6875 C 79.617188 20.214844 78.960938 20.058594 77.152344 23.996094 L 75.847656 26.8125 L 75.191406 25.269531 C 74.847656 24.417969 74.308594 23.144531 74 22.453125 C 73.730469 21.796875 73.230469 21.21875 72.921875 21.21875 C 72.421875 21.21875 72.308594 21.796875 72.308594 24.6875 Z M 72.308594 24.6875 "/>
<path style=" stroke:none;fill-rule:nonzero;fill:rgb(100%,0%,0%);fill-opacity:1;" d="M 81.921875 24.6875 L 81.921875 28.160156 L 83.652344 28.160156 C 84.617188 28.160156 85.382812 27.96875 85.382812 27.777344 C 85.382812 27.542969 84.769531 27.390625 84.039062 27.390625 C 82.808594 27.390625 82.691406 27.3125 82.691406 26.234375 C 82.691406 25.191406 82.808594 25.074219 83.847656 25.074219 C 84.5 25.074219 85 24.882812 85 24.6875 C 85 24.457031 84.5 24.304688 83.847656 24.304688 C 82.808594 24.304688 82.691406 24.1875 82.691406 23.144531 C 82.691406 22.066406 82.808594 21.988281 84.039062 21.988281 C 84.769531 21.988281 85.382812 21.796875 85.382812 21.601562 C 85.382812 21.371094 84.617188 21.21875 83.652344 21.21875 L 81.921875 21.21875 Z M 81.921875 24.6875 "/>
<path style=" stroke:none;fill-rule:nonzero;fill:rgb(100%,0%,0%);fill-opacity:1;" d="M 90 24.6875 C 90 26.734375 90.152344 28.160156 90.382812 28.160156 C 90.617188 28.160156 90.769531 26.886719 90.808594 25.152344 L 90.808594 22.183594 L 92 25.191406 C 92.652344 26.851562 93.382812 28.121094 93.578125 28.046875 C 93.769531 28.007812 94.539062 26.542969 95.230469 24.882812 L 96.5 21.796875 L 96.539062 24.960938 C 96.539062 26.851562 96.691406 28.160156 96.921875 28.160156 C 97.152344 28.160156 97.308594 26.734375 97.308594 24.6875 C 97.308594 20.214844 96.652344 20.058594 94.847656 23.996094 L 93.539062 26.8125 L 92.882812 25.269531 C 92.539062 24.417969 92 23.144531 91.691406 22.453125 C 91.421875 21.796875 90.921875 21.21875 90.617188 21.21875 C 90.117188 21.21875 90 21.796875 90 24.6875 Z M 90 24.6875 "/>
<path style=" stroke:none;fill-rule:nonzero;fill:rgb(100%,0%,0%);fill-opacity:1;" d="M 100.039062 24.417969 C 98.730469 27.890625 98.691406 28.160156 99.191406 28.160156 C 99.382812 28.160156 99.652344 27.738281 99.769531 27.195312 C 100 26.347656 100.230469 26.234375 101.691406 26.234375 C 103.152344 26.234375 103.421875 26.347656 103.617188 27.195312 C 103.769531 27.738281 104.039062 28.160156 104.269531 28.160156 C 104.5 28.160156 104.617188 27.890625 104.5 27.621094 C 104.382812 27.3125 103.808594 25.730469 103.230469 24.148438 C 102.652344 22.527344 102 21.21875 101.730469 21.21875 C 101.460938 21.21875 100.730469 22.644531 100.039062 24.417969 Z M 102.652344 24.960938 C 102.691406 25.269531 102.230469 25.460938 101.5 25.460938 C 100.230469 25.460938 100.230469 25.34375 101.230469 22.761719 L 101.617188 21.796875 L 102.117188 23.144531 C 102.421875 23.878906 102.652344 24.726562 102.652344 24.960938 Z M 102.652344 24.960938 "/>
<path style=" stroke:none;fill-rule:nonzero;fill:rgb(100%,0%,0%);fill-opacity:1;" d="M 106.152344 24.6875 C 106.152344 27.042969 106.308594 28.160156 106.578125 28.160156 C 106.921875 28.160156 106.960938 27.273438 106.808594 25.152344 C 106.578125 21.757812 106.691406 21.835938 108.960938 25.925781 C 110.730469 29.125 111.152344 28.894531 111.152344 24.6875 C 111.152344 22.644531 111 21.21875 110.769531 21.21875 C 110.539062 21.21875 110.382812 22.414062 110.382812 23.996094 L 110.347656 26.8125 L 108.769531 23.996094 C 106.578125 20.214844 106.152344 20.332031 106.152344 24.6875 Z M 106.152344 24.6875 "/>
<path style=" stroke:none;fill-rule:nonzero;fill:rgb(100%,0%,0%);fill-opacity:1;" d="M 113.460938 24.6875 C 113.460938 26.734375 113.617188 28.160156 113.847656 28.160156 C 114.078125 28.160156 114.230469 26.734375 114.230469 24.6875 C 114.230469 22.644531 114.078125 21.21875 113.847656 21.21875 C 113.617188 21.21875 113.460938 22.644531 113.460938 24.6875 Z M 113.460938 24.6875 "/>
<path style=" stroke:none;fill-rule:nonzero;fill:rgb(100%,0%,0%);fill-opacity:1;" d="M 116.578125 24.417969 C 115.269531 27.890625 115.230469 28.160156 115.730469 28.160156 C 115.921875 28.160156 116.191406 27.738281 116.308594 27.195312 C 116.539062 26.347656 116.769531 26.234375 118.230469 26.234375 C 119.691406 26.234375 119.960938 26.347656 120.152344 27.195312 C 120.308594 27.738281 120.578125 28.160156 120.808594 28.160156 C 121.039062 28.160156 121.152344 27.890625 121.039062 27.621094 C 120.921875 27.3125 120.347656 25.730469 119.769531 24.148438 C 119.191406 22.527344 118.539062 21.21875 118.269531 21.21875 C 118 21.21875 117.269531 22.644531 116.578125 24.417969 Z M 119.191406 24.960938 C 119.230469 25.269531 118.769531 25.460938 118.039062 25.460938 C 116.769531 25.460938 116.769531 25.34375 117.769531 22.761719 L 118.152344 21.796875 L 118.652344 23.144531 C 118.960938 23.878906 119.191406 24.726562 119.191406 24.960938 Z M 119.191406 24.960938 "/>
<path style=" stroke:none;fill-rule:nonzero;fill:rgb(100%,0%,0%);fill-opacity:1;" d="M 58.308594 36.109375 C 58.191406 36.457031 58.078125 45.714844 58.078125 56.707031 C 58.078125 74.375 58.152344 76.769531 58.691406 77.308594 C 59.152344 77.773438 60.152344 77.925781 63.117188 77.925781 L 66.960938 77.925781 L 66.382812 78.96875 C 65.382812 80.933594 62.730469 89.304688 62.308594 91.929688 C 61.617188 95.785156 61.921875 99.492188 63.039062 101.109375 C 64.347656 103.078125 65.652344 103.886719 67.769531 104.082031 L 69.652344 104.273438 L 73.078125 100.726562 L 76.5 97.214844 L 96.769531 97.214844 L 97.882812 98.292969 C 98.539062 98.875 99.652344 100.03125 100.382812 100.878906 C 102.5 103.269531 103.808594 104.160156 105.269531 104.160156 C 109.230469 104.160156 111.921875 99.953125 111.382812 94.589844 L 111.117188 92.199219 L 133.460938 92.199219 L 134.039062 91.273438 C 134.578125 90.503906 134.617188 88.648438 134.539062 77.734375 C 134.421875 65.773438 134.382812 65.117188 133.691406 64.578125 C 133.117188 64.152344 131.421875 64.039062 126.460938 64.039062 L 120 64.039062 L 120 50.226562 C 120 40.003906 119.882812 36.300781 119.539062 35.953125 C 119.191406 35.605469 111.847656 35.492188 88.808594 35.492188 C 61.578125 35.492188 58.539062 35.566406 58.308594 36.109375 Z M 115.769531 51.695312 L 115.769531 64.039062 L 102.039062 64.039062 C 85.808594 64.039062 86.921875 63.730469 86.921875 68.359375 L 86.921875 71.40625 L 83 71.214844 C 80.808594 71.097656 78.152344 70.90625 77.039062 70.789062 C 74.652344 70.480469 71.730469 71.289062 70.191406 72.71875 C 69.269531 73.605469 68.882812 73.683594 65.730469 73.683594 L 62.308594 73.683594 L 62.308594 39.347656 L 115.769531 39.347656 Z M 130.308594 78.195312 L 130.191406 88.148438 L 120.078125 88.265625 C 112.191406 88.339844 109.960938 88.265625 109.847656 87.878906 C 109.769531 87.609375 108.960938 85.21875 108.039062 82.554688 C 104.921875 73.683594 102.578125 71.058594 97.382812 70.671875 C 95.617188 70.558594 94.617188 70.636719 94.460938 70.945312 C 94.308594 71.175781 93.5 71.367188 92.652344 71.367188 C 91.152344 71.367188 91.152344 71.367188 91.152344 69.824219 L 91.152344 68.28125 L 130.382812 68.28125 Z M 77.152344 74.839844 C 77.5 75.1875 92.152344 75.148438 97.230469 74.800781 C 99.960938 74.609375 101.960938 77.539062 104.769531 86.027344 C 106.652344 91.660156 107.578125 96.171875 107.152344 97.753906 C 107 98.332031 106.539062 99.144531 106.117188 99.566406 L 105.308594 100.378906 L 102.578125 97.367188 C 98.5 92.933594 98.691406 92.972656 86.578125 92.972656 C 74.539062 92.972656 74.578125 92.972656 70.539062 97.332031 C 68.460938 99.605469 67.921875 99.992188 67.382812 99.683594 C 66.460938 99.105469 65.769531 97.640625 65.769531 96.25 C 65.769531 93.203125 69.421875 81.398438 71.617188 77.464844 C 72.808594 75.300781 76.078125 73.757812 77.152344 74.839844 Z M 77.152344 74.839844 "/>
<path style=" stroke:none;fill-rule:nonzero;fill:rgb(100%,0%,0%);fill-opacity:1;" d="M 109.117188 53.929688 C 108.269531 54.855469 108.269531 57.789062 109.078125 58.945312 C 109.730469 59.871094 111.460938 60.101562 112.230469 59.332031 C 112.847656 58.714844 112.847656 54.316406 112.230469 53.699219 C 111.539062 53.003906 109.808594 53.160156 109.117188 53.929688 Z M 109.117188 53.929688 "/>
<path style=" stroke:none;fill-rule:nonzero;fill:rgb(100%,0%,0%);fill-opacity:1;" d="M 123.539062 75.300781 C 122.921875 75.917969 122.921875 80.316406 123.539062 80.933594 C 124.308594 81.707031 126.039062 81.476562 126.691406 80.550781 C 127.5 79.390625 127.5 76.226562 126.691406 75.457031 C 126 74.722656 124.191406 74.648438 123.539062 75.300781 Z M 123.539062 75.300781 "/>
<path style=" stroke:none;fill-rule:nonzero;fill:rgb(100%,0%,0%);fill-opacity:1;" d="M 85.078125 79.160156 C 84.808594 79.429688 84.617188 80.085938 84.617188 80.625 C 84.617188 81.167969 84.808594 81.820312 85.078125 82.09375 C 85.347656 82.363281 86 82.554688 86.539062 82.554688 C 87.078125 82.554688 87.730469 82.363281 88 82.09375 C 88.269531 81.820312 88.460938 81.167969 88.460938 80.625 C 88.460938 80.085938 88.269531 79.429688 88 79.160156 C 87.730469 78.890625 87.078125 78.699219 86.539062 78.699219 C 86 78.699219 85.347656 78.890625 85.078125 79.160156 Z M 85.078125 79.160156 "/>
<path style=" stroke:none;fill-rule:nonzero;fill:rgb(100%,0%,0%);fill-opacity:1;" d="M 141.960938 37.960938 C 141.308594 38.65625 141.117188 39.234375 141.230469 40.542969 C 141.347656 42.242188 141.347656 42.242188 143 42.359375 L 144.617188 42.472656 L 144.578125 41.007812 C 144.5 39.8125 144.460938 39.734375 144.347656 40.621094 C 144.191406 41.585938 144.039062 41.703125 142.960938 41.585938 C 141.960938 41.507812 141.691406 41.277344 141.617188 40.429688 C 141.460938 39 142.730469 37.804688 144.421875 37.804688 C 146.691406 37.804688 147.960938 39.734375 146.921875 41.703125 C 146.652344 42.203125 146.652344 42.433594 146.882812 42.433594 C 147.382812 42.433594 147.882812 40.621094 147.730469 39.542969 C 147.382812 37.109375 143.691406 36.109375 141.960938 37.960938 Z M 141.960938 37.960938 "/>
<path style=" stroke:none;fill-rule:nonzero;fill:rgb(100%,0%,0%);fill-opacity:1;" d="M 48.578125 39.039062 C 46.808594 39.695312 45.382812 40.429688 45.382812 40.699219 C 45.382812 41.125 50.921875 43.59375 51.882812 43.59375 C 52.691406 43.59375 52.269531 42.898438 51.347656 42.667969 C 50.5 42.433594 50.382812 42.203125 50.382812 40.738281 C 50.382812 39.273438 50.5 39 51.347656 38.808594 C 51.882812 38.65625 52.308594 38.382812 52.308594 38.191406 C 52.308594 37.691406 52.308594 37.691406 48.578125 39.039062 Z M 49.617188 40.929688 C 49.617188 42.203125 49.5 42.203125 46.921875 41.199219 L 45.960938 40.816406 L 47.308594 40.3125 C 49.347656 39.542969 49.617188 39.617188 49.617188 40.929688 Z M 49.617188 40.929688 "/>
<path style=" stroke:none;fill-rule:nonzero;fill:rgb(100%,0%,0%);fill-opacity:1;" d="M 140.769531 43.785156 C 140.769531 43.863281 141.308594 44.210938 141.921875 44.554688 C 142.882812 45.058594 143.078125 45.40625 143.078125 46.523438 C 143.078125 47.679688 142.921875 47.953125 141.921875 48.261719 C 141.308594 48.492188 140.769531 48.839844 140.769531 49.03125 C 140.769531 49.496094 140.730469 49.53125 144.421875 48.183594 C 146.808594 47.335938 147.691406 46.792969 147.617188 46.410156 C 147.460938 45.597656 140.769531 43.050781 140.769531 43.785156 Z M 146.152344 46.023438 L 147.117188 46.371094 L 145.960938 46.910156 C 144.039062 47.757812 143.460938 47.605469 143.460938 46.253906 C 143.460938 44.980469 143.578125 44.980469 146.152344 46.023438 Z M 146.152344 46.023438 "/>
<path style=" stroke:none;fill-rule:nonzero;fill:rgb(100%,0%,0%);fill-opacity:1;" d="M 45.382812 45.136719 C 45.382812 45.367188 46.808594 45.519531 48.960938 45.484375 C 51.882812 45.445312 52.230469 45.367188 50.960938 45.097656 C 48.808594 44.671875 45.382812 44.671875 45.382812 45.136719 Z M 45.382812 45.136719 "/>
<path style=" stroke:none;fill-rule:nonzero;fill:rgb(100%,0%,0%);fill-opacity:1;" d="M 45.382812 48.222656 C 45.382812 48.453125 46.578125 48.605469 48.191406 48.605469 L 50.960938 48.644531 L 48.191406 50.226562 C 44.382812 52.425781 44.5 52.851562 48.960938 52.8125 C 51.769531 52.8125 52.308594 52.734375 51.539062 52.425781 C 51 52.195312 49.652344 52.117188 48.578125 52.234375 C 46.308594 52.503906 45.921875 52.039062 47.691406 51.308594 C 49.691406 50.496094 52.347656 48.605469 52.117188 48.222656 C 51.808594 47.71875 45.382812 47.71875 45.382812 48.222656 Z M 45.382812 48.222656 "/>
<path style=" stroke:none;fill-rule:nonzero;fill:rgb(100%,0%,0%);fill-opacity:1;" d="M 141 51.269531 C 141.191406 51.5 142.578125 51.695312 144.039062 51.769531 L 146.730469 51.886719 L 143.730469 53.003906 C 142.078125 53.621094 140.808594 54.277344 140.882812 54.507812 C 140.921875 54.703125 142.382812 55.433594 144.039062 56.089844 L 147.117188 57.285156 L 143.960938 57.402344 C 139.652344 57.558594 139.882812 58.25 144.230469 58.25 C 148.691406 58.25 148.882812 57.59375 144.921875 55.78125 C 141.808594 54.355469 141.808594 54.394531 145.691406 53.003906 C 147.117188 52.503906 147.691406 52.117188 147.691406 51.617188 C 147.691406 51 147.308594 50.921875 144.152344 50.921875 C 141.921875 50.921875 140.769531 51.074219 141 51.269531 Z M 141 51.269531 "/>
<path style=" stroke:none;fill-rule:nonzero;fill:rgb(100%,0%,0%);fill-opacity:1;" d="M 48.539062 55.628906 C 46.347656 56.476562 45.382812 57.015625 45.460938 57.402344 C 45.578125 57.867188 48 58.984375 51.078125 59.949219 C 52.230469 60.335938 52.152344 59.640625 50.960938 59.101562 C 50.191406 58.753906 50 58.367188 50 57.285156 C 50 56.167969 50.191406 55.859375 50.960938 55.550781 C 51.5 55.359375 51.921875 55.011719 51.921875 54.78125 C 51.921875 54.585938 51.882812 54.394531 51.847656 54.433594 C 51.769531 54.433594 50.308594 55.011719 48.539062 55.628906 Z M 49.617188 57.519531 C 49.617188 58.792969 49.5 58.792969 46.921875 57.789062 L 45.960938 57.402344 L 47.308594 56.902344 C 49.347656 56.128906 49.617188 56.207031 49.617188 57.519531 Z M 49.617188 57.519531 "/>
<path style=" stroke:none;fill-rule:nonzero;fill:rgb(100%,0%,0%);fill-opacity:1;" d="M 140.769531 62.300781 C 140.769531 63.265625 140.960938 64.039062 141.152344 64.039062 C 141.382812 64.039062 141.539062 63.421875 141.539062 62.6875 C 141.539062 61.453125 141.617188 61.335938 142.691406 61.335938 C 143.730469 61.335938 143.847656 61.453125 143.847656 62.496094 C 143.847656 63.113281 144.039062 63.652344 144.230469 63.652344 C 144.460938 63.652344 144.617188 63.113281 144.617188 62.496094 C 144.617188 61.453125 144.730469 61.335938 145.769531 61.335938 C 146.847656 61.335938 146.921875 61.453125 146.921875 62.6875 C 146.921875 63.421875 147.117188 64.039062 147.308594 64.039062 C 147.539062 64.039062 147.691406 63.265625 147.691406 62.300781 L 147.691406 60.566406 L 140.769531 60.566406 Z M 140.769531 62.300781 "/>
<path style=" stroke:none;fill-rule:nonzero;fill:rgb(100%,0%,0%);fill-opacity:1;" d="M 45.382812 62.339844 C 45.382812 62.6875 46.460938 63.421875 48.191406 64.230469 C 50.460938 65.273438 50.808594 65.582031 50.191406 65.8125 C 47.308594 66.894531 45.382812 67.933594 45.382812 68.4375 C 45.382812 68.9375 45.960938 69.054688 48.652344 69.054688 C 52.652344 69.054688 53.039062 68.359375 49.152344 68.203125 L 46.347656 68.089844 L 49.152344 66.96875 C 50.730469 66.351562 51.882812 65.695312 51.808594 65.425781 C 51.730469 65.195312 50.382812 64.460938 48.847656 63.84375 L 46.039062 62.6875 L 48.960938 62.570312 C 53 62.417969 52.730469 61.722656 48.652344 61.722656 C 45.960938 61.722656 45.382812 61.839844 45.382812 62.339844 Z M 45.382812 62.339844 "/>
<path style=" stroke:none;fill-rule:nonzero;fill:rgb(100%,0%,0%);fill-opacity:1;" d="M 140.769531 69.054688 C 140.769531 69.285156 142.039062 69.4375 143.769531 69.476562 L 146.730469 69.476562 L 143.730469 70.671875 C 142.078125 71.328125 140.808594 72.0625 140.882812 72.253906 C 140.921875 72.449219 142.382812 73.21875 144.039062 73.914062 L 147.117188 75.1875 L 143.960938 75.226562 C 142.078125 75.226562 140.769531 75.378906 140.769531 75.609375 C 140.769531 75.84375 142.191406 75.996094 144.230469 75.996094 C 148.691406 75.996094 148.847656 75.339844 144.921875 73.527344 L 142.117188 72.214844 L 143.578125 71.597656 C 144.347656 71.253906 145.617188 70.710938 146.347656 70.441406 C 147.078125 70.132812 147.691406 69.59375 147.691406 69.285156 C 147.691406 68.78125 147.117188 68.667969 144.230469 68.667969 C 142.191406 68.667969 140.769531 68.820312 140.769531 69.054688 Z M 140.769531 69.054688 "/>
<path style=" stroke:none;fill-rule:nonzero;fill:rgb(100%,0%,0%);fill-opacity:1;" d="M 45.460938 75.300781 L 45.382812 77.15625 L 51.921875 77.15625 L 51.847656 75.300781 C 51.808594 73.644531 51.769531 73.605469 51.652344 74.917969 C 51.5 76.304688 51.421875 76.382812 50.191406 76.382812 C 49 76.382812 48.882812 76.265625 48.730469 75.109375 L 48.578125 73.875 L 48.539062 75.109375 C 48.460938 76.304688 48.347656 76.382812 47.152344 76.382812 C 45.882812 76.382812 45.808594 76.304688 45.652344 74.917969 C 45.539062 73.605469 45.5 73.644531 45.460938 75.300781 Z M 45.460938 75.300781 "/>
<path style=" stroke:none;fill-rule:nonzero;fill:rgb(100%,0%,0%);fill-opacity:1;" d="M 140.769531 77.886719 C 140.769531 78.082031 141.191406 78.351562 141.730469 78.464844 C 142.539062 78.660156 142.691406 78.929688 142.691406 80.242188 C 142.691406 81.550781 142.539062 81.859375 141.730469 82.167969 C 141.191406 82.363281 140.769531 82.746094 140.769531 82.980469 C 140.769531 83.25 141.039062 83.289062 141.460938 83.132812 C 141.808594 82.980469 143.382812 82.402344 144.921875 81.859375 C 146.421875 81.320312 147.691406 80.703125 147.691406 80.433594 C 147.691406 80.164062 146.269531 79.429688 144.5 78.734375 C 141.039062 77.425781 140.769531 77.386719 140.769531 77.886719 Z M 146.039062 79.894531 L 147.117188 80.316406 L 145.769531 80.820312 C 143.539062 81.667969 143.078125 81.550781 143.078125 80.203125 C 143.078125 79.121094 143.152344 79.007812 144.039062 79.238281 C 144.539062 79.351562 145.460938 79.660156 146.039062 79.894531 Z M 146.039062 79.894531 "/>
<path style=" stroke:none;fill-rule:nonzero;fill:rgb(100%,0%,0%);fill-opacity:1;" d="M 45.382812 80.164062 C 45.382812 80.664062 46.078125 81.167969 47.808594 81.859375 C 49.117188 82.402344 50.152344 83.019531 50.152344 83.171875 C 50.117188 83.363281 49 83.984375 47.652344 84.523438 C 46.191406 85.101562 45.152344 85.796875 45.078125 86.144531 C 44.960938 86.722656 45.382812 86.796875 48.421875 86.796875 C 50.5 86.796875 51.921875 86.644531 51.921875 86.414062 C 51.921875 86.179688 50.652344 86.027344 48.960938 85.988281 L 45.960938 85.988281 L 48.960938 84.792969 C 50.617188 84.136719 51.882812 83.402344 51.808594 83.171875 C 51.730469 82.980469 50.421875 82.246094 48.847656 81.589844 L 46.039062 80.433594 L 48.960938 80.316406 C 53 80.164062 52.730469 79.46875 48.652344 79.46875 C 45.730469 79.46875 45.382812 79.546875 45.382812 80.164062 Z M 45.382812 80.164062 "/>
<path style=" stroke:none;fill-rule:nonzero;fill:rgb(100%,0%,0%);fill-opacity:1;" d="M 141.921875 85.292969 C 142.652344 85.488281 143.921875 85.527344 144.730469 85.410156 C 145.5 85.292969 146.152344 85.332031 146.152344 85.527344 C 146.152344 85.71875 144.960938 86.527344 143.460938 87.339844 C 139.730469 89.34375 139.882812 89.886719 144.230469 89.886719 C 146.269531 89.886719 147.691406 89.730469 147.691406 89.5 C 147.691406 89.265625 146.421875 89.113281 144.730469 89.113281 L 141.730469 89.113281 L 144.152344 87.800781 C 148.808594 85.292969 148.808594 84.871094 144.152344 84.910156 C 141.269531 84.945312 140.847656 85.023438 141.921875 85.292969 Z M 141.921875 85.292969 "/>
<path style=" stroke:none;fill-rule:nonzero;fill:rgb(100%,0%,0%);fill-opacity:1;" d="M 48.191406 89.574219 C 46.421875 90.230469 45 90.964844 45 91.234375 C 45 91.621094 50.769531 94.128906 51.652344 94.128906 C 52.347656 94.128906 51.808594 93.394531 50.960938 93.203125 C 50.117188 92.972656 50 92.738281 50 91.273438 C 50 89.808594 50.117188 89.539062 50.847656 89.421875 C 51.308594 89.34375 51.730469 89.074219 51.847656 88.804688 C 52.039062 88.1875 51.847656 88.226562 48.191406 89.574219 Z M 49.617188 91.195312 C 49.617188 92.46875 49.230469 92.625 47.578125 92.121094 C 45.882812 91.582031 45.808594 91.234375 47.230469 90.734375 C 49.039062 90.039062 49.617188 90.195312 49.617188 91.195312 Z M 49.617188 91.195312 "/>
<path style=" stroke:none;fill-rule:nonzero;fill:rgb(100%,0%,0%);fill-opacity:1;" d="M 142.691406 92.585938 C 145.769531 93.007812 147.308594 93.007812 147.308594 92.585938 C 147.308594 92.355469 145.960938 92.238281 143.960938 92.238281 C 140.691406 92.316406 140.652344 92.316406 142.691406 92.585938 Z M 142.691406 92.585938 "/>
<path style=" stroke:none;fill-rule:nonzero;fill:rgb(100%,0%,0%);fill-opacity:1;" d="M 140.769531 94.4375 C 140.769531 94.628906 141.191406 94.976562 141.730469 95.207031 C 142.421875 95.515625 142.691406 95.941406 142.691406 96.714844 C 142.691406 98.023438 142.382812 98.488281 141.191406 98.988281 C 140.652344 99.21875 140.382812 99.492188 140.617188 99.605469 C 140.808594 99.722656 142.382812 99.296875 144.152344 98.640625 C 147.960938 97.253906 148.078125 96.714844 144.808594 95.476562 C 141.382812 94.207031 140.769531 94.050781 140.769531 94.4375 Z M 145.769531 96.558594 L 146.730469 96.90625 L 145.578125 97.445312 C 143.652344 98.292969 143.078125 98.140625 143.078125 96.789062 C 143.078125 95.515625 143.191406 95.515625 145.769531 96.558594 Z M 145.769531 96.558594 "/>
<path style=" stroke:none;fill-rule:nonzero;fill:rgb(100%,0%,0%);fill-opacity:1;" d="M 45.347656 96.210938 C 44.347656 98.410156 46 100.6875 48.617188 100.6875 C 51.191406 100.6875 52.421875 98.875 51.691406 96.132812 C 51.5 95.441406 51.191406 95.285156 49.769531 95.285156 C 48.078125 95.285156 48.078125 95.285156 48.078125 96.636719 C 48.078125 97.367188 48.269531 97.984375 48.460938 97.984375 C 48.691406 97.984375 48.847656 97.523438 48.847656 96.984375 C 48.847656 96.132812 49 96.019531 49.921875 96.132812 C 50.730469 96.210938 51 96.480469 51.078125 97.332031 C 51.269531 98.875 50.230469 99.914062 48.460938 99.914062 C 46.191406 99.914062 45.117188 98.023438 46.152344 96.019531 C 46.460938 95.515625 46.421875 95.285156 46.152344 95.285156 C 45.921875 95.285156 45.578125 95.710938 45.347656 96.210938 Z M 45.347656 96.210938 "/>
</g>
</svg>
