<?xml version="1.0" encoding="UTF-8"?>
<svg xmlns="http://www.w3.org/2000/svg" xmlns:xlink="http://www.w3.org/1999/xlink" width="50px" height="50px" viewBox="0 0 50 50" version="1.1">
<g id="surface1">
<path style=" stroke:none;fill-rule:nonzero;fill:rgb(100%,100%,100%);fill-opacity:1;" d="M 13.945312 5.226562 C 12.363281 5.539062 10.488281 6.5625 9.109375 7.851562 C 6.492188 10.3125 5.617188 13.78125 6.59375 17.84375 C 7.585938 22.023438 10.03125 25.390625 13.523438 27.414062 C 15.109375 28.328125 16.414062 28.710938 17.988281 28.710938 C 19.757812 28.710938 21.453125 28.242188 22.96875 27.335938 C 23.398438 27.070312 23.796875 26.855469 23.847656 26.855469 C 23.886719 26.855469 24.453125 27.390625 25.085938 28.039062 L 26.25 29.226562 L 26.257812 29.796875 C 26.257812 30.148438 26.335938 30.539062 26.453125 30.8125 C 26.6875 31.335938 29.5 34.265625 35.664062 40.390625 C 39.257812 43.976562 39.960938 44.628906 40.359375 44.773438 C 41.484375 45.195312 42.910156 44.445312 43.523438 43.09375 C 43.847656 42.382812 43.820312 41.445312 43.457031 40.90625 C 43.320312 40.710938 41.515625 38.625 39.445312 36.269531 C 37.375 33.914062 34.6875 30.859375 33.484375 29.492188 C 30.976562 26.648438 30.703125 26.425781 29.71875 26.40625 L 29.09375 26.398438 L 27.832031 25.117188 L 26.582031 23.828125 L 26.90625 23.027344 C 28.171875 19.921875 27.96875 16.464844 26.320312 12.929688 C 25.476562 11.125 23.886719 8.984375 22.53125 7.832031 C 20.03125 5.703125 16.671875 4.6875 13.945312 5.226562 Z M 17.304688 6.777344 C 19.082031 7.117188 20.578125 7.96875 22.128906 9.511719 C 23.640625 11.035156 24.773438 12.882812 25.5 15.03125 C 25.890625 16.164062 26.074219 17.414062 26.0625 18.703125 L 26.046875 19.773438 L 25.96875 19.003906 C 25.65625 16.007812 24.746094 13.640625 23.171875 11.671875 C 21.945312 10.148438 21.269531 9.453125 20.320312 8.730469 C 18.9375 7.695312 17.539062 7.050781 16.132812 6.796875 L 15.382812 6.660156 L 15.984375 6.648438 C 16.320312 6.640625 16.914062 6.699219 17.304688 6.777344 Z M 16.777344 7.324219 C 18.390625 7.773438 19.6875 8.5625 21.101562 9.941406 C 23.195312 11.953125 24.460938 14.238281 25.070312 17.089844 C 25.332031 18.320312 25.304688 20.761719 25.019531 21.828125 C 24.53125 23.632812 23.664062 24.835938 22.382812 25.460938 C 21.671875 25.820312 21.601562 25.828125 20.65625 25.820312 C 17.03125 25.789062 13.359375 23.09375 11.328125 18.964844 C 10.371094 17.023438 9.921875 15.117188 9.929688 13.039062 C 9.929688 11.84375 9.96875 11.554688 10.195312 10.789062 C 10.8125 8.742188 11.796875 7.65625 13.476562 7.195312 C 14.296875 6.984375 15.773438 7.03125 16.777344 7.324219 Z M 27.5 25.605469 C 29.03125 27.15625 29.199219 27.382812 29.199219 27.78125 C 29.199219 28.242188 29.121094 28.40625 28.796875 28.5625 C 28.46875 28.742188 28 28.75 27.703125 28.601562 C 26.796875 28.125 25.585938 26.414062 25.585938 25.617188 C 25.585938 25.34375 26.101562 24.445312 26.269531 24.421875 C 26.296875 24.414062 26.855469 24.953125 27.5 25.605469 Z M 32.257812 30.578125 C 32.480469 30.695312 32.898438 30.984375 33.195312 31.230469 C 33.796875 31.75 38.835938 37.21875 39.914062 38.523438 C 41.308594 40.234375 40.828125 41.242188 39.148438 40.117188 C 37.851562 39.25 31.984375 33.183594 31.308594 32.011719 C 30.957031 31.40625 30.90625 30.722656 31.191406 30.507812 C 31.464844 30.3125 31.777344 30.332031 32.257812 30.578125 Z M 32.257812 30.578125 "/>
<path style=" stroke:none;fill-rule:nonzero;fill:rgb(100%,100%,100%);fill-opacity:1;" d="M 23.640625 14.550781 C 23.859375 15.097656 24.148438 16.035156 24.296875 16.640625 C 24.523438 17.597656 24.550781 17.9375 24.5625 19.5 C 24.5625 21.308594 24.609375 21.492188 24.796875 20.46875 C 25.109375 18.796875 24.65625 16.21875 23.757812 14.40625 C 23.25 13.378906 23.203125 13.429688 23.640625 14.550781 Z M 23.640625 14.550781 "/>
<path style=" stroke:none;fill-rule:nonzero;fill:rgb(100%,100%,100%);fill-opacity:1;" d="M 24.328125 21.816406 C 24.199219 22.140625 24.238281 22.234375 24.40625 22.03125 C 24.472656 21.953125 24.511719 21.804688 24.484375 21.710938 C 24.453125 21.570312 24.421875 21.59375 24.328125 21.816406 Z M 24.328125 21.816406 "/>
</g>
</svg>
