<svg width="49" height="36" viewBox="0 0 49 36" fill="none" xmlns="http://www.w3.org/2000/svg">
<path d="M17.1525 0.0544548C15.4343 0.243465 13.3745 0.761185 11.5961 1.45148C9.53626 2.2486 7.73769 3.28404 6.17023 4.57423C-0.933609 10.3842 -1.51638 19.3498 4.79367 25.7268C6.542 27.4936 8.69224 28.8989 11.2745 29.959C13.8468 31.019 16.208 31.5039 19.1621 31.5779C24.1659 31.7093 28.808 30.3123 32.6564 27.5101L33.3899 26.9759L33.7114 27.2224C33.8923 27.3539 35.2085 28.3318 36.6353 29.3919C38.0722 30.452 40.6042 32.3257 42.2621 33.5583C44.955 35.547 45.3468 35.81 45.8191 35.9251C46.8038 36.1634 47.8186 35.8182 48.2406 35.1033C48.5018 34.6677 48.5219 33.9446 48.2808 33.5337C48.12 33.2461 46.3617 31.923 38.3937 26.0226L36.0224 24.2723L36.4243 23.7217C38.2028 21.3385 39.2176 18.0678 39.077 15.208C38.866 11.1485 36.8061 7.35184 33.2693 4.50849C30.5664 2.339 27.4516 0.958412 23.6334 0.243465C22.5985 0.0544548 22.2267 0.0298004 20.1669 0.00514984C18.9009 -0.0112877 17.5444 0.0133667 17.1525 0.0544548ZM22.6085 2.96355C24.4372 3.21008 26.9994 4.04008 28.5066 4.86186C31.4808 6.48076 33.6813 8.84748 34.8167 11.6333C35.3191 12.866 35.4999 13.7124 35.5602 15.1752C35.6707 17.7638 35.1784 19.6703 33.8119 21.848C33.3095 22.6451 33.0683 22.9492 32.0133 24.075C31.5109 24.6174 30.0741 25.7268 29.21 26.261C26.8688 27.6826 23.9348 28.5619 20.9506 28.7099C18.0367 28.866 15.6755 28.5373 13.264 27.658C8.60181 25.9487 5.31616 22.6369 4.22094 18.5116C4.01998 17.7802 3.99989 17.4351 3.99989 15.7422C3.98984 13.9096 4.00994 13.7617 4.28123 12.8249C5.44678 8.7653 8.69224 5.53572 13.3143 3.85107C14.8013 3.3087 16.4793 2.95533 18.2578 2.80741C19.0616 2.74167 21.6942 2.83207 22.6085 2.96355Z" fill="white"/>
</svg>
