<?xml version="1.0" standalone="no"?>
<!DOCTYPE svg PUBLIC "-//W3C//DTD SVG 20010904//EN"
 "http://www.w3.org/TR/2001/REC-SVG-20010904/DTD/svg10.dtd">
<svg version="1.0" xmlns="http://www.w3.org/2000/svg"
 width="512.000000pt" height="512.000000pt" viewBox="0 0 512.000000 512.000000"
 preserveAspectRatio="xMidYMid meet">

<g transform="translate(0.000000,512.000000) scale(0.100000,-0.100000)"
fill="#ffffff" stroke="none">
<path d="M1428 4585 c-162 -32 -354 -137 -495 -269 -268 -252 -358 -607 -258
-1023 102 -428 352 -773 710 -980 162 -94 296 -133 457 -133 181 0 355 48 510
141 44 27 85 49 90 49 4 0 62 -55 127 -121 l119 -122 1 -58 c0 -36 8 -76 20
-104 24 -54 312 -354 943 -981 368 -367 440 -434 481 -449 115 -43 261 34 324
172 33 73 30 169 -7 224 -14 20 -199 234 -411 475 -212 241 -487 554 -610 694
-257 291 -285 314 -386 316 l-64 1 -129 131 -128 132 33 82 c130 318 109 672
-60 1034 -86 185 -249 404 -388 522 -256 218 -600 322 -879 267z m344 -159
c182 -35 335 -122 494 -280 155 -156 271 -345 345 -565 40 -116 59 -244 58
-376 l-2 -110 -8 79 c-32 307 -125 549 -286 751 -126 156 -195 227 -292 301
-142 106 -285 172 -429 198 l-77 14 62 1 c34 1 95 -5 135 -13z m-54 -56 c165
-46 298 -127 443 -268 214 -206 344 -440 406 -732 27 -126 24 -376 -5 -485
-50 -185 -139 -308 -270 -372 -73 -37 -80 -38 -177 -37 -371 3 -747 279 -955
702 -98 199 -144 394 -143 607 0 122 4 152 27 230 63 210 164 321 336 368 84
22 235 17 338 -13z m1098 -1872 c157 -159 174 -182 174 -223 0 -47 -8 -64 -41
-80 -34 -18 -82 -19 -112 -4 -93 49 -217 224 -217 306 0 28 53 120 70 122 3 1
60 -54 126 -121z m487 -509 c23 -12 66 -42 96 -67 62 -53 578 -613 688 -747
143 -175 94 -278 -78 -163 -133 89 -734 710 -803 830 -36 62 -41 132 -12 154
28 20 60 18 109 -7z"/>
<path d="M2421 3630 c22 -56 52 -152 67 -214 23 -98 26 -133 27 -293 0 -185 5
-204 24 -99 32 171 -14 435 -106 621 -52 105 -57 100 -12 -15z"/>
<path d="M2491 2886 c-13 -33 -9 -43 8 -22 7 8 11 23 8 33 -3 14 -6 12 -16
-11z"/>
</g>
</svg>
