<?xml version="1.0" encoding="UTF-8"?>
<svg xmlns="http://www.w3.org/2000/svg" xmlns:xlink="http://www.w3.org/1999/xlink" width="32px" height="32px" viewBox="0 0 32 32" version="1.1">
<g id="surface1">
<path style=" stroke:none;fill-rule:nonzero;fill:rgb(100%,100%,100%);fill-opacity:1;" d="M 8.605469 8.96875 C 8.078125 9.085938 7.648438 9.519531 7.535156 10.050781 C 7.492188 10.269531 7.492188 10.382812 7.535156 10.609375 C 7.644531 11.113281 8.011719 11.519531 8.5 11.664062 L 8.6875 11.722656 L 16.046875 11.714844 L 23.402344 11.707031 L 23.558594 11.648438 C 24.078125 11.453125 24.433594 10.988281 24.480469 10.433594 C 24.539062 9.757812 24.050781 9.113281 23.371094 8.96875 C 23.121094 8.917969 8.851562 8.917969 8.605469 8.96875 Z M 8.605469 8.96875 "/>
<path style=" stroke:none;fill-rule:nonzero;fill:rgb(100%,100%,100%);fill-opacity:1;" d="M 8.703125 14.617188 C 8.390625 14.660156 8.050781 14.84375 7.855469 15.070312 C 7.699219 15.253906 7.554688 15.5625 7.519531 15.796875 C 7.421875 16.484375 7.847656 17.132812 8.535156 17.34375 C 8.683594 17.386719 8.976562 17.390625 15.996094 17.390625 C 23.015625 17.390625 23.304688 17.386719 23.453125 17.34375 C 24.144531 17.132812 24.574219 16.476562 24.472656 15.796875 C 24.390625 15.261719 24.011719 14.832031 23.46875 14.644531 C 23.332031 14.601562 23.050781 14.601562 16.085938 14.597656 C 12.101562 14.59375 8.777344 14.601562 8.703125 14.617188 Z M 8.703125 14.617188 "/>
<path style=" stroke:none;fill-rule:nonzero;fill:rgb(100%,100%,100%);fill-opacity:1;" d="M 8.546875 20.304688 C 8.019531 20.453125 7.648438 20.851562 7.535156 21.386719 C 7.492188 21.605469 7.492188 21.71875 7.535156 21.941406 C 7.636719 22.417969 7.980469 22.804688 8.457031 22.980469 L 8.636719 23.046875 L 23.351562 23.046875 L 23.535156 22.980469 C 24.394531 22.664062 24.738281 21.710938 24.277344 20.921875 C 24.171875 20.746094 23.933594 20.523438 23.746094 20.425781 C 23.410156 20.257812 24.035156 20.269531 15.980469 20.269531 C 10.15625 20.273438 8.640625 20.277344 8.546875 20.304688 Z M 8.546875 20.304688 "/>
</g>
</svg>
