<?xml version="1.0" encoding="UTF-8"?>
<svg xmlns="http://www.w3.org/2000/svg" xmlns:xlink="http://www.w3.org/1999/xlink" width="50px" height="50px" viewBox="0 0 50 50" version="1.1">
<g id="surface1">
<path style=" stroke:none;fill-rule:nonzero;fill:rgb(100%,100%,100%);fill-opacity:1;" d="M 26.316406 0.0898438 C 25.78125 0.226562 25.210938 0.578125 24.871094 0.992188 C 24.257812 1.757812 24.21875 1.929688 24.21875 4.304688 C 24.21875 5.492188 24.195312 6.445312 24.167969 6.445312 C 24.144531 6.445312 23.300781 5.980469 22.304688 5.402344 C 21.238281 4.792969 20.378906 4.363281 20.238281 4.363281 C 19.890625 4.363281 12.636719 8.535156 12.433594 8.855469 C 12.230469 9.171875 9.816406 38.175781 9.96875 38.507812 C 10.097656 38.792969 9.464844 38.417969 20.222656 44.621094 C 25.789062 47.820312 29.648438 50 29.792969 50 C 30.167969 49.992188 39.867188 44.328125 40.007812 44.035156 C 40.105469 43.839844 39.902344 41.089844 38.917969 29.167969 C 38.070312 18.886719 37.679688 14.484375 37.574219 14.347656 C 37.507812 14.242188 36.449219 13.566406 35.207031 12.851562 L 32.957031 11.5625 L 32.902344 9.121094 C 32.863281 7.78125 32.804688 6.582031 32.761719 6.445312 C 31.972656 3.71875 30.859375 2.074219 28.90625 0.75 C 27.929688 0.0898438 27.148438 -0.105469 26.316406 0.0898438 Z M 27.878906 1.992188 C 29.453125 3.050781 30.597656 4.636719 31.070312 6.4375 C 31.21875 6.980469 31.28125 7.617188 31.316406 8.855469 C 31.347656 9.816406 31.339844 10.546875 31.289062 10.546875 C 31.242188 10.546875 29.988281 9.839844 28.515625 8.992188 L 25.832031 7.445312 L 25.804688 5.027344 C 25.773438 2.394531 25.8125 2.15625 26.351562 1.832031 C 26.789062 1.5625 27.320312 1.613281 27.878906 1.992188 Z M 19.433594 6.886719 C 19.433594 7.152344 19.394531 7.226562 19.261719 7.226562 C 18.914062 7.226562 18.058594 7.738281 17.734375 8.136719 C 17.292969 8.667969 17.121094 9.121094 17.042969 9.910156 C 17 10.261719 16.933594 10.546875 16.894531 10.523438 C 16.691406 10.449219 14.753906 9.316406 14.746094 9.277344 C 14.746094 9.238281 19.304688 6.566406 19.410156 6.542969 C 19.425781 6.542969 19.433594 6.699219 19.433594 6.886719 Z M 28.222656 10.683594 C 32.007812 12.867188 35.132812 14.699219 35.1875 14.738281 C 35.222656 14.777344 34.023438 15.519531 32.511719 16.382812 L 29.777344 17.976562 L 27.773438 16.828125 L 25.78125 15.675781 L 25.78125 15.039062 C 25.773438 13.867188 25.246094 12.050781 24.578125 10.914062 C 23.867188 9.699219 22.648438 8.40625 21.558594 7.746094 C 21.027344 7.414062 20.996094 7.371094 20.996094 7 C 20.996094 6.679688 21.027344 6.617188 21.167969 6.664062 C 21.257812 6.691406 24.429688 8.496094 28.222656 10.683594 Z M 19.433594 10.449219 L 19.433594 12.019531 L 18.652344 11.574219 L 18.652344 10.675781 C 18.652344 10.1875 18.691406 9.667969 18.742188 9.539062 C 18.839844 9.285156 19.214844 8.886719 19.351562 8.886719 C 19.394531 8.886719 19.433594 9.585938 19.433594 10.449219 Z M 21.640625 9.816406 C 22.332031 10.410156 22.996094 11.304688 23.4375 12.253906 C 23.917969 13.273438 24.269531 14.648438 24.054688 14.648438 C 24.007812 14.648438 23.316406 14.257812 22.511719 13.792969 L 21.042969 12.929688 L 21.019531 11.148438 C 21.003906 10.179688 21.027344 9.375 21.054688 9.375 C 21.09375 9.375 21.355469 9.570312 21.640625 9.816406 Z M 15.460938 11.574219 L 16.992188 12.449219 L 16.992188 14.949219 C 16.992188 16.527344 17.03125 17.570312 17.097656 17.765625 C 17.316406 18.367188 18.058594 18.496094 18.457031 18 C 18.644531 17.765625 18.652344 17.601562 18.652344 15.617188 C 18.652344 14.429688 18.675781 13.476562 18.699219 13.476562 C 18.726562 13.476562 19.980469 14.191406 21.484375 15.054688 L 24.21875 16.640625 L 24.21875 21.980469 L 24.464844 22.214844 C 24.773438 22.535156 25.226562 22.535156 25.535156 22.214844 L 25.78125 21.980469 L 25.78125 19.777344 C 25.78125 18.5625 25.804688 17.578125 25.8125 17.578125 C 25.871094 17.578125 28.75 19.246094 28.882812 19.351562 C 28.972656 19.433594 29.003906 22.402344 29.003906 33.601562 C 29.003906 41.382812 28.980469 47.753906 28.957031 47.753906 C 28.929688 47.753906 25 45.507812 20.238281 42.757812 C 15.46875 40.007812 11.5625 37.753906 11.554688 37.753906 C 11.539062 37.746094 12.042969 31.679688 12.65625 24.269531 C 13.257812 16.855469 13.769531 10.75 13.769531 10.710938 C 13.769531 10.605469 13.703125 10.570312 15.460938 11.574219 Z M 37.296875 29.246094 C 37.890625 36.449219 38.402344 42.539062 38.425781 42.78125 L 38.476562 43.230469 L 34.609375 45.46875 C 32.480469 46.695312 30.695312 47.722656 30.65625 47.730469 C 30.605469 47.753906 30.566406 41.5625 30.566406 33.570312 L 30.566406 19.386719 L 33.382812 17.757812 C 34.921875 16.863281 36.191406 16.144531 36.199219 16.152344 C 36.207031 16.160156 36.710938 22.0625 37.296875 29.246094 Z M 37.296875 29.246094 "/>
</g>
</svg>
