<?xml version="1.0" encoding="UTF-8"?>
<svg xmlns="http://www.w3.org/2000/svg" xmlns:xlink="http://www.w3.org/1999/xlink" width="26px" height="26px" viewBox="0 0 26 26" version="1.1">
<g id="surface1">
<path style=" stroke:none;fill-rule:nonzero;fill:rgb(100%,100%,100%);fill-opacity:1;" d="M 13.683594 0.046875 C 13.40625 0.117188 13.109375 0.300781 12.933594 0.515625 C 12.613281 0.914062 12.59375 1.003906 12.59375 2.238281 C 12.59375 2.855469 12.582031 3.351562 12.566406 3.351562 C 12.554688 3.351562 12.117188 3.109375 11.597656 2.808594 C 11.042969 2.492188 10.597656 2.269531 10.523438 2.269531 C 10.34375 2.269531 6.570312 4.4375 6.464844 4.605469 C 6.359375 4.769531 5.105469 19.851562 5.183594 20.023438 C 5.25 20.171875 4.921875 19.976562 10.515625 23.203125 C 13.410156 24.867188 15.417969 26 15.492188 26 C 15.6875 25.996094 20.730469 23.050781 20.804688 22.898438 C 20.855469 22.796875 20.75 21.367188 20.238281 15.167969 C 19.796875 9.820312 19.59375 7.53125 19.539062 7.460938 C 19.503906 7.40625 18.953125 7.054688 18.308594 6.683594 L 17.136719 6.011719 L 17.109375 4.742188 C 17.089844 4.046875 17.058594 3.421875 17.035156 3.351562 C 16.625 1.933594 16.046875 1.078125 15.03125 0.390625 C 14.523438 0.046875 14.117188 -0.0546875 13.683594 0.046875 Z M 14.496094 1.035156 C 15.316406 1.585938 15.910156 2.410156 16.15625 3.347656 C 16.234375 3.628906 16.265625 3.960938 16.285156 4.605469 C 16.300781 5.105469 16.296875 5.484375 16.269531 5.484375 C 16.246094 5.484375 15.59375 5.117188 14.828125 4.675781 L 13.433594 3.871094 L 13.417969 2.613281 C 13.402344 1.246094 13.421875 1.121094 13.703125 0.953125 C 13.929688 0.8125 14.207031 0.839844 14.496094 1.035156 Z M 10.105469 3.582031 C 10.105469 3.71875 10.085938 3.757812 10.015625 3.757812 C 9.835938 3.757812 9.390625 4.023438 9.222656 4.230469 C 8.992188 4.507812 8.902344 4.742188 8.863281 5.152344 C 8.839844 5.335938 8.804688 5.484375 8.785156 5.472656 C 8.679688 5.433594 7.671875 4.84375 7.667969 4.824219 C 7.667969 4.804688 10.039062 3.414062 10.09375 3.402344 C 10.101562 3.402344 10.105469 3.484375 10.105469 3.582031 Z M 14.675781 5.554688 C 16.644531 6.691406 18.269531 7.644531 18.296875 7.664062 C 18.316406 7.683594 17.691406 8.070312 16.90625 8.519531 L 15.484375 9.347656 L 14.441406 8.75 L 13.40625 8.152344 L 13.40625 7.820312 C 13.402344 7.210938 13.128906 6.265625 12.78125 5.675781 C 12.410156 5.042969 11.777344 4.371094 11.210938 4.027344 C 10.933594 3.855469 10.917969 3.832031 10.917969 3.640625 C 10.917969 3.472656 10.933594 3.441406 11.007812 3.464844 C 11.054688 3.480469 12.703125 4.417969 14.675781 5.554688 Z M 10.105469 5.433594 L 10.105469 6.25 L 9.699219 6.019531 L 9.699219 5.550781 C 9.699219 5.296875 9.71875 5.027344 9.746094 4.960938 C 9.796875 4.828125 9.992188 4.621094 10.0625 4.621094 C 10.085938 4.621094 10.105469 4.984375 10.105469 5.433594 Z M 11.253906 5.105469 C 11.613281 5.414062 11.957031 5.878906 12.1875 6.371094 C 12.4375 6.902344 12.621094 7.617188 12.507812 7.617188 C 12.484375 7.617188 12.125 7.414062 11.707031 7.171875 L 10.941406 6.722656 L 10.929688 5.796875 C 10.921875 5.292969 10.933594 4.875 10.949219 4.875 C 10.96875 4.875 11.105469 4.976562 11.253906 5.105469 Z M 8.039062 6.019531 L 8.835938 6.472656 L 8.835938 7.773438 C 8.835938 8.59375 8.855469 9.136719 8.890625 9.238281 C 9.003906 9.550781 9.390625 9.617188 9.597656 9.359375 C 9.695312 9.238281 9.699219 9.152344 9.699219 8.121094 C 9.699219 7.503906 9.710938 7.007812 9.722656 7.007812 C 9.738281 7.007812 10.390625 7.378906 11.171875 7.828125 L 12.59375 8.652344 L 12.59375 11.429688 L 12.722656 11.550781 C 12.882812 11.71875 13.117188 11.71875 13.277344 11.550781 L 13.40625 11.429688 L 13.40625 10.285156 C 13.40625 9.652344 13.417969 9.140625 13.421875 9.140625 C 13.453125 9.140625 14.949219 10.007812 15.019531 10.0625 C 15.066406 10.105469 15.082031 11.648438 15.082031 17.472656 C 15.082031 21.519531 15.070312 24.832031 15.058594 24.832031 C 15.042969 24.832031 13 23.664062 10.523438 22.234375 C 8.042969 20.804688 6.011719 19.632812 6.007812 19.632812 C 6 19.628906 6.261719 16.472656 6.582031 12.621094 C 6.894531 8.765625 7.160156 5.589844 7.160156 5.570312 C 7.160156 5.515625 7.125 5.496094 8.039062 6.019531 Z M 19.394531 15.207031 C 19.703125 18.953125 19.96875 22.121094 19.980469 22.246094 L 20.007812 22.480469 L 17.996094 23.644531 C 16.890625 24.28125 15.960938 24.816406 15.941406 24.820312 C 15.914062 24.832031 15.894531 21.613281 15.894531 17.457031 L 15.894531 10.082031 L 17.359375 9.234375 C 18.160156 8.769531 18.820312 8.394531 18.824219 8.398438 C 18.828125 8.402344 19.089844 11.472656 19.394531 15.207031 Z M 19.394531 15.207031 "/>
</g>
</svg>
