<?xml version="1.0" encoding="UTF-8"?>
<svg xmlns="http://www.w3.org/2000/svg" xmlns:xlink="http://www.w3.org/1999/xlink" width="75px" height="75px" viewBox="0 0 75 75" version="1.1">
<g id="surface1">
<path style=" stroke:none;fill-rule:nonzero;fill:rgb(100%,100%,100%);fill-opacity:1;" d="M 39.476562 0.132812 C 38.671875 0.335938 37.820312 0.863281 37.308594 1.492188 C 36.386719 2.636719 36.328125 2.898438 36.328125 6.460938 C 36.328125 8.234375 36.296875 9.667969 36.253906 9.667969 C 36.210938 9.667969 34.953125 8.964844 33.457031 8.101562 C 31.859375 7.191406 30.570312 6.546875 30.351562 6.546875 C 29.839844 6.546875 18.953125 12.804688 18.648438 13.285156 C 18.339844 13.753906 14.722656 57.261719 14.957031 57.757812 C 15.148438 58.183594 14.195312 57.625 30.335938 66.929688 C 38.6875 71.734375 44.472656 75 44.691406 75 C 45.25 74.984375 59.796875 66.488281 60.015625 66.050781 C 60.160156 65.757812 59.851562 61.640625 58.375 43.753906 C 57.101562 28.328125 56.515625 21.722656 56.367188 21.519531 C 56.265625 21.359375 54.667969 20.347656 52.808594 19.277344 L 49.4375 17.34375 L 49.351562 13.679688 C 49.292969 11.675781 49.203125 9.875 49.144531 9.667969 C 47.960938 5.582031 46.289062 3.105469 43.359375 1.128906 C 41.894531 0.132812 40.722656 -0.160156 39.476562 0.132812 Z M 41.820312 2.988281 C 44.179688 4.570312 45.894531 6.957031 46.609375 9.652344 C 46.832031 10.472656 46.917969 11.425781 46.976562 13.285156 C 47.023438 14.722656 47.007812 15.820312 46.933594 15.820312 C 46.859375 15.820312 44.984375 14.765625 42.773438 13.492188 L 38.746094 11.164062 L 38.703125 7.542969 C 38.65625 3.589844 38.714844 3.238281 39.523438 2.753906 C 40.179688 2.34375 40.984375 2.417969 41.820312 2.988281 Z M 29.148438 10.328125 C 29.148438 10.722656 29.09375 10.839844 28.886719 10.839844 C 28.375 10.839844 27.085938 11.601562 26.601562 12.203125 C 25.941406 13.007812 25.679688 13.679688 25.5625 14.867188 C 25.503906 15.394531 25.398438 15.820312 25.34375 15.789062 C 25.035156 15.671875 22.132812 13.976562 22.117188 13.914062 C 22.117188 13.859375 28.960938 9.84375 29.121094 9.8125 C 29.136719 9.8125 29.148438 10.046875 29.148438 10.328125 Z M 42.335938 16.023438 C 48.015625 19.304688 52.703125 22.046875 52.777344 22.105469 C 52.835938 22.164062 51.035156 23.277344 48.765625 24.578125 L 44.664062 26.96875 L 41.660156 25.238281 L 38.671875 23.511719 L 38.671875 22.558594 C 38.65625 20.800781 37.867188 18.078125 36.871094 16.375 C 35.800781 14.546875 33.96875 12.613281 32.34375 11.617188 C 31.539062 11.117188 31.492188 11.058594 31.492188 10.503906 C 31.492188 10.019531 31.539062 9.929688 31.757812 9.992188 C 31.890625 10.035156 36.648438 12.742188 42.335938 16.023438 Z M 29.148438 15.671875 L 29.148438 18.03125 L 27.976562 17.359375 L 27.976562 16.011719 C 27.976562 15.277344 28.039062 14.5 28.109375 14.3125 C 28.257812 13.929688 28.828125 13.328125 29.03125 13.328125 C 29.09375 13.328125 29.148438 14.382812 29.148438 15.671875 Z M 32.460938 14.722656 C 33.5 15.617188 34.496094 16.960938 35.15625 18.382812 C 35.875 19.90625 36.402344 21.972656 36.078125 21.972656 C 36.007812 21.972656 34.980469 21.386719 33.765625 20.683594 L 31.566406 19.394531 L 31.523438 16.726562 C 31.507812 15.265625 31.539062 14.0625 31.582031 14.0625 C 31.640625 14.0625 32.035156 14.355469 32.460938 14.722656 Z M 23.1875 17.359375 L 25.488281 18.675781 L 25.488281 22.425781 C 25.488281 24.785156 25.546875 26.351562 25.648438 26.644531 C 25.972656 27.554688 27.085938 27.742188 27.6875 26.996094 C 27.964844 26.644531 27.976562 26.398438 27.976562 23.421875 C 27.976562 21.648438 28.007812 20.214844 28.050781 20.214844 C 28.09375 20.214844 29.96875 21.285156 32.226562 22.585938 L 36.328125 24.960938 L 36.328125 32.972656 L 36.695312 33.324219 C 37.164062 33.808594 37.835938 33.808594 38.304688 33.324219 L 38.671875 32.972656 L 38.671875 29.664062 C 38.671875 27.847656 38.703125 26.367188 38.714844 26.367188 C 38.804688 26.367188 43.125 28.871094 43.328125 29.03125 C 43.460938 29.148438 43.507812 33.601562 43.507812 50.40625 C 43.507812 62.078125 43.476562 71.632812 43.433594 71.632812 C 43.390625 71.632812 37.5 68.261719 30.351562 64.132812 C 23.203125 60.015625 17.34375 56.632812 17.328125 56.632812 C 17.3125 56.617188 18.0625 47.519531 18.984375 36.402344 C 19.890625 25.28125 20.65625 16.128906 20.65625 16.070312 C 20.65625 15.90625 20.550781 15.851562 23.1875 17.359375 Z M 55.941406 43.871094 C 56.835938 54.667969 57.597656 63.808594 57.640625 64.175781 L 57.714844 64.847656 L 51.914062 68.203125 C 48.71875 70.046875 46.039062 71.585938 45.980469 71.601562 C 45.90625 71.632812 45.851562 62.34375 45.851562 50.359375 L 45.851562 29.078125 L 50.070312 26.632812 C 52.382812 25.296875 54.289062 24.214844 54.300781 24.226562 C 54.316406 24.242188 55.0625 33.089844 55.941406 43.871094 Z M 55.941406 43.871094 "/>
</g>
</svg>
