<svg width="923" height="1858" viewBox="0 0 923 1858" fill="none" xmlns="http://www.w3.org/2000/svg">
<rect width="923" height="1858" fill="#F5F5F5"/>
<g clip-path="url(#clip0_0_1)">
<rect width="834" height="1626" transform="translate(89 232)" fill="white"/>
<rect x="89" y="1771" width="834" height="84" fill="black"/>
<path d="M122.278 1833.64C122.278 1832.56 122.418 1831.58 122.696 1830.67C122.977 1829.77 123.378 1828.94 123.898 1828.18H124.784C124.58 1828.46 124.388 1828.81 124.209 1829.22C124.033 1829.63 123.878 1830.08 123.744 1830.57C123.611 1831.06 123.506 1831.57 123.429 1832.09C123.355 1832.61 123.318 1833.13 123.318 1833.64C123.318 1834.31 123.384 1835 123.514 1835.69C123.645 1836.39 123.821 1837.04 124.043 1837.63C124.264 1838.23 124.511 1838.72 124.784 1839.09H123.898C123.378 1838.33 122.977 1837.5 122.696 1836.6C122.418 1835.7 122.278 1834.71 122.278 1833.64ZM126.404 1838V1829.27H127.461V1837.06H131.518V1838H126.404ZM134.211 1829.27V1838H133.154V1829.27H134.211ZM143.251 1829.27V1838H142.228L137.472 1831.15H137.387V1838H136.33V1829.27H137.353L142.126 1836.14H142.211V1829.27H143.251ZM145.365 1838V1829.27H146.422V1833.6H146.525L150.445 1829.27H151.826L148.161 1833.21L151.826 1838H150.547L147.513 1833.94L146.422 1835.17V1838H145.365ZM157.966 1831.45C157.915 1831.02 157.708 1830.69 157.344 1830.45C156.98 1830.21 156.534 1830.09 156.006 1830.09C155.62 1830.09 155.282 1830.15 154.992 1830.28C154.705 1830.4 154.48 1830.58 154.319 1830.79C154.159 1831.01 154.08 1831.26 154.08 1831.54C154.08 1831.77 154.135 1831.97 154.246 1832.14C154.36 1832.31 154.505 1832.44 154.681 1832.55C154.857 1832.66 155.042 1832.75 155.235 1832.82C155.428 1832.89 155.605 1832.95 155.767 1832.99L156.654 1833.23C156.881 1833.29 157.134 1833.37 157.412 1833.47C157.694 1833.58 157.962 1833.72 158.218 1833.9C158.476 1834.08 158.689 1834.31 158.857 1834.6C159.025 1834.88 159.108 1835.22 159.108 1835.63C159.108 1836.1 158.985 1836.53 158.738 1836.91C158.493 1837.29 158.135 1837.59 157.664 1837.82C157.195 1838.04 156.625 1838.15 155.955 1838.15C155.33 1838.15 154.789 1838.05 154.331 1837.85C153.877 1837.65 153.519 1837.37 153.257 1837.01C152.999 1836.65 152.853 1836.23 152.819 1835.75H153.909C153.938 1836.08 154.049 1836.35 154.242 1836.57C154.438 1836.78 154.685 1836.94 154.983 1837.05C155.284 1837.15 155.608 1837.2 155.955 1837.2C156.358 1837.2 156.721 1837.13 157.042 1837C157.363 1836.87 157.617 1836.68 157.804 1836.45C157.992 1836.21 158.086 1835.93 158.086 1835.61C158.086 1835.32 158.005 1835.09 157.843 1834.91C157.681 1834.72 157.468 1834.58 157.203 1834.46C156.939 1834.35 156.654 1834.25 156.347 1834.16L155.273 1833.86C154.591 1833.66 154.051 1833.38 153.654 1833.02C153.256 1832.65 153.057 1832.18 153.057 1831.59C153.057 1831.1 153.189 1830.68 153.453 1830.31C153.721 1829.95 154.078 1829.66 154.527 1829.46C154.979 1829.26 155.483 1829.15 156.04 1829.15C156.603 1829.15 157.103 1829.25 157.54 1829.46C157.978 1829.65 158.324 1829.93 158.58 1830.27C158.838 1830.62 158.975 1831.01 158.989 1831.45H157.966ZM162.857 1833.64C162.857 1834.71 162.717 1835.7 162.435 1836.6C162.157 1837.5 161.758 1838.33 161.238 1839.09H160.352C160.556 1838.81 160.746 1838.46 160.923 1838.05C161.102 1837.64 161.258 1837.19 161.391 1836.7C161.525 1836.21 161.629 1835.71 161.702 1835.18C161.779 1834.66 161.817 1834.14 161.817 1833.64C161.817 1832.96 161.752 1832.27 161.621 1831.58C161.491 1830.88 161.315 1830.24 161.093 1829.64C160.871 1829.04 160.624 1828.56 160.352 1828.18H161.238C161.758 1828.94 162.157 1829.77 162.435 1830.67C162.717 1831.58 162.857 1832.56 162.857 1833.64Z" fill="white"/>
<rect x="89" y="1331" width="834" height="99" fill="black"/>
<rect x="86" y="685" width="835" height="583" fill="black"/>
<rect x="90" y="232" width="834" height="102" fill="black"/>
<rect x="841" y="260" width="33" height="30" fill="#D9D9D9"/>
<path d="M847.733 300H846.852C846.8 299.747 846.709 299.524 846.579 299.332C846.451 299.141 846.295 298.98 846.11 298.849C845.928 298.717 845.725 298.617 845.503 298.551C845.28 298.485 845.048 298.452 844.807 298.452C844.366 298.452 843.968 298.563 843.61 298.786C843.255 299.008 842.972 299.336 842.761 299.769C842.553 300.202 842.449 300.734 842.449 301.364C842.449 301.993 842.553 302.525 842.761 302.958C842.972 303.391 843.255 303.719 843.61 303.942C843.968 304.164 844.366 304.276 844.807 304.276C845.048 304.276 845.28 304.242 845.503 304.176C845.725 304.11 845.928 304.012 846.11 303.881C846.295 303.749 846.451 303.587 846.579 303.395C846.709 303.201 846.8 302.978 846.852 302.727H847.733C847.667 303.099 847.546 303.432 847.371 303.725C847.196 304.019 846.978 304.268 846.717 304.474C846.457 304.678 846.165 304.833 845.84 304.94C845.518 305.046 845.174 305.099 844.807 305.099C844.187 305.099 843.635 304.948 843.152 304.645C842.669 304.342 842.289 303.911 842.012 303.352C841.735 302.794 841.597 302.131 841.597 301.364C841.597 300.597 841.735 299.934 842.012 299.375C842.289 298.816 842.669 298.385 843.152 298.082C843.635 297.779 844.187 297.628 844.807 297.628C845.174 297.628 845.518 297.681 845.84 297.788C846.165 297.894 846.457 298.05 846.717 298.256C846.978 298.46 847.196 298.709 847.371 299.002C847.546 299.293 847.667 299.626 847.733 300ZM855.292 301.364C855.292 302.131 855.154 302.794 854.877 303.352C854.6 303.911 854.22 304.342 853.737 304.645C853.254 304.948 852.702 305.099 852.082 305.099C851.462 305.099 850.91 304.948 850.427 304.645C849.944 304.342 849.564 303.911 849.287 303.352C849.01 302.794 848.872 302.131 848.872 301.364C848.872 300.597 849.01 299.934 849.287 299.375C849.564 298.816 849.944 298.385 850.427 298.082C850.91 297.779 851.462 297.628 852.082 297.628C852.702 297.628 853.254 297.779 853.737 298.082C854.22 298.385 854.6 298.816 854.877 299.375C855.154 299.934 855.292 300.597 855.292 301.364ZM854.44 301.364C854.44 300.734 854.335 300.202 854.124 299.769C853.916 299.336 853.633 299.008 853.275 298.786C852.92 298.563 852.523 298.452 852.082 298.452C851.642 298.452 851.243 298.563 850.885 298.786C850.53 299.008 850.247 299.336 850.037 299.769C849.828 300.202 849.724 300.734 849.724 301.364C849.724 301.993 849.828 302.525 850.037 302.958C850.247 303.391 850.53 303.719 850.885 303.942C851.243 304.164 851.642 304.276 852.082 304.276C852.523 304.276 852.92 304.164 853.275 303.942C853.633 303.719 853.916 303.391 854.124 302.958C854.335 302.525 854.44 301.993 854.44 301.364ZM862.54 297.727V305H861.688L857.725 299.29H857.654V305H856.773V297.727H857.626L861.603 303.452H861.674V297.727H862.54ZM863.905 298.509V297.727H869.359V298.509H867.072V305H866.192V298.509H863.905ZM870.167 305H869.244L871.914 297.727H872.824L875.494 305H874.571L872.397 298.878H872.341L870.167 305ZM870.508 302.159H874.23V302.94H870.508V302.159Z" fill="white"/>
<line x1="127" y1="282.5" x2="191" y2="282.5" stroke="white"/>
<line x1="127" y1="270.5" x2="191" y2="270.5" stroke="white"/>
<rect x="444" y="250" width="124" height="67" fill="#D9D9D9"/>
<path d="M489.21 275.455V290H487.534V275.455H489.21ZM496.712 290.227C495.727 290.227 494.863 289.993 494.12 289.524C493.381 289.055 492.803 288.4 492.387 287.557C491.975 286.714 491.769 285.729 491.769 284.602C491.769 283.466 491.975 282.474 492.387 281.626C492.803 280.779 493.381 280.121 494.12 279.652C494.863 279.183 495.727 278.949 496.712 278.949C497.697 278.949 498.559 279.183 499.297 279.652C500.041 280.121 500.618 280.779 501.03 281.626C501.447 282.474 501.655 283.466 501.655 284.602C501.655 285.729 501.447 286.714 501.03 287.557C500.618 288.4 500.041 289.055 499.297 289.524C498.559 289.993 497.697 290.227 496.712 290.227ZM496.712 288.722C497.46 288.722 498.076 288.53 498.559 288.146C499.042 287.763 499.399 287.259 499.631 286.634C499.863 286.009 499.979 285.331 499.979 284.602C499.979 283.873 499.863 283.194 499.631 282.564C499.399 281.934 499.042 281.425 498.559 281.037C498.076 280.649 497.46 280.455 496.712 280.455C495.964 280.455 495.348 280.649 494.865 281.037C494.382 281.425 494.025 281.934 493.793 282.564C493.561 283.194 493.445 283.873 493.445 284.602C493.445 285.331 493.561 286.009 493.793 286.634C494.025 287.259 494.382 287.763 494.865 288.146C495.348 288.53 495.964 288.722 496.712 288.722ZM508.617 294.318C507.808 294.318 507.112 294.214 506.529 294.006C505.947 293.802 505.461 293.532 505.073 293.196C504.69 292.865 504.384 292.509 504.157 292.131L505.492 291.193C505.644 291.392 505.835 291.619 506.067 291.875C506.299 292.135 506.617 292.36 507.019 292.55C507.426 292.744 507.959 292.841 508.617 292.841C509.498 292.841 510.225 292.628 510.798 292.202C511.371 291.776 511.657 291.108 511.657 290.199V287.983H511.515C511.392 288.182 511.217 288.428 510.989 288.722C510.767 289.01 510.445 289.268 510.023 289.496C509.607 289.718 509.043 289.83 508.333 289.83C507.452 289.83 506.662 289.621 505.961 289.205C505.265 288.788 504.713 288.182 504.306 287.386C503.904 286.591 503.702 285.625 503.702 284.489C503.702 283.371 503.899 282.398 504.292 281.57C504.685 280.736 505.232 280.092 505.933 279.638C506.633 279.179 507.443 278.949 508.362 278.949C509.072 278.949 509.635 279.067 510.052 279.304C510.473 279.536 510.795 279.801 511.018 280.099C511.245 280.393 511.42 280.634 511.543 280.824H511.714V279.091H513.333V290.312C513.333 291.25 513.12 292.012 512.694 292.599C512.272 293.191 511.704 293.625 510.989 293.899C510.279 294.179 509.488 294.318 508.617 294.318ZM508.56 288.324C509.233 288.324 509.801 288.17 510.265 287.862C510.729 287.554 511.082 287.112 511.323 286.534C511.565 285.956 511.685 285.265 511.685 284.46C511.685 283.674 511.567 282.981 511.33 282.379C511.094 281.778 510.743 281.307 510.279 280.966C509.815 280.625 509.242 280.455 508.56 280.455C507.85 280.455 507.258 280.634 506.785 280.994C506.316 281.354 505.963 281.837 505.727 282.443C505.495 283.049 505.379 283.722 505.379 284.46C505.379 285.218 505.497 285.888 505.734 286.47C505.975 287.048 506.33 287.502 506.799 287.834C507.272 288.161 507.86 288.324 508.56 288.324ZM520.833 290.227C519.848 290.227 518.984 289.993 518.241 289.524C517.502 289.055 516.924 288.4 516.508 287.557C516.096 286.714 515.89 285.729 515.89 284.602C515.89 283.466 516.096 282.474 516.508 281.626C516.924 280.779 517.502 280.121 518.241 279.652C518.984 279.183 519.848 278.949 520.833 278.949C521.818 278.949 522.68 279.183 523.418 279.652C524.162 280.121 524.739 280.779 525.151 281.626C525.568 282.474 525.776 283.466 525.776 284.602C525.776 285.729 525.568 286.714 525.151 287.557C524.739 288.4 524.162 289.055 523.418 289.524C522.68 289.993 521.818 290.227 520.833 290.227ZM520.833 288.722C521.581 288.722 522.197 288.53 522.68 288.146C523.163 287.763 523.52 287.259 523.752 286.634C523.984 286.009 524.1 285.331 524.1 284.602C524.1 283.873 523.984 283.194 523.752 282.564C523.52 281.934 523.163 281.425 522.68 281.037C522.197 280.649 521.581 280.455 520.833 280.455C520.085 280.455 519.469 280.649 518.987 281.037C518.504 281.425 518.146 281.934 517.914 282.564C517.682 283.194 517.566 283.873 517.566 284.602C517.566 285.331 517.682 286.009 517.914 286.634C518.146 287.259 518.504 287.763 518.987 288.146C519.469 288.53 520.085 288.722 520.833 288.722Z" fill="black"/>
<line x1="127" y1="259.5" x2="191" y2="259.5" stroke="white"/>
<rect x="796" y="260" width="33" height="30" fill="#D9D9D9"/>
<path d="M778.733 300H777.852C777.8 299.747 777.709 299.524 777.579 299.332C777.451 299.141 777.295 298.98 777.11 298.849C776.928 298.717 776.725 298.617 776.503 298.551C776.28 298.485 776.048 298.452 775.807 298.452C775.366 298.452 774.968 298.563 774.61 298.786C774.255 299.008 773.972 299.336 773.761 299.769C773.553 300.202 773.449 300.734 773.449 301.364C773.449 301.993 773.553 302.525 773.761 302.958C773.972 303.391 774.255 303.719 774.61 303.942C774.968 304.164 775.366 304.276 775.807 304.276C776.048 304.276 776.28 304.242 776.503 304.176C776.725 304.11 776.928 304.012 777.11 303.881C777.295 303.749 777.451 303.587 777.579 303.395C777.709 303.201 777.8 302.978 777.852 302.727H778.733C778.667 303.099 778.546 303.432 778.371 303.725C778.196 304.019 777.978 304.268 777.717 304.474C777.457 304.678 777.165 304.833 776.84 304.94C776.518 305.046 776.174 305.099 775.807 305.099C775.187 305.099 774.635 304.948 774.152 304.645C773.669 304.342 773.289 303.911 773.012 303.352C772.735 302.794 772.597 302.131 772.597 301.364C772.597 300.597 772.735 299.934 773.012 299.375C773.289 298.816 773.669 298.385 774.152 298.082C774.635 297.779 775.187 297.628 775.807 297.628C776.174 297.628 776.518 297.681 776.84 297.788C777.165 297.894 777.457 298.05 777.717 298.256C777.978 298.46 778.196 298.709 778.371 299.002C778.546 299.293 778.667 299.626 778.733 300ZM780.454 305H779.531L782.202 297.727H783.111L785.781 305H784.858L782.684 298.878H782.628L780.454 305ZM780.795 302.159H784.517V302.94H780.795V302.159ZM786.914 305V297.727H789.371C789.939 297.727 790.406 297.824 790.77 298.018C791.135 298.21 791.405 298.474 791.58 298.81C791.755 299.147 791.843 299.529 791.843 299.957C791.843 300.386 791.755 300.766 791.58 301.097C791.405 301.429 791.136 301.689 790.774 301.879C790.412 302.066 789.949 302.159 789.385 302.159H787.397V301.364H789.357C789.745 301.364 790.058 301.307 790.295 301.193C790.534 301.08 790.706 300.919 790.813 300.71C790.922 300.5 790.976 300.249 790.976 299.957C790.976 299.666 790.922 299.412 790.813 299.194C790.704 298.976 790.53 298.808 790.291 298.69C790.052 298.569 789.736 298.509 789.343 298.509H787.795V305H786.914ZM790.337 301.733L792.127 305H791.104L789.343 301.733H790.337ZM793.31 305V297.727H795.768C796.336 297.727 796.802 297.824 797.167 298.018C797.531 298.21 797.801 298.474 797.977 298.81C798.152 299.147 798.239 299.529 798.239 299.957C798.239 300.386 798.152 300.766 797.977 301.097C797.801 301.429 797.533 301.689 797.17 301.879C796.808 302.066 796.345 302.159 795.782 302.159H793.793V301.364H795.754C796.142 301.364 796.454 301.307 796.691 301.193C796.93 301.08 797.103 300.919 797.21 300.71C797.318 300.5 797.373 300.249 797.373 299.957C797.373 299.666 797.318 299.412 797.21 299.194C797.101 298.976 796.927 298.808 796.688 298.69C796.448 298.569 796.132 298.509 795.739 298.509H794.191V305H793.31ZM796.734 301.733L798.523 305H797.501L795.739 301.733H796.734ZM800.588 297.727V305H799.707V297.727H800.588ZM808.12 297.727V305H807.268L803.305 299.29H803.234V305H802.353V297.727H803.206L807.183 303.452H807.254V297.727H808.12ZM809.883 305V297.727H810.763V300.966H814.641V297.727H815.522V305H814.641V301.747H810.763V305H809.883ZM823.421 301.364C823.421 302.131 823.283 302.794 823.006 303.352C822.729 303.911 822.349 304.342 821.866 304.645C821.383 304.948 820.831 305.099 820.211 305.099C819.591 305.099 819.039 304.948 818.556 304.645C818.073 304.342 817.693 303.911 817.416 303.352C817.139 302.794 817.001 302.131 817.001 301.364C817.001 300.597 817.139 299.934 817.416 299.375C817.693 298.816 818.073 298.385 818.556 298.082C819.039 297.779 819.591 297.628 820.211 297.628C820.831 297.628 821.383 297.779 821.866 298.082C822.349 298.385 822.729 298.816 823.006 299.375C823.283 299.934 823.421 300.597 823.421 301.364ZM822.569 301.364C822.569 300.734 822.464 300.202 822.253 299.769C822.045 299.336 821.762 299.008 821.404 298.786C821.049 298.563 820.651 298.452 820.211 298.452C819.771 298.452 819.372 298.563 819.014 298.786C818.659 299.008 818.376 299.336 818.166 299.769C817.957 300.202 817.853 300.734 817.853 301.364C817.853 301.993 817.957 302.525 818.166 302.958C818.376 303.391 818.659 303.719 819.014 303.942C819.372 304.164 819.771 304.276 820.211 304.276C820.651 304.276 821.049 304.164 821.404 303.942C821.762 303.719 822.045 303.391 822.253 302.958C822.464 302.525 822.569 301.993 822.569 301.364Z" fill="white"/>
<path d="M118.278 308.636C118.278 307.562 118.418 306.575 118.696 305.675C118.977 304.771 119.378 303.94 119.898 303.182H120.784C120.58 303.463 120.388 303.81 120.209 304.222C120.033 304.631 119.878 305.081 119.744 305.572C119.611 306.061 119.506 306.567 119.429 307.089C119.355 307.612 119.318 308.128 119.318 308.636C119.318 309.312 119.384 309.999 119.514 310.695C119.645 311.391 119.821 312.037 120.043 312.634C120.264 313.23 120.511 313.716 120.784 314.091H119.898C119.378 313.332 118.977 312.503 118.696 311.602C118.418 310.699 118.278 309.71 118.278 308.636ZM122.404 304.273H123.666L126.632 311.517H126.734L129.7 304.273H130.961V313H129.973V306.369H129.887L127.16 313H126.206L123.478 306.369H123.393V313H122.404V304.273ZM133.08 313V304.273H138.347V305.21H134.137V308.159H138.075V309.097H134.137V312.062H138.415V313H133.08ZM147.173 304.273V313H146.15L141.394 306.148H141.309V313H140.252V304.273H141.275L146.048 311.142H146.133V304.273H147.173ZM155.015 304.273H156.071V310.051C156.071 310.648 155.931 311.18 155.65 311.649C155.371 312.115 154.978 312.483 154.469 312.753C153.961 313.02 153.364 313.153 152.679 313.153C151.995 313.153 151.398 313.02 150.89 312.753C150.381 312.483 149.986 312.115 149.705 311.649C149.426 311.18 149.287 310.648 149.287 310.051V304.273H150.344V309.966C150.344 310.392 150.438 310.771 150.625 311.104C150.813 311.433 151.08 311.693 151.426 311.884C151.776 312.071 152.194 312.165 152.679 312.165C153.165 312.165 153.583 312.071 153.932 311.884C154.282 311.693 154.549 311.433 154.733 311.104C154.921 310.771 155.015 310.392 155.015 309.966V304.273ZM161.557 313V304.273H162.614V312.062H166.67V313H161.557ZM169.216 313H168.108L171.312 304.273H172.403L175.608 313H174.5L171.892 305.653H171.824L169.216 313ZM169.625 309.591H174.091V310.528H169.625V309.591ZM175.47 305.21V304.273H182.016V305.21H179.271V313H178.214V305.21H175.47ZM183.647 313V304.273H188.914V305.21H184.703V308.159H188.641V309.097H184.703V312.062H188.982V313H183.647ZM190.819 313V304.273H193.767C194.449 304.273 195.009 304.389 195.446 304.622C195.884 304.852 196.208 305.169 196.418 305.572C196.628 305.976 196.733 306.435 196.733 306.949C196.733 307.463 196.628 307.919 196.418 308.317C196.208 308.714 195.885 309.027 195.451 309.254C195.016 309.479 194.461 309.591 193.784 309.591H191.398V308.636H193.75C194.216 308.636 194.591 308.568 194.875 308.432C195.162 308.295 195.37 308.102 195.498 307.852C195.628 307.599 195.694 307.298 195.694 306.949C195.694 306.599 195.628 306.294 195.498 306.033C195.367 305.771 195.158 305.57 194.871 305.428C194.584 305.283 194.205 305.21 193.733 305.21H191.875V313H190.819ZM194.926 309.08L197.074 313H195.847L193.733 309.08H194.926ZM198.852 313H197.744L200.949 304.273H202.04L205.244 313H204.136L201.528 305.653H201.46L198.852 313ZM199.261 309.591H203.727V310.528H199.261V309.591ZM206.604 313V304.273H207.661V312.062H211.717V313H206.604ZM215.365 308.636C215.365 309.71 215.224 310.699 214.943 311.602C214.665 312.503 214.266 313.332 213.746 314.091H212.859C213.064 313.81 213.254 313.463 213.43 313.051C213.609 312.642 213.766 312.193 213.899 311.705C214.033 311.213 214.136 310.706 214.21 310.183C214.287 309.658 214.325 309.142 214.325 308.636C214.325 307.96 214.26 307.274 214.129 306.578C213.999 305.882 213.822 305.236 213.601 304.639C213.379 304.043 213.132 303.557 212.859 303.182H213.746C214.266 303.94 214.665 304.771 214.943 305.675C215.224 306.575 215.365 307.562 215.365 308.636Z" fill="white"/>
<rect x="90" y="334" width="834" height="285" fill="#D9D9D9"/>
<line x1="88.8354" y1="621.528" x2="914.835" y2="333.528" stroke="black"/>
<line x1="89.163" y1="330.527" x2="924.163" y2="618.527" stroke="black"/>
<rect x="121" y="645" width="373" height="295" fill="#D9D9D9"/>
<rect x="519" y="645" width="373" height="295" fill="#D9D9D9"/>
<line y1="-0.5" x2="473.462" y2="-0.5" transform="matrix(0.783452 -0.621452 0.786598 0.617465 123.913 939.234)" stroke="black"/>
<line y1="-0.5" x2="474.801" y2="-0.5" transform="matrix(0.787377 0.616471 -0.782664 0.622444 121 646.532)" stroke="black"/>
<line y1="-0.5" x2="471.514" y2="-0.5" transform="matrix(0.792867 0.609394 -0.777013 0.629485 518.152 652.662)" stroke="black"/>
<line y1="-0.5" x2="467.97" y2="-0.5" transform="matrix(0.79057 -0.612371 0.779399 0.626528 522.036 933.104)" stroke="black"/>
<rect x="117" y="970" width="248" height="351" fill="#D9D9D9"/>
<rect x="644" y="970" width="248" height="351" fill="#D9D9D9"/>
<rect x="380" y="970" width="248" height="351" fill="#D9D9D9"/>
<line y1="-0.5" x2="424.921" y2="-0.5" transform="matrix(0.573828 -0.818976 0.825201 0.564839 121.047 1320)" stroke="black"/>
<line y1="-0.5" x2="421.543" y2="-0.5" transform="matrix(-0.571225 -0.820793 0.826975 -0.562238 361.843 1319)" stroke="black"/>
<line y1="-0.5" x2="423.868" y2="-0.5" transform="matrix(0.57764 -0.816291 0.82258 0.568649 383.09 1319)" stroke="black"/>
<line y1="-0.5" x2="424.453" y2="-0.5" transform="matrix(-0.579227 -0.815166 0.821481 -0.570236 625.91 1319)" stroke="black"/>
<line y1="-0.5" x2="421.651" y2="-0.5" transform="matrix(-0.578278 -0.81584 0.822139 -0.569287 887.953 1318)" stroke="black"/>
<line y1="-0.5" x2="427.959" y2="-0.5" transform="matrix(0.572118 -0.820171 0.826368 0.56313 647.157 1321)" stroke="black"/>
<rect x="117" y="1358" width="775" height="54" fill="#D9D9D9"/>
<line x1="116.97" y1="1412.5" x2="891.97" y2="1365.5" stroke="black"/>
<line x1="886.967" y1="1409.5" x2="116.967" y2="1358.5" stroke="black"/>
<rect x="117" y="1443" width="177" height="293" fill="#D9D9D9"/>
<rect x="715" y="1443" width="177" height="293" fill="#D9D9D9"/>
<rect x="317" y="1443" width="175" height="293" fill="#D9D9D9"/>
<rect x="517" y="1443" width="175" height="293" fill="#D9D9D9"/>
<line x1="119.57" y1="1734.74" x2="293.57" y2="1442.74" stroke="black"/>
<line x1="291.571" y1="1735.26" x2="116.571" y2="1443.26" stroke="black"/>
<line x1="319.572" y1="1728.74" x2="491.572" y2="1442.74" stroke="black"/>
<line x1="488.571" y1="1730.26" x2="316.571" y2="1443.26" stroke="black"/>
<line x1="517.572" y1="1729.74" x2="691.572" y2="1442.74" stroke="black"/>
<line x1="684.568" y1="1728.25" x2="518.568" y2="1443.25" stroke="black"/>
<line x1="720.568" y1="1727.75" x2="886.568" y2="1442.75" stroke="black"/>
<line x1="890.569" y1="1733.25" x2="720.569" y2="1443.25" stroke="black"/>
<path d="M463.057 1838V1829.27H466.006C466.688 1829.27 467.247 1829.39 467.685 1829.62C468.122 1829.85 468.446 1830.17 468.656 1830.57C468.866 1830.98 468.972 1831.43 468.972 1831.95C468.972 1832.46 468.866 1832.92 468.656 1833.32C468.446 1833.71 468.124 1834.03 467.689 1834.25C467.254 1834.48 466.699 1834.59 466.023 1834.59H463.636V1833.64H465.989C466.455 1833.64 466.83 1833.57 467.114 1833.43C467.401 1833.3 467.608 1833.1 467.736 1832.85C467.866 1832.6 467.932 1832.3 467.932 1831.95C467.932 1831.6 467.866 1831.29 467.736 1831.03C467.605 1830.77 467.396 1830.57 467.109 1830.43C466.822 1830.28 466.443 1830.21 465.972 1830.21H464.114V1838H463.057ZM467.165 1834.08L469.312 1838H468.085L465.972 1834.08H467.165ZM470.733 1838V1829.27H476V1830.21H471.789V1833.16H475.727V1834.1H471.789V1837.06H476.068V1838H470.733ZM480.598 1838H477.904V1829.27H480.717C481.564 1829.27 482.288 1829.45 482.89 1829.8C483.493 1830.14 483.954 1830.64 484.275 1831.29C484.596 1831.94 484.757 1832.72 484.757 1833.62C484.757 1834.53 484.595 1835.31 484.271 1835.97C483.947 1836.62 483.475 1837.12 482.856 1837.48C482.237 1837.83 481.484 1838 480.598 1838ZM478.961 1837.06H480.529C481.251 1837.06 481.849 1836.92 482.324 1836.64C482.798 1836.37 483.152 1835.97 483.385 1835.46C483.618 1834.94 483.734 1834.33 483.734 1833.62C483.734 1832.91 483.619 1832.31 483.389 1831.8C483.159 1831.29 482.815 1830.9 482.358 1830.62C481.9 1830.35 481.331 1830.21 480.649 1830.21H478.961V1837.06ZM486.529 1838V1829.27H491.797V1830.21H487.586V1833.16H491.524V1834.1H487.586V1837.06H491.865V1838H486.529ZM498.474 1831.45C498.423 1831.02 498.216 1830.69 497.852 1830.45C497.488 1830.21 497.042 1830.09 496.514 1830.09C496.127 1830.09 495.789 1830.15 495.5 1830.28C495.213 1830.4 494.988 1830.58 494.826 1830.79C494.667 1831.01 494.588 1831.26 494.588 1831.54C494.588 1831.77 494.643 1831.97 494.754 1832.14C494.868 1832.31 495.012 1832.44 495.189 1832.55C495.365 1832.66 495.549 1832.75 495.743 1832.82C495.936 1832.89 496.113 1832.95 496.275 1832.99L497.162 1833.23C497.389 1833.29 497.642 1833.37 497.92 1833.47C498.201 1833.58 498.47 1833.72 498.725 1833.9C498.984 1834.08 499.197 1834.31 499.365 1834.6C499.532 1834.88 499.616 1835.22 499.616 1835.63C499.616 1836.1 499.493 1836.53 499.245 1836.91C499.001 1837.29 498.643 1837.59 498.172 1837.82C497.703 1838.04 497.133 1838.15 496.463 1838.15C495.838 1838.15 495.297 1838.05 494.839 1837.85C494.385 1837.65 494.027 1837.37 493.765 1837.01C493.507 1836.65 493.36 1836.23 493.326 1835.75H494.417C494.446 1836.08 494.556 1836.35 494.75 1836.57C494.946 1836.78 495.193 1836.94 495.491 1837.05C495.792 1837.15 496.116 1837.2 496.463 1837.2C496.866 1837.2 497.228 1837.13 497.549 1837C497.87 1836.87 498.125 1836.68 498.312 1836.45C498.5 1836.21 498.593 1835.93 498.593 1835.61C498.593 1835.32 498.512 1835.09 498.35 1834.91C498.189 1834.72 497.975 1834.58 497.711 1834.46C497.447 1834.35 497.162 1834.25 496.855 1834.16L495.781 1833.86C495.099 1833.66 494.559 1833.38 494.162 1833.02C493.764 1832.65 493.565 1832.18 493.565 1831.59C493.565 1831.1 493.697 1830.68 493.961 1830.31C494.228 1829.95 494.586 1829.66 495.035 1829.46C495.487 1829.26 495.991 1829.15 496.548 1829.15C497.11 1829.15 497.61 1829.25 498.048 1829.46C498.485 1829.65 498.832 1829.93 499.088 1830.27C499.346 1830.62 499.483 1831.01 499.497 1831.45H498.474ZM509.501 1831.45C509.45 1831.02 509.243 1830.69 508.879 1830.45C508.516 1830.21 508.07 1830.09 507.541 1830.09C507.155 1830.09 506.817 1830.15 506.527 1830.28C506.24 1830.4 506.016 1830.58 505.854 1830.79C505.695 1831.01 505.615 1831.26 505.615 1831.54C505.615 1831.77 505.67 1831.97 505.781 1832.14C505.895 1832.31 506.04 1832.44 506.216 1832.55C506.392 1832.66 506.577 1832.75 506.77 1832.82C506.963 1832.89 507.141 1832.95 507.303 1832.99L508.189 1833.23C508.416 1833.29 508.669 1833.37 508.947 1833.47C509.229 1833.58 509.497 1833.72 509.753 1833.9C510.011 1834.08 510.224 1834.31 510.392 1834.6C510.56 1834.88 510.643 1835.22 510.643 1835.63C510.643 1836.1 510.52 1836.53 510.273 1836.91C510.028 1837.29 509.67 1837.59 509.199 1837.82C508.73 1838.04 508.161 1838.15 507.49 1838.15C506.865 1838.15 506.324 1838.05 505.866 1837.85C505.412 1837.65 505.054 1837.37 504.793 1837.01C504.534 1836.65 504.388 1836.23 504.354 1835.75H505.445C505.473 1836.08 505.584 1836.35 505.777 1836.57C505.973 1836.78 506.22 1836.94 506.518 1837.05C506.82 1837.15 507.143 1837.2 507.49 1837.2C507.893 1837.2 508.256 1837.13 508.577 1837C508.898 1836.87 509.152 1836.68 509.339 1836.45C509.527 1836.21 509.621 1835.93 509.621 1835.61C509.621 1835.32 509.54 1835.09 509.378 1834.91C509.216 1834.72 509.003 1834.58 508.739 1834.46C508.474 1834.35 508.189 1834.25 507.882 1834.16L506.808 1833.86C506.126 1833.66 505.587 1833.38 505.189 1833.02C504.791 1832.65 504.592 1832.18 504.592 1831.59C504.592 1831.1 504.724 1830.68 504.989 1830.31C505.256 1829.95 505.614 1829.66 506.062 1829.46C506.514 1829.26 507.018 1829.15 507.575 1829.15C508.138 1829.15 508.638 1829.25 509.075 1829.46C509.513 1829.65 509.859 1829.93 510.115 1830.27C510.374 1830.62 510.51 1831.01 510.524 1831.45H509.501ZM519.745 1833.64C519.745 1834.56 519.578 1835.35 519.246 1836.02C518.914 1836.69 518.458 1837.21 517.878 1837.57C517.299 1837.94 516.637 1838.12 515.892 1838.12C515.148 1838.12 514.486 1837.94 513.907 1837.57C513.327 1837.21 512.871 1836.69 512.539 1836.02C512.206 1835.35 512.04 1834.56 512.04 1833.64C512.04 1832.72 512.206 1831.92 512.539 1831.25C512.871 1830.58 513.327 1830.06 513.907 1829.7C514.486 1829.34 515.148 1829.15 515.892 1829.15C516.637 1829.15 517.299 1829.34 517.878 1829.7C518.458 1830.06 518.914 1830.58 519.246 1831.25C519.578 1831.92 519.745 1832.72 519.745 1833.64ZM518.722 1833.64C518.722 1832.88 518.596 1832.24 518.343 1831.72C518.093 1831.2 517.753 1830.81 517.324 1830.54C516.898 1830.28 516.421 1830.14 515.892 1830.14C515.364 1830.14 514.885 1830.28 514.456 1830.54C514.03 1830.81 513.691 1831.2 513.438 1831.72C513.188 1832.24 513.063 1832.88 513.063 1833.64C513.063 1834.39 513.188 1835.03 513.438 1835.55C513.691 1836.07 514.03 1836.46 514.456 1836.73C514.885 1837 515.364 1837.13 515.892 1837.13C516.421 1837.13 516.898 1837 517.324 1836.73C517.753 1836.46 518.093 1836.07 518.343 1835.55C518.596 1835.03 518.722 1834.39 518.722 1833.64ZM528.544 1832H527.488C527.425 1831.7 527.316 1831.43 527.159 1831.2C527.006 1830.97 526.819 1830.78 526.597 1830.62C526.378 1830.46 526.135 1830.34 525.868 1830.26C525.601 1830.18 525.323 1830.14 525.033 1830.14C524.505 1830.14 524.026 1830.28 523.597 1830.54C523.171 1830.81 522.831 1831.2 522.578 1831.72C522.328 1832.24 522.203 1832.88 522.203 1833.64C522.203 1834.39 522.328 1835.03 522.578 1835.55C522.831 1836.07 523.171 1836.46 523.597 1836.73C524.026 1837 524.505 1837.13 525.033 1837.13C525.323 1837.13 525.601 1837.09 525.868 1837.01C526.135 1836.93 526.378 1836.81 526.597 1836.66C526.819 1836.5 527.006 1836.3 527.159 1836.07C527.316 1835.84 527.425 1835.57 527.488 1835.27H528.544C528.465 1835.72 528.32 1836.12 528.11 1836.47C527.9 1836.82 527.638 1837.12 527.326 1837.37C527.013 1837.61 526.662 1837.8 526.273 1837.93C525.887 1838.06 525.473 1838.12 525.033 1838.12C524.289 1838.12 523.627 1837.94 523.047 1837.57C522.468 1837.21 522.012 1836.69 521.679 1836.02C521.347 1835.35 521.181 1834.56 521.181 1833.64C521.181 1832.72 521.347 1831.92 521.679 1831.25C522.012 1830.58 522.468 1830.06 523.047 1829.7C523.627 1829.34 524.289 1829.15 525.033 1829.15C525.473 1829.15 525.887 1829.22 526.273 1829.35C526.662 1829.47 527.013 1829.66 527.326 1829.91C527.638 1830.15 527.9 1830.45 528.11 1830.8C528.32 1831.15 528.465 1831.55 528.544 1832ZM531.309 1829.27V1838H530.252V1829.27H531.309ZM533.786 1838H532.678L535.882 1829.27H536.973L540.178 1838H539.07L536.462 1830.65H536.394L533.786 1838ZM534.195 1834.59H538.661V1835.53H534.195V1834.59ZM542.594 1829.27V1838H541.537V1829.27H542.594ZM549.486 1831.45C549.435 1831.02 549.227 1830.69 548.864 1830.45C548.5 1830.21 548.054 1830.09 547.526 1830.09C547.139 1830.09 546.801 1830.15 546.511 1830.28C546.224 1830.4 546 1830.58 545.838 1830.79C545.679 1831.01 545.599 1831.26 545.599 1831.54C545.599 1831.77 545.655 1831.97 545.766 1832.14C545.879 1832.31 546.024 1832.44 546.2 1832.55C546.376 1832.66 546.561 1832.75 546.754 1832.82C546.947 1832.89 547.125 1832.95 547.287 1832.99L548.173 1833.23C548.401 1833.29 548.653 1833.37 548.932 1833.47C549.213 1833.58 549.482 1833.72 549.737 1833.9C549.996 1834.08 550.209 1834.31 550.376 1834.6C550.544 1834.88 550.628 1835.22 550.628 1835.63C550.628 1836.1 550.504 1836.53 550.257 1836.91C550.013 1837.29 549.655 1837.59 549.183 1837.82C548.714 1838.04 548.145 1838.15 547.474 1838.15C546.849 1838.15 546.308 1838.05 545.851 1837.85C545.396 1837.65 545.038 1837.37 544.777 1837.01C544.518 1836.65 544.372 1836.23 544.338 1835.75H545.429C545.457 1836.08 545.568 1836.35 545.761 1836.57C545.957 1836.78 546.205 1836.94 546.503 1837.05C546.804 1837.15 547.128 1837.2 547.474 1837.2C547.878 1837.2 548.24 1837.13 548.561 1837C548.882 1836.87 549.136 1836.68 549.324 1836.45C549.511 1836.21 549.605 1835.93 549.605 1835.61C549.605 1835.32 549.524 1835.09 549.362 1834.91C549.2 1834.72 548.987 1834.58 548.723 1834.46C548.459 1834.35 548.173 1834.25 547.866 1834.16L546.793 1833.86C546.111 1833.66 545.571 1833.38 545.173 1833.02C544.776 1832.65 544.577 1832.18 544.577 1831.59C544.577 1831.1 544.709 1830.68 544.973 1830.31C545.24 1829.95 545.598 1829.66 546.047 1829.46C546.499 1829.26 547.003 1829.15 547.56 1829.15C548.122 1829.15 548.622 1829.25 549.06 1829.46C549.497 1829.65 549.844 1829.93 550.099 1830.27C550.358 1830.62 550.494 1831.01 550.509 1831.45H549.486Z" fill="white"/>
<rect x="463" y="1788" width="33" height="27" fill="#D9D9D9"/>
<rect x="517" y="1789" width="33" height="27" fill="#D9D9D9"/>
<line x1="467.667" y1="1813.63" x2="495.667" y2="1788.63" stroke="black"/>
<line x1="464.333" y1="1790.63" x2="492.333" y2="1815.63" stroke="black"/>
<line x1="547.686" y1="1813.39" x2="516.686" y2="1788.39" stroke="black"/>
<line x1="550.298" y1="1791.4" x2="519.298" y2="1814.4" stroke="black"/>
<line x1="117" y1="1790.5" x2="204.207" y2="1790.5" stroke="white"/>
<line x1="117" y1="1803.5" x2="204.207" y2="1803.5" stroke="white"/>
<line x1="117" y1="1815.5" x2="204.207" y2="1815.5" stroke="white"/>
<g filter="url(#filter0_f_0_1)">
<path d="M89 232H374V940H89V232Z" fill="#062867"/>
</g>
<rect x="116" y="673" width="113" height="39" fill="white"/>
<rect x="117" y="545" width="113" height="39" fill="white"/>
<rect x="116" y="606" width="113" height="39" fill="white"/>
<rect x="114" y="416" width="113" height="39" fill="white"/>
<rect x="117" y="482" width="113" height="39" fill="white"/>
<rect x="118" y="268" width="113" height="39" fill="white"/>
<line x1="119.858" y1="303.521" x2="230.858" y2="270.521" stroke="black"/>
<line x1="119.858" y1="303.521" x2="230.858" y2="270.521" stroke="black"/>
<rect x="117" y="342" width="113" height="39" fill="white"/>
<line x1="118.858" y1="376.521" x2="229.858" y2="343.521" stroke="black"/>
<line x1="119.858" y1="303.521" x2="230.858" y2="270.521" stroke="black"/>
<line x1="226.841" y1="381.474" x2="116.841" y2="344.474" stroke="black"/>
<line x1="120.159" y1="267.526" x2="230.159" y2="304.526" stroke="black"/>
<line x1="115.83" y1="455.53" x2="226.83" y2="415.53" stroke="black"/>
<line x1="112.157" y1="416.525" x2="227.157" y2="454.525" stroke="black"/>
<line x1="117.833" y1="521.529" x2="230.833" y2="481.529" stroke="black"/>
<line x1="118.164" y1="482.528" x2="230.164" y2="521.528" stroke="black"/>
<line x1="126.819" y1="584.534" x2="229.819" y2="544.534" stroke="black"/>
<line x1="121.177" y1="543.532" x2="227.177" y2="583.532" stroke="black"/>
<line x1="117.827" y1="646.531" x2="228.827" y2="605.531" stroke="black"/>
<line x1="117.157" y1="607.525" x2="229.157" y2="644.525" stroke="black"/>
<line x1="116.837" y1="711.527" x2="229.837" y2="672.527" stroke="black"/>
<line x1="116.162" y1="673.527" x2="227.162" y2="711.527" stroke="black"/>
</g>
<rect width="100" height="100" fill="white"/>
<defs>
<filter id="filter0_f_0_1" x="85" y="228" width="293" height="716" filterUnits="userSpaceOnUse" color-interpolation-filters="sRGB">
<feFlood flood-opacity="0" result="BackgroundImageFix"/>
<feBlend mode="normal" in="SourceGraphic" in2="BackgroundImageFix" result="shape"/>
<feGaussianBlur stdDeviation="2" result="effect1_foregroundBlur_0_1"/>
</filter>
<clipPath id="clip0_0_1">
<rect width="834" height="1626" fill="white" transform="translate(89 232)"/>
</clipPath>
</defs>
</svg>
