<svg width="1920" height="3106" viewBox="0 0 1920 3106" fill="none" xmlns="http://www.w3.org/2000/svg">
<rect width="1920" height="3106" fill="white"/>
<g clip-path="url(#clip0_0_1)">
<rect width="1920" height="3106" fill="#6F6F6F" fill-opacity="0.9"/>
<path d="M0 2897H1920V3106H0V2897Z" fill="#0C0C0C"/>
<rect y="-8" width="1920" height="118" fill="black"/>
<rect x="1752" y="32" width="57" height="53" fill="#D9D9D9"/>
<path d="M1760.97 66.2273C1759.94 66.2273 1759.06 65.9858 1758.32 65.5028C1757.59 65.0199 1757.02 64.3546 1756.62 63.5071C1756.22 62.6596 1756.02 61.6913 1756.02 60.6023C1756.02 59.4943 1756.23 58.5166 1756.63 57.669C1757.05 56.8168 1757.62 56.1515 1758.35 55.6733C1759.09 55.1903 1759.95 54.9489 1760.94 54.9489C1761.7 54.9489 1762.4 55.0909 1763.01 55.375C1763.63 55.6591 1764.13 56.0568 1764.52 56.5682C1764.92 57.0795 1765.16 57.6761 1765.26 58.358H1763.58C1763.45 57.8608 1763.17 57.4205 1762.73 57.0369C1762.29 56.6487 1761.7 56.4545 1760.97 56.4545C1760.31 56.4545 1759.74 56.625 1759.25 56.9659C1758.76 57.3021 1758.38 57.7779 1758.1 58.3935C1757.83 59.0043 1757.7 59.7216 1757.7 60.5455C1757.7 61.3883 1757.83 62.1222 1758.1 62.7472C1758.37 63.3722 1758.75 63.8575 1759.23 64.2031C1759.73 64.5488 1760.3 64.7216 1760.97 64.7216C1761.4 64.7216 1761.8 64.6458 1762.15 64.4943C1762.51 64.3428 1762.81 64.125 1763.05 63.8409C1763.3 63.5568 1763.48 63.2159 1763.58 62.8182H1765.26C1765.16 63.4621 1764.93 64.0421 1764.55 64.5582C1764.18 65.0696 1763.69 65.4768 1763.08 65.7798C1762.48 66.0781 1761.77 66.2273 1760.97 66.2273ZM1772.14 66.2273C1771.15 66.2273 1770.29 65.9929 1769.55 65.5241C1768.81 65.0554 1768.23 64.3996 1767.81 63.5568C1767.4 62.714 1767.19 61.7292 1767.19 60.6023C1767.19 59.4659 1767.4 58.474 1767.81 57.6264C1768.23 56.7789 1768.81 56.1207 1769.55 55.652C1770.29 55.1832 1771.15 54.9489 1772.14 54.9489C1773.12 54.9489 1773.98 55.1832 1774.72 55.652C1775.47 56.1207 1776.04 56.7789 1776.46 57.6264C1776.87 58.474 1777.08 59.4659 1777.08 60.6023C1777.08 61.7292 1776.87 62.714 1776.46 63.5568C1776.04 64.3996 1775.47 65.0554 1774.72 65.5241C1773.98 65.9929 1773.12 66.2273 1772.14 66.2273ZM1772.14 64.7216C1772.89 64.7216 1773.5 64.5298 1773.98 64.1463C1774.47 63.7628 1774.82 63.2585 1775.06 62.6335C1775.29 62.0085 1775.4 61.3314 1775.4 60.6023C1775.4 59.8731 1775.29 59.1937 1775.06 58.5639C1774.82 57.9342 1774.47 57.4252 1773.98 57.0369C1773.5 56.6487 1772.89 56.4545 1772.14 56.4545C1771.39 56.4545 1770.77 56.6487 1770.29 57.0369C1769.81 57.4252 1769.45 57.9342 1769.22 58.5639C1768.99 59.1937 1768.87 59.8731 1768.87 60.6023C1768.87 61.3314 1768.99 62.0085 1769.22 62.6335C1769.45 63.2585 1769.81 63.7628 1770.29 64.1463C1770.77 64.5298 1771.39 64.7216 1772.14 64.7216ZM1781.32 59.4375V66H1779.64V55.0909H1781.26V56.7955H1781.4C1781.66 56.2415 1782.04 55.7964 1782.57 55.4602C1783.09 55.1193 1783.76 54.9489 1784.58 54.9489C1785.32 54.9489 1785.97 55.1004 1786.52 55.4034C1787.08 55.7017 1787.51 56.1562 1787.81 56.767C1788.12 57.3731 1788.28 58.1402 1788.28 59.0682V66H1786.6V59.1818C1786.6 58.3248 1786.38 57.6572 1785.93 57.179C1785.49 56.696 1784.88 56.4545 1784.1 56.4545C1783.56 56.4545 1783.09 56.5705 1782.67 56.8026C1782.25 57.0346 1781.92 57.3731 1781.68 57.8182C1781.44 58.2633 1781.32 58.803 1781.32 59.4375ZM1796.08 55.0909V56.5114H1790.43V55.0909H1796.08ZM1792.08 52.4773H1793.75V62.875C1793.75 63.3485 1793.82 63.7036 1793.96 63.9403C1794.1 64.1723 1794.28 64.3286 1794.5 64.4091C1794.72 64.4848 1794.96 64.5227 1795.2 64.5227C1795.39 64.5227 1795.54 64.5133 1795.66 64.4943C1795.78 64.4706 1795.87 64.4517 1795.94 64.4375L1796.28 65.9432C1796.17 65.9858 1796.01 66.0284 1795.81 66.071C1795.6 66.1184 1795.34 66.142 1795.03 66.142C1794.56 66.142 1794.09 66.0402 1793.64 65.8366C1793.19 65.633 1792.82 65.3229 1792.52 64.9062C1792.22 64.4896 1792.08 63.964 1792.08 63.3295V52.4773ZM1801.81 66.2557C1801.12 66.2557 1800.5 66.1255 1799.93 65.8651C1799.37 65.5999 1798.92 65.2188 1798.59 64.7216C1798.26 64.2197 1798.09 63.6136 1798.09 62.9034C1798.09 62.2784 1798.22 61.7718 1798.46 61.3835C1798.71 60.9905 1799.04 60.6828 1799.45 60.4602C1799.86 60.2377 1800.32 60.072 1800.81 59.9631C1801.32 59.8494 1801.82 59.7595 1802.33 59.6932C1802.99 59.608 1803.53 59.544 1803.94 59.5014C1804.35 59.4541 1804.66 59.3759 1804.85 59.267C1805.04 59.1581 1805.14 58.9687 1805.14 58.6989V58.642C1805.14 57.9413 1804.95 57.3968 1804.56 57.0085C1804.18 56.6203 1803.61 56.4261 1802.84 56.4261C1802.04 56.4261 1801.41 56.6013 1800.96 56.9517C1800.5 57.3021 1800.18 57.6761 1800 58.0739L1798.41 57.5057C1798.69 56.8428 1799.07 56.3267 1799.54 55.9574C1800.02 55.5833 1800.54 55.3229 1801.1 55.1761C1801.67 55.0246 1802.23 54.9489 1802.78 54.9489C1803.13 54.9489 1803.53 54.9915 1803.99 55.0767C1804.45 55.1572 1804.89 55.3253 1805.32 55.581C1805.75 55.8366 1806.1 56.2225 1806.39 56.7386C1806.67 57.2547 1806.81 57.946 1806.81 58.8125V66H1805.14V64.5227H1805.05C1804.94 64.7595 1804.75 65.0128 1804.49 65.2827C1804.22 65.5526 1803.87 65.7822 1803.43 65.9716C1802.99 66.161 1802.45 66.2557 1801.81 66.2557ZM1802.07 64.75C1802.73 64.75 1803.29 64.6198 1803.75 64.3594C1804.21 64.099 1804.55 63.7628 1804.78 63.3509C1805.02 62.9389 1805.14 62.5057 1805.14 62.0511V60.517C1805.07 60.6023 1804.91 60.6804 1804.67 60.7514C1804.43 60.8177 1804.16 60.8769 1803.85 60.929C1803.54 60.9763 1803.24 61.0189 1802.94 61.0568C1802.66 61.09 1802.42 61.1184 1802.24 61.142C1801.81 61.1989 1801.4 61.2912 1801.02 61.419C1800.65 61.5421 1800.34 61.7292 1800.11 61.9801C1799.88 62.2263 1799.77 62.5625 1799.77 62.9886C1799.77 63.571 1799.98 64.0114 1800.42 64.3097C1800.85 64.6032 1801.4 64.75 1802.07 64.75Z" fill="black"/>
<path d="M658.534 51.0909V36.0909H660.153V37.8239H660.352C660.475 37.6345 660.646 37.393 660.864 37.0994C661.086 36.8011 661.403 36.536 661.815 36.304C662.232 36.0672 662.795 35.9489 663.506 35.9489C664.424 35.9489 665.234 36.1785 665.935 36.6378C666.635 37.0971 667.182 37.7481 667.575 38.5909C667.968 39.4337 668.165 40.428 668.165 41.5739C668.165 42.7292 667.968 43.7306 667.575 44.5781C667.182 45.4209 666.638 46.0743 665.942 46.5384C665.246 46.9976 664.443 47.2273 663.534 47.2273C662.833 47.2273 662.272 47.1113 661.851 46.8793C661.429 46.6425 661.105 46.375 660.878 46.0767C660.651 45.7737 660.475 45.5227 660.352 45.3239H660.21V51.0909H658.534ZM660.182 41.5455C660.182 42.3693 660.303 43.0961 660.544 43.7259C660.786 44.3509 661.138 44.8409 661.602 45.196C662.066 45.5464 662.634 45.7216 663.307 45.7216C664.008 45.7216 664.592 45.5369 665.061 45.1676C665.535 44.7936 665.89 44.2917 666.126 43.6619C666.368 43.0275 666.489 42.322 666.489 41.5455C666.489 40.7784 666.37 40.0871 666.134 39.4716C665.902 38.8513 665.549 38.3613 665.075 38.0014C664.607 37.6368 664.017 37.4545 663.307 37.4545C662.625 37.4545 662.052 37.6274 661.588 37.973C661.124 38.3139 660.774 38.7921 660.537 39.4077C660.3 40.0185 660.182 40.7311 660.182 41.5455ZM675.295 47.2273C674.244 47.2273 673.338 46.9953 672.575 46.5312C671.818 46.0625 671.233 45.4091 670.821 44.571C670.414 43.7282 670.21 42.7481 670.21 41.6307C670.21 40.5133 670.414 39.5284 670.821 38.6761C671.233 37.8191 671.806 37.1515 672.54 36.6733C673.278 36.1903 674.14 35.9489 675.125 35.9489C675.693 35.9489 676.254 36.0436 676.808 36.233C677.362 36.4223 677.866 36.7301 678.321 37.1562C678.776 37.5777 679.138 38.1364 679.408 38.8324C679.678 39.5284 679.812 40.3854 679.812 41.4034V42.1136H671.403V40.6648H678.108C678.108 40.0492 677.985 39.5 677.739 39.017C677.497 38.5341 677.152 38.1529 676.702 37.8736C676.257 37.5942 675.731 37.4545 675.125 37.4545C674.457 37.4545 673.88 37.6203 673.392 37.9517C672.909 38.2784 672.537 38.7045 672.277 39.2301C672.017 39.7557 671.886 40.3191 671.886 40.9205V41.8864C671.886 42.7102 672.028 43.4086 672.312 43.9815C672.601 44.5497 673.001 44.983 673.513 45.2812C674.024 45.5748 674.618 45.7216 675.295 45.7216C675.736 45.7216 676.134 45.66 676.489 45.5369C676.848 45.4091 677.159 45.2197 677.419 44.9688C677.679 44.7131 677.881 44.3958 678.023 44.017L679.642 44.4716C679.472 45.0208 679.185 45.5038 678.783 45.9205C678.38 46.3324 677.883 46.6544 677.291 46.8864C676.699 47.1136 676.034 47.2273 675.295 47.2273ZM690.089 38.5341L688.584 38.9602C688.489 38.7093 688.349 38.4654 688.165 38.2287C687.985 37.9872 687.739 37.7884 687.426 37.6321C687.114 37.4759 686.714 37.3977 686.226 37.3977C685.558 37.3977 685.002 37.5516 684.557 37.8594C684.116 38.1624 683.896 38.5483 683.896 39.017C683.896 39.4337 684.048 39.7628 684.351 40.0043C684.654 40.2457 685.127 40.447 685.771 40.608L687.391 41.0057C688.366 41.2424 689.093 41.6046 689.571 42.0923C690.049 42.5753 690.288 43.1979 690.288 43.9602C690.288 44.5852 690.108 45.1439 689.749 45.6364C689.393 46.1288 688.896 46.517 688.257 46.8011C687.618 47.0852 686.875 47.2273 686.027 47.2273C684.914 47.2273 683.993 46.9858 683.264 46.5028C682.535 46.0199 682.073 45.3144 681.879 44.3864L683.47 43.9886C683.622 44.5758 683.908 45.0161 684.33 45.3097C684.756 45.6032 685.312 45.75 685.999 45.75C686.78 45.75 687.4 45.5843 687.859 45.2528C688.323 44.9167 688.555 44.5142 688.555 44.0455C688.555 43.6667 688.423 43.3494 688.158 43.0938C687.893 42.8333 687.485 42.6392 686.936 42.5114L685.118 42.0852C684.119 41.8485 683.385 41.4815 682.916 40.9844C682.452 40.4825 682.22 39.8551 682.22 39.1023C682.22 38.4867 682.393 37.9422 682.739 37.4688C683.089 36.9953 683.565 36.6236 684.166 36.3537C684.772 36.0838 685.459 35.9489 686.226 35.9489C687.305 35.9489 688.153 36.1856 688.768 36.6591C689.389 37.1326 689.829 37.7576 690.089 38.5341ZM700.255 51.0909V45.3239H700.113C699.989 45.5227 699.814 45.7737 699.587 46.0767C699.36 46.375 699.035 46.6425 698.614 46.8793C698.193 47.1113 697.632 47.2273 696.931 47.2273C696.022 47.2273 695.219 46.9976 694.523 46.5384C693.827 46.0743 693.283 45.4209 692.89 44.5781C692.497 43.7306 692.3 42.7292 692.3 41.5739C692.3 40.428 692.497 39.4337 692.89 38.5909C693.283 37.7481 693.829 37.0971 694.53 36.6378C695.231 36.1785 696.041 35.9489 696.959 35.9489C697.669 35.9489 698.23 36.0672 698.642 36.304C699.059 36.536 699.376 36.8011 699.594 37.0994C699.817 37.393 699.989 37.6345 700.113 37.8239H700.311V36.0909H701.931V51.0909H700.255ZM697.158 45.7216C697.83 45.7216 698.399 45.5464 698.863 45.196C699.327 44.8409 699.679 44.3509 699.921 43.7259C700.162 43.0961 700.283 42.3693 700.283 41.5455C700.283 40.7311 700.165 40.0185 699.928 39.4077C699.691 38.7921 699.341 38.3139 698.877 37.973C698.413 37.6274 697.84 37.4545 697.158 37.4545C696.448 37.4545 695.856 37.6368 695.382 38.0014C694.914 38.3613 694.561 38.8513 694.324 39.4716C694.092 40.0871 693.976 40.7784 693.976 41.5455C693.976 42.322 694.095 43.0275 694.331 43.6619C694.573 44.2917 694.928 44.7936 695.397 45.1676C695.87 45.5369 696.457 45.7216 697.158 45.7216ZM711.874 42.5398V36.0909H713.55V47H711.874V45.1534H711.76C711.505 45.7074 711.107 46.1785 710.567 46.5668C710.027 46.9503 709.346 47.142 708.522 47.142C707.84 47.142 707.234 46.9929 706.703 46.6946C706.173 46.3916 705.757 45.937 705.453 45.331C705.15 44.7202 704.999 43.9508 704.999 43.0227V36.0909H706.675V42.9091C706.675 43.7045 706.898 44.339 707.343 44.8125C707.792 45.286 708.365 45.5227 709.061 45.5227C709.478 45.5227 709.902 45.4162 710.333 45.2031C710.768 44.9901 711.133 44.6634 711.426 44.223C711.725 43.7827 711.874 43.2216 711.874 42.5398ZM716.62 47V36.0909H718.296V47H716.62ZM717.472 34.2727C717.146 34.2727 716.864 34.1615 716.627 33.9389C716.395 33.7164 716.279 33.4489 716.279 33.1364C716.279 32.8239 716.395 32.5563 716.627 32.3338C716.864 32.1113 717.146 32 717.472 32C717.799 32 718.078 32.1113 718.31 32.3338C718.547 32.5563 718.665 32.8239 718.665 33.1364C718.665 33.4489 718.547 33.7164 718.31 33.9389C718.078 34.1615 717.799 34.2727 717.472 34.2727ZM729.093 38.5341L727.588 38.9602C727.493 38.7093 727.353 38.4654 727.169 38.2287C726.989 37.9872 726.743 37.7884 726.43 37.6321C726.118 37.4759 725.717 37.3977 725.23 37.3977C724.562 37.3977 724.006 37.5516 723.561 37.8594C723.12 38.1624 722.9 38.5483 722.9 39.017C722.9 39.4337 723.052 39.7628 723.355 40.0043C723.658 40.2457 724.131 40.447 724.775 40.608L726.395 41.0057C727.37 41.2424 728.097 41.6046 728.575 42.0923C729.053 42.5753 729.292 43.1979 729.292 43.9602C729.292 44.5852 729.112 45.1439 728.752 45.6364C728.397 46.1288 727.9 46.517 727.261 46.8011C726.622 47.0852 725.878 47.2273 725.031 47.2273C723.918 47.2273 722.997 46.9858 722.268 46.5028C721.539 46.0199 721.077 45.3144 720.883 44.3864L722.474 43.9886C722.626 44.5758 722.912 45.0161 723.333 45.3097C723.76 45.6032 724.316 45.75 725.002 45.75C725.784 45.75 726.404 45.5843 726.863 45.2528C727.327 44.9167 727.559 44.5142 727.559 44.0455C727.559 43.6667 727.427 43.3494 727.162 43.0938C726.896 42.8333 726.489 42.6392 725.94 42.5114L724.122 42.0852C723.123 41.8485 722.389 41.4815 721.92 40.9844C721.456 40.4825 721.224 39.8551 721.224 39.1023C721.224 38.4867 721.397 37.9422 721.743 37.4688C722.093 36.9953 722.569 36.6236 723.17 36.3537C723.776 36.0838 724.463 35.9489 725.23 35.9489C726.309 35.9489 727.157 36.1856 727.772 36.6591C728.393 37.1326 728.833 37.7576 729.093 38.5341ZM735.026 47.2557C734.334 47.2557 733.707 47.1255 733.143 46.8651C732.58 46.5999 732.133 46.2188 731.801 45.7216C731.47 45.2197 731.304 44.6136 731.304 43.9034C731.304 43.2784 731.427 42.7718 731.673 42.3835C731.92 41.9905 732.249 41.6828 732.661 41.4602C733.072 41.2377 733.527 41.072 734.024 40.9631C734.526 40.8494 735.03 40.7595 735.537 40.6932C736.2 40.608 736.737 40.544 737.149 40.5014C737.566 40.4541 737.869 40.3759 738.058 40.267C738.252 40.1581 738.349 39.9687 738.349 39.6989V39.642C738.349 38.9413 738.158 38.3968 737.774 38.0085C737.395 37.6203 736.82 37.4261 736.048 37.4261C735.248 37.4261 734.621 37.6013 734.166 37.9517C733.712 38.3021 733.392 38.6761 733.207 39.0739L731.616 38.5057C731.901 37.8428 732.279 37.3267 732.753 36.9574C733.231 36.5833 733.752 36.3229 734.315 36.1761C734.884 36.0246 735.442 35.9489 735.991 35.9489C736.342 35.9489 736.744 35.9915 737.199 36.0767C737.658 36.1572 738.101 36.3253 738.527 36.581C738.958 36.8366 739.315 37.2225 739.599 37.7386C739.884 38.2547 740.026 38.946 740.026 39.8125V47H738.349V45.5227H738.264C738.151 45.7595 737.961 46.0128 737.696 46.2827C737.431 46.5526 737.078 46.7822 736.638 46.9716C736.197 47.161 735.66 47.2557 735.026 47.2557ZM735.281 45.75C735.944 45.75 736.503 45.6198 736.957 45.3594C737.417 45.099 737.762 44.7628 737.994 44.3509C738.231 43.9389 738.349 43.5057 738.349 43.0511V41.517C738.278 41.6023 738.122 41.6804 737.881 41.7514C737.644 41.8177 737.369 41.8769 737.057 41.929C736.749 41.9763 736.448 42.0189 736.155 42.0568C735.866 42.09 735.632 42.1184 735.452 42.142C735.016 42.1989 734.609 42.2912 734.23 42.419C733.856 42.5421 733.553 42.7292 733.321 42.9801C733.094 43.2263 732.98 43.5625 732.98 43.9886C732.98 44.571 733.196 45.0114 733.626 45.3097C734.062 45.6032 734.614 45.75 735.281 45.75Z" fill="white"/>
<rect x="266" y="110" width="1388" height="67" fill="#646464"/>
<rect x="428" y="122" width="98" height="43" fill="white"/>
<rect x="1394" y="122" width="98" height="43" fill="white"/>
<rect x="1233" y="122" width="98" height="43" fill="white"/>
<rect x="589" y="122" width="98" height="43" fill="white"/>
<rect x="750" y="122" width="98" height="43" fill="white"/>
<rect x="911" y="122" width="98" height="43" fill="white"/>
<rect x="1072" y="122" width="98" height="43" fill="white"/>
<rect y="177" width="1920" height="468" fill="#D9D9D9"/>
<path d="M187 701C187 695.477 191.477 691 197 691H935V1191H197C191.477 1191 187 1186.52 187 1181V701Z" fill="#D9D9D9"/>
<path d="M984 691H1722C1727.52 691 1732 695.477 1732 701V1181C1732 1186.52 1727.52 1191 1722 1191H984V691Z" fill="#D9D9D9"/>
<rect x="61" y="36" width="151" height="45" fill="#D9D9D9"/>
<line x1="628.001" y1="57.5" x2="1063" y2="58.5" stroke="#F0F8FF"/>
<rect x="1664" y="31" width="57" height="53" fill="#D9D9D9"/>
<path d="M1659.97 66.2273C1658.94 66.2273 1658.06 65.9858 1657.32 65.5028C1656.59 65.0199 1656.02 64.3546 1655.62 63.5071C1655.22 62.6596 1655.02 61.6913 1655.02 60.6023C1655.02 59.4943 1655.23 58.5166 1655.63 57.669C1656.05 56.8168 1656.62 56.1515 1657.35 55.6733C1658.09 55.1903 1658.95 54.9489 1659.94 54.9489C1660.7 54.9489 1661.4 55.0909 1662.01 55.375C1662.63 55.6591 1663.13 56.0568 1663.52 56.5682C1663.92 57.0795 1664.16 57.6761 1664.26 58.358H1662.58C1662.45 57.8608 1662.17 57.4205 1661.73 57.0369C1661.29 56.6487 1660.7 56.4545 1659.97 56.4545C1659.31 56.4545 1658.74 56.625 1658.25 56.9659C1657.76 57.3021 1657.38 57.7779 1657.1 58.3935C1656.83 59.0043 1656.7 59.7216 1656.7 60.5455C1656.7 61.3883 1656.83 62.1222 1657.1 62.7472C1657.37 63.3722 1657.75 63.8575 1658.23 64.2031C1658.73 64.5488 1659.3 64.7216 1659.97 64.7216C1660.4 64.7216 1660.8 64.6458 1661.15 64.4943C1661.51 64.3428 1661.81 64.125 1662.05 63.8409C1662.3 63.5568 1662.48 63.2159 1662.58 62.8182H1664.26C1664.16 63.4621 1663.93 64.0421 1663.55 64.5582C1663.18 65.0696 1662.69 65.4768 1662.08 65.7798C1661.48 66.0781 1660.77 66.2273 1659.97 66.2273ZM1669.92 66.2557C1669.22 66.2557 1668.6 66.1255 1668.03 65.8651C1667.47 65.5999 1667.02 65.2188 1666.69 64.7216C1666.36 64.2197 1666.19 63.6136 1666.19 62.9034C1666.19 62.2784 1666.32 61.7718 1666.56 61.3835C1666.81 60.9905 1667.14 60.6828 1667.55 60.4602C1667.96 60.2377 1668.42 60.072 1668.91 59.9631C1669.42 59.8494 1669.92 59.7595 1670.43 59.6932C1671.09 59.608 1671.63 59.544 1672.04 59.5014C1672.46 59.4541 1672.76 59.3759 1672.95 59.267C1673.14 59.1581 1673.24 58.9687 1673.24 58.6989V58.642C1673.24 57.9413 1673.05 57.3968 1672.66 57.0085C1672.29 56.6203 1671.71 56.4261 1670.94 56.4261C1670.14 56.4261 1669.51 56.6013 1669.06 56.9517C1668.6 57.3021 1668.28 57.6761 1668.1 58.0739L1666.51 57.5057C1666.79 56.8428 1667.17 56.3267 1667.64 55.9574C1668.12 55.5833 1668.64 55.3229 1669.21 55.1761C1669.77 55.0246 1670.33 54.9489 1670.88 54.9489C1671.23 54.9489 1671.63 54.9915 1672.09 55.0767C1672.55 55.1572 1672.99 55.3253 1673.42 55.581C1673.85 55.8366 1674.21 56.2225 1674.49 56.7386C1674.77 57.2547 1674.92 57.946 1674.92 58.8125V66H1673.24V64.5227H1673.15C1673.04 64.7595 1672.85 65.0128 1672.59 65.2827C1672.32 65.5526 1671.97 65.7822 1671.53 65.9716C1671.09 66.161 1670.55 66.2557 1669.92 66.2557ZM1670.17 64.75C1670.83 64.75 1671.39 64.6198 1671.85 64.3594C1672.31 64.099 1672.65 63.7628 1672.88 63.3509C1673.12 62.9389 1673.24 62.5057 1673.24 62.0511V60.517C1673.17 60.6023 1673.01 60.6804 1672.77 60.7514C1672.53 60.8177 1672.26 60.8769 1671.95 60.929C1671.64 60.9763 1671.34 61.0189 1671.05 61.0568C1670.76 61.09 1670.52 61.1184 1670.34 61.142C1669.91 61.1989 1669.5 61.2912 1669.12 61.419C1668.75 61.5421 1668.44 61.7292 1668.21 61.9801C1667.98 62.2263 1667.87 62.5625 1667.87 62.9886C1667.87 63.571 1668.09 64.0114 1668.52 64.3097C1668.95 64.6032 1669.5 64.75 1670.17 64.75ZM1677.98 66V55.0909H1679.59V56.7386H1679.71C1679.91 56.1989 1680.27 55.7609 1680.79 55.4247C1681.31 55.0885 1681.9 54.9205 1682.55 54.9205C1682.67 54.9205 1682.83 54.9228 1683.01 54.9276C1683.2 54.9323 1683.34 54.9394 1683.43 54.9489V56.6534C1683.37 56.6392 1683.24 56.6179 1683.04 56.5895C1682.84 56.5563 1682.63 56.5398 1682.41 56.5398C1681.88 56.5398 1681.4 56.651 1680.99 56.8736C1680.57 57.0914 1680.25 57.3944 1680.01 57.7827C1679.77 58.1662 1679.65 58.6042 1679.65 59.0966V66H1677.98ZM1685.42 66V55.0909H1687.04V56.7386H1687.15C1687.35 56.1989 1687.71 55.7609 1688.23 55.4247C1688.75 55.0885 1689.34 54.9205 1689.99 54.9205C1690.11 54.9205 1690.27 54.9228 1690.45 54.9276C1690.64 54.9323 1690.78 54.9394 1690.87 54.9489V56.6534C1690.81 56.6392 1690.68 56.6179 1690.48 56.5895C1690.28 56.5563 1690.07 56.5398 1689.85 56.5398C1689.32 56.5398 1688.84 56.651 1688.43 56.8736C1688.02 57.0914 1687.69 57.3944 1687.45 57.7827C1687.21 58.1662 1687.09 58.6042 1687.09 59.0966V66H1685.42ZM1692.86 66V55.0909H1694.53V66H1692.86ZM1693.71 53.2727C1693.38 53.2727 1693.1 53.1615 1692.87 52.9389C1692.63 52.7164 1692.52 52.4489 1692.52 52.1364C1692.52 51.8239 1692.63 51.5563 1692.87 51.3338C1693.1 51.1113 1693.38 51 1693.71 51C1694.04 51 1694.32 51.1113 1694.55 51.3338C1694.79 51.5563 1694.9 51.8239 1694.9 52.1364C1694.9 52.4489 1694.79 52.7164 1694.55 52.9389C1694.32 53.1615 1694.04 53.2727 1693.71 53.2727ZM1699.28 59.4375V66H1697.6V55.0909H1699.22V56.7955H1699.37C1699.62 56.2415 1700.01 55.7964 1700.53 55.4602C1701.05 55.1193 1701.72 54.9489 1702.55 54.9489C1703.29 54.9489 1703.93 55.1004 1704.49 55.4034C1705.04 55.7017 1705.47 56.1562 1705.78 56.767C1706.09 57.3731 1706.24 58.1402 1706.24 59.0682V66H1704.56V59.1818C1704.56 58.3248 1704.34 57.6572 1703.9 57.179C1703.45 56.696 1702.84 56.4545 1702.06 56.4545C1701.53 56.4545 1701.05 56.5705 1700.63 56.8026C1700.21 57.0346 1699.88 57.3731 1699.64 57.8182C1699.4 58.2633 1699.28 58.803 1699.28 59.4375ZM1710.98 59.4375V66H1709.3V51.4545H1710.98V56.7955H1711.12C1711.38 56.232 1711.76 55.7846 1712.27 55.4531C1712.79 55.117 1713.48 54.9489 1714.33 54.9489C1715.08 54.9489 1715.73 55.098 1716.29 55.3963C1716.84 55.6899 1717.28 56.142 1717.58 56.7528C1717.9 57.3589 1718.05 58.1307 1718.05 59.0682V66H1716.38V59.1818C1716.38 58.3153 1716.15 57.6454 1715.7 57.1719C1715.26 56.6937 1714.64 56.4545 1713.85 56.4545C1713.3 56.4545 1712.81 56.5705 1712.37 56.8026C1711.94 57.0346 1711.6 57.3731 1711.35 57.8182C1711.1 58.2633 1710.98 58.803 1710.98 59.4375ZM1725.55 66.2273C1724.57 66.2273 1723.7 65.9929 1722.96 65.5241C1722.22 65.0554 1721.64 64.3996 1721.23 63.5568C1720.81 62.714 1720.61 61.7292 1720.61 60.6023C1720.61 59.4659 1720.81 58.474 1721.23 57.6264C1721.64 56.7789 1722.22 56.1207 1722.96 55.652C1723.7 55.1832 1724.57 54.9489 1725.55 54.9489C1726.54 54.9489 1727.4 55.1832 1728.14 55.652C1728.88 56.1207 1729.46 56.7789 1729.87 57.6264C1730.29 58.474 1730.5 59.4659 1730.5 60.6023C1730.5 61.7292 1730.29 62.714 1729.87 63.5568C1729.46 64.3996 1728.88 65.0554 1728.14 65.5241C1727.4 65.9929 1726.54 66.2273 1725.55 66.2273ZM1725.55 64.7216C1726.3 64.7216 1726.92 64.5298 1727.4 64.1463C1727.88 63.7628 1728.24 63.2585 1728.47 62.6335C1728.7 62.0085 1728.82 61.3314 1728.82 60.6023C1728.82 59.8731 1728.7 59.1937 1728.47 58.5639C1728.24 57.9342 1727.88 57.4252 1727.4 57.0369C1726.92 56.6487 1726.3 56.4545 1725.55 56.4545C1724.8 56.4545 1724.19 56.6487 1723.71 57.0369C1723.22 57.4252 1722.86 57.9342 1722.63 58.5639C1722.4 59.1937 1722.28 59.8731 1722.28 60.6023C1722.28 61.3314 1722.4 62.0085 1722.63 62.6335C1722.86 63.2585 1723.22 63.7628 1723.71 64.1463C1724.19 64.5298 1724.8 64.7216 1725.55 64.7216Z" fill="black"/>
<path d="M109.21 51.4545V66H107.534V51.4545H109.21ZM116.712 66.2273C115.727 66.2273 114.863 65.9929 114.12 65.5241C113.381 65.0554 112.803 64.3996 112.387 63.5568C111.975 62.714 111.769 61.7292 111.769 60.6023C111.769 59.4659 111.975 58.474 112.387 57.6264C112.803 56.7789 113.381 56.1207 114.12 55.652C114.863 55.1832 115.727 54.9489 116.712 54.9489C117.697 54.9489 118.559 55.1832 119.297 55.652C120.041 56.1207 120.618 56.7789 121.03 57.6264C121.447 58.474 121.655 59.4659 121.655 60.6023C121.655 61.7292 121.447 62.714 121.03 63.5568C120.618 64.3996 120.041 65.0554 119.297 65.5241C118.559 65.9929 117.697 66.2273 116.712 66.2273ZM116.712 64.7216C117.46 64.7216 118.076 64.5298 118.559 64.1463C119.042 63.7628 119.399 63.2585 119.631 62.6335C119.863 62.0085 119.979 61.3314 119.979 60.6023C119.979 59.8731 119.863 59.1937 119.631 58.5639C119.399 57.9342 119.042 57.4252 118.559 57.0369C118.076 56.6487 117.46 56.4545 116.712 56.4545C115.964 56.4545 115.348 56.6487 114.865 57.0369C114.382 57.4252 114.025 57.9342 113.793 58.5639C113.561 59.1937 113.445 59.8731 113.445 60.6023C113.445 61.3314 113.561 62.0085 113.793 62.6335C114.025 63.2585 114.382 63.7628 114.865 64.1463C115.348 64.5298 115.964 64.7216 116.712 64.7216ZM128.617 70.3182C127.808 70.3182 127.112 70.214 126.529 70.0057C125.947 69.8021 125.461 69.5322 125.073 69.196C124.69 68.8646 124.384 68.5095 124.157 68.1307L125.492 67.1932C125.644 67.392 125.835 67.6193 126.067 67.875C126.299 68.1354 126.617 68.3603 127.019 68.5497C127.426 68.7438 127.959 68.8409 128.617 68.8409C129.498 68.8409 130.225 68.6278 130.798 68.2017C131.371 67.7756 131.657 67.108 131.657 66.1989V63.983H131.515C131.392 64.1818 131.217 64.428 130.989 64.7216C130.767 65.0104 130.445 65.2685 130.023 65.4957C129.607 65.7183 129.043 65.8295 128.333 65.8295C127.452 65.8295 126.662 65.6212 125.961 65.2045C125.265 64.7879 124.713 64.1818 124.306 63.3864C123.904 62.5909 123.702 61.625 123.702 60.4886C123.702 59.3712 123.899 58.3982 124.292 57.5696C124.685 56.7363 125.232 56.0923 125.933 55.6378C126.633 55.1785 127.443 54.9489 128.362 54.9489C129.072 54.9489 129.635 55.0672 130.052 55.304C130.473 55.536 130.795 55.8011 131.018 56.0994C131.245 56.393 131.42 56.6345 131.543 56.8239H131.714V55.0909H133.333V66.3125C133.333 67.25 133.12 68.0123 132.694 68.5994C132.272 69.1913 131.704 69.6245 130.989 69.8991C130.279 70.1785 129.488 70.3182 128.617 70.3182ZM128.56 64.3239C129.233 64.3239 129.801 64.17 130.265 63.8622C130.729 63.5545 131.082 63.1117 131.323 62.5341C131.565 61.9564 131.685 61.2652 131.685 60.4602C131.685 59.6742 131.567 58.9806 131.33 58.3793C131.094 57.7779 130.743 57.3068 130.279 56.9659C129.815 56.625 129.242 56.4545 128.56 56.4545C127.85 56.4545 127.258 56.6345 126.785 56.9943C126.316 57.3542 125.963 57.8371 125.727 58.4432C125.495 59.0492 125.379 59.7216 125.379 60.4602C125.379 61.2178 125.497 61.8878 125.734 62.4702C125.975 63.0478 126.33 63.5024 126.799 63.8338C127.272 64.1605 127.86 64.3239 128.56 64.3239ZM140.833 66.2273C139.848 66.2273 138.984 65.9929 138.241 65.5241C137.502 65.0554 136.924 64.3996 136.508 63.5568C136.096 62.714 135.89 61.7292 135.89 60.6023C135.89 59.4659 136.096 58.474 136.508 57.6264C136.924 56.7789 137.502 56.1207 138.241 55.652C138.984 55.1832 139.848 54.9489 140.833 54.9489C141.818 54.9489 142.68 55.1832 143.418 55.652C144.162 56.1207 144.739 56.7789 145.151 57.6264C145.568 58.474 145.776 59.4659 145.776 60.6023C145.776 61.7292 145.568 62.714 145.151 63.5568C144.739 64.3996 144.162 65.0554 143.418 65.5241C142.68 65.9929 141.818 66.2273 140.833 66.2273ZM140.833 64.7216C141.581 64.7216 142.197 64.5298 142.68 64.1463C143.163 63.7628 143.52 63.2585 143.752 62.6335C143.984 62.0085 144.1 61.3314 144.1 60.6023C144.1 59.8731 143.984 59.1937 143.752 58.5639C143.52 57.9342 143.163 57.4252 142.68 57.0369C142.197 56.6487 141.581 56.4545 140.833 56.4545C140.085 56.4545 139.469 56.6487 138.987 57.0369C138.504 57.4252 138.146 57.9342 137.914 58.5639C137.682 59.1937 137.566 59.8731 137.566 60.6023C137.566 61.3314 137.682 62.0085 137.914 62.6335C138.146 63.2585 138.504 63.7628 138.987 64.1463C139.469 64.5298 140.085 64.7216 140.833 64.7216Z" fill="black"/>
<rect x="180" y="1237" width="487" height="501" rx="10" fill="#D9D9D9"/>
<rect x="1238" y="1237" width="487" height="501" rx="10" fill="#D9D9D9"/>
<rect x="709" y="1237" width="487" height="501" rx="10" fill="#D9D9D9"/>
<path d="M45 1787C45 1781.48 49.4772 1777 55 1777H1865C1870.52 1777 1875 1781.48 1875 1787V2032C1875 2037.52 1870.52 2042 1865 2042H55C49.4772 2042 45 2037.52 45 2032V1787Z" fill="#D9D9D9"/>
<line x1="-0.117452" y1="640.514" x2="1919.88" y2="176.514" stroke="black"/>
<line x1="0.118169" y1="173.514" x2="1920.12" y2="640.514" stroke="black"/>
<line x1="183.726" y1="1181.58" x2="934.726" y2="690.581" stroke="black"/>
<line x1="188.279" y1="689.585" x2="935.279" y2="1190.58" stroke="black"/>
<line x1="980.277" y1="689.584" x2="1732.28" y2="1190.58" stroke="black"/>
<line x1="983.728" y1="1181.58" x2="1731.73" y2="696.58" stroke="black"/>
<line x1="182.64" y1="1728.65" x2="656.64" y2="1236.65" stroke="black"/>
<line x1="175.355" y1="1233.65" x2="667.355" y2="1728.65" stroke="black"/>
<line x1="702.651" y1="1728.64" x2="1195.65" y2="1247.64" stroke="black"/>
<line x1="707.358" y1="1235.65" x2="1196.36" y2="1737.65" stroke="black"/>
<line x1="1236.36" y1="1239.65" x2="1725.36" y2="1737.65" stroke="black"/>
<line x1="1239.64" y1="1729.65" x2="1724.64" y2="1239.65" stroke="black"/>
<line x1="44.931" y1="2038.5" x2="1874.93" y2="1783.5" stroke="black"/>
<line x1="45.069" y1="1783.5" x2="1875.07" y2="2038.5" stroke="black"/>
<line x1="430.184" y1="126.535" x2="526.184" y2="164.535" stroke="black"/>
<line x1="522.208" y1="123.455" x2="430.208" y2="165.455" stroke="black"/>
<line x1="591.823" y1="162.532" x2="686.823" y2="126.532" stroke="black"/>
<line x1="586.2" y1="118.542" x2="687.2" y2="162.542" stroke="black"/>
<line x1="752.206" y1="120.544" x2="845.206" y2="162.544" stroke="black"/>
<line x1="840.211" y1="123.453" x2="750.211" y2="165.453" stroke="black"/>
<line x1="917.825" y1="160.532" x2="1008.83" y2="126.532" stroke="black"/>
<line x1="918.193" y1="122.539" x2="1009.19" y2="160.539" stroke="black"/>
<line x1="1070.19" y1="124.536" x2="1170.19" y2="164.536" stroke="black"/>
<line x1="1079.8" y1="164.543" x2="1169.8" y2="124.543" stroke="black"/>
<line x1="1231.84" y1="160.527" x2="1330.84" y2="126.527" stroke="black"/>
<line x1="1323.82" y1="161.465" x2="1237.82" y2="127.465" stroke="black"/>
<line x1="1397.83" y1="160.53" x2="1491.83" y2="126.53" stroke="black"/>
<line x1="1398.2" y1="120.543" x2="1492.2" y2="162.543" stroke="black"/>
<rect x="168" y="2087" width="354" height="778" fill="#D9D9D9"/>
<rect x="580" y="2087" width="354" height="778" fill="#D9D9D9"/>
<rect x="992" y="2087" width="354" height="778" fill="#D9D9D9"/>
<rect x="1404" y="2087" width="354" height="778" fill="#D9D9D9"/>
<line y1="-0.5" x2="277.803" y2="-0.5" transform="matrix(1 9.22769e-05 -0.000102178 1 723.606 2945.97)" stroke="white"/>
<path d="M723.592 2997.47L1000.88 2997.47" stroke="white"/>
<line y1="-0.5" x2="249.399" y2="-0.5" transform="matrix(-0.999968 0.00801927 -0.00887968 -0.999961 417.391 2996)" stroke="white"/>
<line y1="-0.5" x2="249.399" y2="-0.5" transform="matrix(-0.999968 0.00801927 -0.00887968 -0.999961 417.391 2971)" stroke="white"/>
<line y1="-0.5" x2="249.399" y2="-0.5" transform="matrix(-0.999968 0.00801927 -0.00887968 -0.999961 417.391 2946)" stroke="white"/>
<line y1="-0.5" x2="277.803" y2="-0.5" transform="matrix(1 9.22769e-05 -0.000102178 1 723.606 2970.97)" stroke="white"/>
<rect x="1591" y="2933" width="60" height="41" fill="white"/>
<rect x="1685" y="2933" width="51" height="40" fill="white"/>
<path d="M1580.76 3006V2991.45H1585.68C1586.81 2991.45 1587.75 2991.65 1588.47 2992.04C1589.2 2992.42 1589.74 2992.95 1590.09 2993.62C1590.44 2994.29 1590.62 2995.06 1590.62 2995.91C1590.62 2996.77 1590.44 2997.53 1590.09 2998.19C1589.74 2998.86 1589.21 2999.38 1588.48 2999.76C1587.76 3000.13 1586.83 3000.32 1585.7 3000.32H1581.73V2998.73H1585.65C1586.42 2998.73 1587.05 2998.61 1587.52 2998.39C1588 2998.16 1588.35 2997.84 1588.56 2997.42C1588.78 2997 1588.89 2996.5 1588.89 2995.91C1588.89 2995.33 1588.78 2994.82 1588.56 2994.39C1588.34 2993.95 1587.99 2993.62 1587.52 2993.38C1587.04 2993.14 1586.41 2993.02 1585.62 2993.02H1582.52V3006H1580.76ZM1587.61 2999.47L1591.19 3006H1589.14L1585.62 2999.47H1587.61ZM1593.55 3006V2991.45H1602.33V2993.02H1595.32V2997.93H1601.88V2999.49H1595.32V3004.44H1602.45V3006H1593.55ZM1610 3006H1605.51V2991.45H1610.19C1611.61 2991.45 1612.81 2991.75 1613.82 2992.33C1614.82 2992.91 1615.59 2993.74 1616.13 2994.82C1616.66 2995.9 1616.93 2997.19 1616.93 2998.7C1616.93 3000.21 1616.66 3001.52 1616.12 3002.61C1615.58 3003.7 1614.79 3004.54 1613.76 3005.13C1612.73 3005.71 1611.47 3006 1610 3006ZM1607.27 3004.44H1609.88C1611.09 3004.44 1612.08 3004.21 1612.87 3003.74C1613.66 3003.28 1614.25 3002.62 1614.64 3001.76C1615.03 3000.9 1615.22 2999.88 1615.22 2998.7C1615.22 2997.52 1615.03 2996.51 1614.65 2995.67C1614.26 2994.81 1613.69 2994.16 1612.93 2993.71C1612.17 2993.25 1611.22 2993.02 1610.08 2993.02H1607.27V3004.44ZM1619.88 3006V2991.45H1628.66V2993.02H1621.64V2997.93H1628.21V2999.49H1621.64V3004.44H1628.77V3006H1619.88ZM1639.79 2995.09C1639.7 2994.37 1639.36 2993.81 1638.75 2993.41C1638.15 2993.02 1637.4 2992.82 1636.52 2992.82C1635.88 2992.82 1635.32 2992.92 1634.83 2993.13C1634.35 2993.34 1633.98 2993.63 1633.71 2993.99C1633.45 2994.35 1633.31 2994.77 1633.31 2995.23C1633.31 2995.62 1633.41 2995.96 1633.59 2996.23C1633.78 2996.51 1634.02 2996.74 1634.31 2996.92C1634.61 2997.1 1634.92 2997.25 1635.24 2997.37C1635.56 2997.48 1635.86 2997.58 1636.13 2997.65L1637.6 2998.05C1637.98 2998.14 1638.4 2998.28 1638.87 2998.46C1639.34 2998.63 1639.78 2998.87 1640.21 2999.17C1640.64 2999.47 1641 2999.86 1641.27 3000.33C1641.55 3000.79 1641.69 3001.37 1641.69 3002.05C1641.69 3002.84 1641.49 3003.55 1641.08 3004.18C1640.67 3004.82 1640.07 3005.32 1639.29 3005.69C1638.5 3006.07 1637.56 3006.26 1636.44 3006.26C1635.4 3006.26 1634.49 3006.09 1633.73 3005.75C1632.97 3005.42 1632.38 3004.95 1631.94 3004.35C1631.51 3003.74 1631.27 3003.05 1631.21 3002.25H1633.03C1633.08 3002.8 1633.26 3003.25 1633.58 3003.61C1633.91 3003.97 1634.32 3004.23 1634.82 3004.41C1635.32 3004.58 1635.86 3004.66 1636.44 3004.66C1637.11 3004.66 1637.71 3004.56 1638.25 3004.34C1638.78 3004.12 1639.21 3003.81 1639.52 3003.41C1639.83 3003.02 1639.99 3002.55 1639.99 3002.02C1639.99 3001.54 1639.85 3001.15 1639.58 3000.84C1639.31 3000.54 1638.96 3000.29 1638.52 3000.11C1638.08 2999.92 1637.6 2999.75 1637.09 2999.61L1635.3 2999.1C1634.17 2998.77 1633.27 2998.3 1632.6 2997.7C1631.94 2997.09 1631.61 2996.3 1631.61 2995.32C1631.61 2994.5 1631.83 2993.79 1632.27 2993.19C1632.71 2992.58 1633.31 2992.1 1634.06 2991.77C1634.81 2991.43 1635.65 2991.26 1636.58 2991.26C1637.52 2991.26 1638.35 2991.42 1639.08 2991.76C1639.81 2992.09 1640.39 2992.55 1640.81 2993.12C1641.24 2993.7 1641.47 2994.36 1641.49 2995.09H1639.79ZM1658.17 2995.09C1658.08 2994.37 1657.74 2993.81 1657.13 2993.41C1656.53 2993.02 1655.78 2992.82 1654.9 2992.82C1654.26 2992.82 1653.69 2992.92 1653.21 2993.13C1652.73 2993.34 1652.36 2993.63 1652.09 2993.99C1651.82 2994.35 1651.69 2994.77 1651.69 2995.23C1651.69 2995.62 1651.78 2995.96 1651.97 2996.23C1652.16 2996.51 1652.4 2996.74 1652.69 2996.92C1652.99 2997.1 1653.29 2997.25 1653.62 2997.37C1653.94 2997.48 1654.23 2997.58 1654.5 2997.65L1655.98 2998.05C1656.36 2998.14 1656.78 2998.28 1657.25 2998.46C1657.71 2998.63 1658.16 2998.87 1658.59 2999.17C1659.02 2999.47 1659.37 2999.86 1659.65 3000.33C1659.93 3000.79 1660.07 3001.37 1660.07 3002.05C1660.07 3002.84 1659.87 3003.55 1659.45 3004.18C1659.05 3004.82 1658.45 3005.32 1657.66 3005.69C1656.88 3006.07 1655.93 3006.26 1654.82 3006.26C1653.78 3006.26 1652.87 3006.09 1652.11 3005.75C1651.35 3005.42 1650.76 3004.95 1650.32 3004.35C1649.89 3003.74 1649.65 3003.05 1649.59 3002.25H1651.41C1651.46 3002.8 1651.64 3003.25 1651.96 3003.61C1652.29 3003.97 1652.7 3004.23 1653.2 3004.41C1653.7 3004.58 1654.24 3004.66 1654.82 3004.66C1655.49 3004.66 1656.09 3004.56 1656.63 3004.34C1657.16 3004.12 1657.59 3003.81 1657.9 3003.41C1658.21 3003.02 1658.37 3002.55 1658.37 3002.02C1658.37 3001.54 1658.23 3001.15 1657.96 3000.84C1657.69 3000.54 1657.34 3000.29 1656.9 3000.11C1656.46 2999.92 1655.98 2999.75 1655.47 2999.61L1653.68 2999.1C1652.54 2998.77 1651.64 2998.3 1650.98 2997.7C1650.32 2997.09 1649.99 2996.3 1649.99 2995.32C1649.99 2994.5 1650.21 2993.79 1650.65 2993.19C1651.09 2992.58 1651.69 2992.1 1652.44 2991.77C1653.19 2991.43 1654.03 2991.26 1654.96 2991.26C1655.9 2991.26 1656.73 2991.42 1657.46 2991.76C1658.19 2992.09 1658.77 2992.55 1659.19 2993.12C1659.62 2993.7 1659.85 2994.36 1659.87 2995.09H1658.17ZM1675.24 2998.73C1675.24 3000.26 1674.96 3001.59 1674.41 3002.7C1673.86 3003.82 1673.1 3004.68 1672.13 3005.29C1671.16 3005.9 1670.06 3006.2 1668.82 3006.2C1667.58 3006.2 1666.48 3005.9 1665.51 3005.29C1664.55 3004.68 1663.79 3003.82 1663.23 3002.7C1662.68 3001.59 1662.4 3000.26 1662.4 2998.73C1662.4 2997.19 1662.68 2995.87 1663.23 2994.75C1663.79 2993.63 1664.55 2992.77 1665.51 2992.16C1666.48 2991.56 1667.58 2991.26 1668.82 2991.26C1670.06 2991.26 1671.16 2991.56 1672.13 2992.16C1673.1 2992.77 1673.86 2993.63 1674.41 2994.75C1674.96 2995.87 1675.24 2997.19 1675.24 2998.73ZM1673.54 2998.73C1673.54 2997.47 1673.33 2996.4 1672.9 2995.54C1672.49 2994.67 1671.92 2994.02 1671.21 2993.57C1670.5 2993.13 1669.7 2992.9 1668.82 2992.9C1667.94 2992.9 1667.14 2993.13 1666.43 2993.57C1665.72 2994.02 1665.15 2994.67 1664.73 2995.54C1664.31 2996.4 1664.1 2997.47 1664.1 2998.73C1664.1 2999.99 1664.31 3001.05 1664.73 3001.92C1665.15 3002.78 1665.72 3003.44 1666.43 3003.88C1667.14 3004.33 1667.94 3004.55 1668.82 3004.55C1669.7 3004.55 1670.5 3004.33 1671.21 3003.88C1671.92 3003.44 1672.49 3002.78 1672.9 3001.92C1673.33 3001.05 1673.54 2999.99 1673.54 2998.73ZM1689.91 2996H1688.15C1688.04 2995.49 1687.86 2995.05 1687.6 2994.66C1687.34 2994.28 1687.03 2993.96 1686.66 2993.7C1686.3 2993.43 1685.89 2993.23 1685.45 2993.1C1685 2992.97 1684.54 2992.9 1684.06 2992.9C1683.17 2992.9 1682.38 2993.13 1681.66 2993.57C1680.95 2994.02 1680.39 2994.67 1679.96 2995.54C1679.55 2996.4 1679.34 2997.47 1679.34 2998.73C1679.34 2999.99 1679.55 3001.05 1679.96 3001.92C1680.39 3002.78 1680.95 3003.44 1681.66 3003.88C1682.38 3004.33 1683.17 3004.55 1684.06 3004.55C1684.54 3004.55 1685 3004.48 1685.45 3004.35C1685.89 3004.22 1686.3 3004.02 1686.66 3003.76C1687.03 3003.5 1687.34 3003.17 1687.6 3002.79C1687.86 3002.4 1688.04 3001.96 1688.15 3001.45H1689.91C1689.77 3002.2 1689.53 3002.86 1689.18 3003.45C1688.83 3004.04 1688.4 3004.54 1687.88 3004.95C1687.36 3005.36 1686.77 3005.67 1686.12 3005.88C1685.48 3006.09 1684.79 3006.2 1684.06 3006.2C1682.81 3006.2 1681.71 3005.9 1680.75 3005.29C1679.78 3004.68 1679.02 3003.82 1678.47 3002.7C1677.91 3001.59 1677.63 3000.26 1677.63 2998.73C1677.63 2997.19 1677.91 2995.87 1678.47 2994.75C1679.02 2993.63 1679.78 2992.77 1680.75 2992.16C1681.71 2991.56 1682.81 2991.26 1684.06 2991.26C1684.79 2991.26 1685.48 2991.36 1686.12 2991.58C1686.77 2991.79 1687.36 2992.1 1687.88 2992.51C1688.4 2992.92 1688.83 2993.42 1689.18 2994C1689.53 2994.59 1689.77 2995.25 1689.91 2996ZM1694.51 2991.45V3006H1692.75V2991.45H1694.51ZM1698.64 3006H1696.8L1702.14 2991.45H1703.96L1709.3 3006H1707.45L1703.1 2993.76H1702.99L1698.64 3006ZM1699.32 3000.32H1706.77V3001.88H1699.32V3000.32ZM1713.32 2991.45V3006H1711.56V2991.45H1713.32ZM1724.81 2995.09C1724.72 2994.37 1724.38 2993.81 1723.77 2993.41C1723.17 2993.02 1722.42 2992.82 1721.54 2992.82C1720.9 2992.82 1720.34 2992.92 1719.85 2993.13C1719.37 2993.34 1719 2993.63 1718.73 2993.99C1718.46 2994.35 1718.33 2994.77 1718.33 2995.23C1718.33 2995.62 1718.42 2995.96 1718.61 2996.23C1718.8 2996.51 1719.04 2996.74 1719.33 2996.92C1719.63 2997.1 1719.94 2997.25 1720.26 2997.37C1720.58 2997.48 1720.88 2997.58 1721.14 2997.65L1722.62 2998.05C1723 2998.14 1723.42 2998.28 1723.89 2998.46C1724.36 2998.63 1724.8 2998.87 1725.23 2999.17C1725.66 2999.47 1726.01 2999.86 1726.29 3000.33C1726.57 3000.79 1726.71 3001.37 1726.71 3002.05C1726.71 3002.84 1726.51 3003.55 1726.1 3004.18C1725.69 3004.82 1725.09 3005.32 1724.31 3005.69C1723.52 3006.07 1722.57 3006.26 1721.46 3006.26C1720.42 3006.26 1719.51 3006.09 1718.75 3005.75C1717.99 3005.42 1717.4 3004.95 1716.96 3004.35C1716.53 3003.74 1716.29 3003.05 1716.23 3002.25H1718.05C1718.1 3002.8 1718.28 3003.25 1718.6 3003.61C1718.93 3003.97 1719.34 3004.23 1719.84 3004.41C1720.34 3004.58 1720.88 3004.66 1721.46 3004.66C1722.13 3004.66 1722.73 3004.56 1723.27 3004.34C1723.8 3004.12 1724.23 3003.81 1724.54 3003.41C1724.85 3003.02 1725.01 3002.55 1725.01 3002.02C1725.01 3001.54 1724.87 3001.15 1724.6 3000.84C1724.33 3000.54 1723.98 3000.29 1723.54 3000.11C1723.1 2999.92 1722.62 2999.75 1722.11 2999.61L1720.32 2999.1C1719.18 2998.77 1718.29 2998.3 1717.62 2997.7C1716.96 2997.09 1716.63 2996.3 1716.63 2995.32C1716.63 2994.5 1716.85 2993.79 1717.29 2993.19C1717.73 2992.58 1718.33 2992.1 1719.08 2991.77C1719.83 2991.43 1720.67 2991.26 1721.6 2991.26C1722.54 2991.26 1723.37 2991.42 1724.1 2991.76C1724.83 2992.09 1725.41 2992.55 1725.83 2993.12C1726.26 2993.7 1726.49 2994.36 1726.51 2995.09H1724.81Z" fill="white"/>
<line y1="-0.5" x2="68.1475" y2="-0.5" transform="matrix(0.787504 -0.61631 0.654896 0.755719 1597 2975)" stroke="black"/>
<line y1="-0.5" x2="75.2393" y2="-0.5" transform="matrix(-0.811177 -0.584801 0.623877 -0.781523 1651.72 2977)" stroke="black"/>
<line y1="-0.5" x2="61.1861" y2="-0.5" transform="matrix(0.756716 -0.653744 0.69126 0.722606 1689.6 2973)" stroke="black"/>
<line y1="-0.5" x2="68.9793" y2="-0.5" transform="matrix(-0.793263 -0.608879 0.647613 -0.761969 1740.11 2975)" stroke="black"/>
<line x1="169.545" y1="2858.79" x2="521.545" y2="2086.79" stroke="black"/>
<line x1="166.454" y1="2088.79" x2="522.454" y2="2858.79" stroke="black"/>
<line x1="580.455" y1="2086.79" x2="934.455" y2="2864.79" stroke="black"/>
<line x1="930.455" y1="2091.21" x2="580.455" y2="2859.21" stroke="black"/>
<line x1="992.455" y1="2090.79" x2="1346.45" y2="2864.79" stroke="black"/>
<line x1="1344.46" y1="2089.2" x2="1001.46" y2="2859.2" stroke="black"/>
<line x1="1402.45" y1="2090.79" x2="1758.45" y2="2864.79" stroke="black"/>
<line x1="1754.46" y1="2089.21" x2="1404.46" y2="2859.21" stroke="black"/>
</g>
<defs>
<clipPath id="clip0_0_1">
<rect width="1920" height="3106" fill="white"/>
</clipPath>
</defs>
</svg>
