<svg width="834" height="1626" viewBox="0 0 834 1626" fill="none" xmlns="http://www.w3.org/2000/svg">
<rect width="834" height="1626" fill="#F5F5F5"/>
<g clip-path="url(#clip0_0_1)">
<rect width="834" height="1626" fill="white"/>
<rect y="1539" width="834" height="84" fill="black"/>
<path d="M33.2784 1601.64C33.2784 1600.56 33.4176 1599.58 33.696 1598.67C33.9773 1597.77 34.3778 1596.94 34.8977 1596.18H35.7841C35.5795 1596.46 35.3878 1596.81 35.2088 1597.22C35.0327 1597.63 34.8778 1598.08 34.7443 1598.57C34.6108 1599.06 34.5057 1599.57 34.429 1600.09C34.3551 1600.61 34.3182 1601.13 34.3182 1601.64C34.3182 1602.31 34.3835 1603 34.5142 1603.69C34.6449 1604.39 34.821 1605.04 35.0426 1605.63C35.2642 1606.23 35.5114 1606.72 35.7841 1607.09H34.8977C34.3778 1606.33 33.9773 1605.5 33.696 1604.6C33.4176 1603.7 33.2784 1602.71 33.2784 1601.64ZM37.4045 1606V1597.27H38.4613V1605.06H42.5181V1606H37.4045ZM45.2113 1597.27V1606H44.1545V1597.27H45.2113ZM54.2507 1597.27V1606H53.228L48.4723 1599.15H48.3871V1606H47.3303V1597.27H48.353L53.1257 1604.14H53.2109V1597.27H54.2507ZM56.3654 1606V1597.27H57.4222V1601.6H57.5245L61.445 1597.27H62.8256L59.1609 1601.21L62.8256 1606H61.5472L58.5131 1601.94L57.4222 1603.17V1606H56.3654ZM68.9663 1599.45C68.9151 1599.02 68.7077 1598.69 68.3441 1598.45C67.9805 1598.21 67.5344 1598.09 67.006 1598.09C66.6197 1598.09 66.2816 1598.15 65.9918 1598.28C65.7049 1598.4 65.4805 1598.58 65.3185 1598.79C65.1594 1599.01 65.0799 1599.26 65.0799 1599.54C65.0799 1599.77 65.1353 1599.97 65.2461 1600.14C65.3597 1600.31 65.5046 1600.44 65.6808 1600.55C65.8569 1600.66 66.0415 1600.75 66.2347 1600.82C66.4279 1600.89 66.6055 1600.95 66.7674 1600.99L67.6538 1601.23C67.881 1601.29 68.1339 1601.37 68.4123 1601.47C68.6935 1601.58 68.962 1601.72 69.2177 1601.9C69.4762 1602.08 69.6893 1602.31 69.8569 1602.6C70.0245 1602.88 70.1083 1603.22 70.1083 1603.63C70.1083 1604.1 69.9847 1604.53 69.7376 1604.91C69.4933 1605.29 69.1353 1605.59 68.6637 1605.82C68.195 1606.04 67.6254 1606.15 66.9549 1606.15C66.3299 1606.15 65.7887 1606.05 65.3313 1605.85C64.8768 1605.65 64.5188 1605.37 64.2575 1605.01C63.9989 1604.65 63.8526 1604.23 63.8185 1603.75H64.9094C64.9379 1604.08 65.0487 1604.35 65.2418 1604.57C65.4379 1604.78 65.685 1604.94 65.9833 1605.05C66.2844 1605.15 66.6083 1605.2 66.9549 1605.2C67.3583 1605.2 67.7205 1605.13 68.0415 1605C68.3626 1604.87 68.6168 1604.68 68.8043 1604.45C68.9918 1604.21 69.0856 1603.93 69.0856 1603.61C69.0856 1603.32 69.0046 1603.09 68.8427 1602.91C68.6808 1602.72 68.4677 1602.58 68.2035 1602.46C67.9393 1602.35 67.6538 1602.25 67.3469 1602.16L66.2731 1601.86C65.5913 1601.66 65.0515 1601.38 64.6538 1601.02C64.256 1600.65 64.0572 1600.18 64.0572 1599.59C64.0572 1599.1 64.1893 1598.68 64.4535 1598.31C64.7205 1597.95 65.0785 1597.66 65.5273 1597.46C65.979 1597.26 66.4833 1597.15 67.0401 1597.15C67.6026 1597.15 68.1026 1597.25 68.5401 1597.46C68.9776 1597.65 69.3242 1597.93 69.5799 1598.27C69.8384 1598.62 69.9748 1599.01 69.989 1599.45H68.9663ZM73.8572 1601.64C73.8572 1602.71 73.7166 1603.7 73.4354 1604.6C73.157 1605.5 72.7578 1606.33 72.2379 1607.09H71.3516C71.5561 1606.81 71.7464 1606.46 71.9226 1606.05C72.1016 1605.64 72.2578 1605.19 72.3913 1604.7C72.5249 1604.21 72.6286 1603.71 72.7024 1603.18C72.7791 1602.66 72.8175 1602.14 72.8175 1601.64C72.8175 1600.96 72.7521 1600.27 72.6214 1599.58C72.4908 1598.88 72.3146 1598.24 72.093 1597.64C71.8714 1597.04 71.6243 1596.56 71.3516 1596.18H72.2379C72.7578 1596.94 73.157 1597.77 73.4354 1598.67C73.7166 1599.58 73.8572 1600.56 73.8572 1601.64Z" fill="white"/>
<rect y="1099" width="834" height="99" fill="black"/>
<rect x="-3" y="453" width="835" height="583" fill="black"/>
<rect x="1" width="834" height="102" fill="black"/>
<rect x="752" y="28" width="33" height="30" fill="#D9D9D9"/>
<path d="M758.733 68H757.852C757.8 67.7467 757.709 67.5241 757.579 67.3324C757.451 67.1406 757.295 66.9796 757.11 66.8494C756.928 66.7169 756.725 66.6174 756.503 66.5511C756.28 66.4848 756.048 66.4517 755.807 66.4517C755.366 66.4517 754.968 66.563 754.61 66.7855C754.255 67.008 753.972 67.3359 753.761 67.7692C753.553 68.2024 753.449 68.7339 753.449 69.3636C753.449 69.9934 753.553 70.5249 753.761 70.9581C753.972 71.3913 754.255 71.7192 754.61 71.9418C754.968 72.1643 755.366 72.2756 755.807 72.2756C756.048 72.2756 756.28 72.2424 756.503 72.1761C756.725 72.1098 756.928 72.0116 757.11 71.8814C757.295 71.7488 757.451 71.5866 757.579 71.3949C757.709 71.2008 757.8 70.9782 757.852 70.7273H758.733C758.667 71.099 758.546 71.4316 758.371 71.7251C758.196 72.0187 757.978 72.2685 757.717 72.4744C757.457 72.678 757.165 72.8331 756.84 72.9396C756.518 73.0462 756.174 73.0994 755.807 73.0994C755.187 73.0994 754.635 72.9479 754.152 72.6449C753.669 72.3419 753.289 71.911 753.012 71.3523C752.735 70.7936 752.597 70.1307 752.597 69.3636C752.597 68.5966 752.735 67.9337 753.012 67.375C753.289 66.8163 753.669 66.3854 754.152 66.0824C754.635 65.7794 755.187 65.6278 755.807 65.6278C756.174 65.6278 756.518 65.6811 756.84 65.7876C757.165 65.8942 757.457 66.0504 757.717 66.2564C757.978 66.46 758.196 66.7086 758.371 67.0021C758.546 67.2933 758.667 67.6259 758.733 68ZM766.292 69.3636C766.292 70.1307 766.154 70.7936 765.877 71.3523C765.6 71.911 765.22 72.3419 764.737 72.6449C764.254 72.9479 763.702 73.0994 763.082 73.0994C762.462 73.0994 761.91 72.9479 761.427 72.6449C760.944 72.3419 760.564 71.911 760.287 71.3523C760.01 70.7936 759.872 70.1307 759.872 69.3636C759.872 68.5966 760.01 67.9337 760.287 67.375C760.564 66.8163 760.944 66.3854 761.427 66.0824C761.91 65.7794 762.462 65.6278 763.082 65.6278C763.702 65.6278 764.254 65.7794 764.737 66.0824C765.22 66.3854 765.6 66.8163 765.877 67.375C766.154 67.9337 766.292 68.5966 766.292 69.3636ZM765.44 69.3636C765.44 68.7339 765.335 68.2024 765.124 67.7692C764.916 67.3359 764.633 67.008 764.275 66.7855C763.92 66.563 763.523 66.4517 763.082 66.4517C762.642 66.4517 762.243 66.563 761.885 66.7855C761.53 67.008 761.247 67.3359 761.037 67.7692C760.828 68.2024 760.724 68.7339 760.724 69.3636C760.724 69.9934 760.828 70.5249 761.037 70.9581C761.247 71.3913 761.53 71.7192 761.885 71.9418C762.243 72.1643 762.642 72.2756 763.082 72.2756C763.523 72.2756 763.92 72.1643 764.275 71.9418C764.633 71.7192 764.916 71.3913 765.124 70.9581C765.335 70.5249 765.44 69.9934 765.44 69.3636ZM773.54 65.7273V73H772.688L768.725 67.2898H768.654V73H767.773V65.7273H768.626L772.603 71.4517H772.674V65.7273H773.54ZM774.905 66.5085V65.7273H780.359V66.5085H778.072V73H777.192V66.5085H774.905ZM781.167 73H780.244L782.914 65.7273H783.824L786.494 73H785.571L783.397 66.8778H783.341L781.167 73ZM781.508 70.1591H785.23V70.9403H781.508V70.1591Z" fill="white"/>
<line x1="38" y1="50.5" x2="102" y2="50.5" stroke="white"/>
<line x1="38" y1="38.5" x2="102" y2="38.5" stroke="white"/>
<rect x="355" y="18" width="124" height="67" fill="#D9D9D9"/>
<path d="M400.21 43.4545V58H398.534V43.4545H400.21ZM407.712 58.2273C406.727 58.2273 405.863 57.9929 405.12 57.5241C404.381 57.0554 403.803 56.3996 403.387 55.5568C402.975 54.714 402.769 53.7292 402.769 52.6023C402.769 51.4659 402.975 50.474 403.387 49.6264C403.803 48.7789 404.381 48.1207 405.12 47.652C405.863 47.1832 406.727 46.9489 407.712 46.9489C408.697 46.9489 409.559 47.1832 410.297 47.652C411.041 48.1207 411.618 48.7789 412.03 49.6264C412.447 50.474 412.655 51.4659 412.655 52.6023C412.655 53.7292 412.447 54.714 412.03 55.5568C411.618 56.3996 411.041 57.0554 410.297 57.5241C409.559 57.9929 408.697 58.2273 407.712 58.2273ZM407.712 56.7216C408.46 56.7216 409.076 56.5298 409.559 56.1463C410.042 55.7628 410.399 55.2585 410.631 54.6335C410.863 54.0085 410.979 53.3314 410.979 52.6023C410.979 51.8731 410.863 51.1937 410.631 50.5639C410.399 49.9342 410.042 49.4252 409.559 49.0369C409.076 48.6487 408.46 48.4545 407.712 48.4545C406.964 48.4545 406.348 48.6487 405.865 49.0369C405.382 49.4252 405.025 49.9342 404.793 50.5639C404.561 51.1937 404.445 51.8731 404.445 52.6023C404.445 53.3314 404.561 54.0085 404.793 54.6335C405.025 55.2585 405.382 55.7628 405.865 56.1463C406.348 56.5298 406.964 56.7216 407.712 56.7216ZM419.617 62.3182C418.808 62.3182 418.112 62.214 417.529 62.0057C416.947 61.8021 416.461 61.5322 416.073 61.196C415.69 60.8646 415.384 60.5095 415.157 60.1307L416.492 59.1932C416.644 59.392 416.835 59.6193 417.067 59.875C417.299 60.1354 417.617 60.3603 418.019 60.5497C418.426 60.7438 418.959 60.8409 419.617 60.8409C420.498 60.8409 421.225 60.6278 421.798 60.2017C422.371 59.7756 422.657 59.108 422.657 58.1989V55.983H422.515C422.392 56.1818 422.217 56.428 421.989 56.7216C421.767 57.0104 421.445 57.2685 421.023 57.4957C420.607 57.7183 420.043 57.8295 419.333 57.8295C418.452 57.8295 417.662 57.6212 416.961 57.2045C416.265 56.7879 415.713 56.1818 415.306 55.3864C414.904 54.5909 414.702 53.625 414.702 52.4886C414.702 51.3712 414.899 50.3982 415.292 49.5696C415.685 48.7363 416.232 48.0923 416.933 47.6378C417.633 47.1785 418.443 46.9489 419.362 46.9489C420.072 46.9489 420.635 47.0672 421.052 47.304C421.473 47.536 421.795 47.8011 422.018 48.0994C422.245 48.393 422.42 48.6345 422.543 48.8239H422.714V47.0909H424.333V58.3125C424.333 59.25 424.12 60.0123 423.694 60.5994C423.272 61.1913 422.704 61.6245 421.989 61.8991C421.279 62.1785 420.488 62.3182 419.617 62.3182ZM419.56 56.3239C420.233 56.3239 420.801 56.17 421.265 55.8622C421.729 55.5545 422.082 55.1117 422.323 54.5341C422.565 53.9564 422.685 53.2652 422.685 52.4602C422.685 51.6742 422.567 50.9806 422.33 50.3793C422.094 49.7779 421.743 49.3068 421.279 48.9659C420.815 48.625 420.242 48.4545 419.56 48.4545C418.85 48.4545 418.258 48.6345 417.785 48.9943C417.316 49.3542 416.963 49.8371 416.727 50.4432C416.495 51.0492 416.379 51.7216 416.379 52.4602C416.379 53.2178 416.497 53.8878 416.734 54.4702C416.975 55.0478 417.33 55.5024 417.799 55.8338C418.272 56.1605 418.86 56.3239 419.56 56.3239ZM431.833 58.2273C430.848 58.2273 429.984 57.9929 429.241 57.5241C428.502 57.0554 427.924 56.3996 427.508 55.5568C427.096 54.714 426.89 53.7292 426.89 52.6023C426.89 51.4659 427.096 50.474 427.508 49.6264C427.924 48.7789 428.502 48.1207 429.241 47.652C429.984 47.1832 430.848 46.9489 431.833 46.9489C432.818 46.9489 433.68 47.1832 434.418 47.652C435.162 48.1207 435.739 48.7789 436.151 49.6264C436.568 50.474 436.776 51.4659 436.776 52.6023C436.776 53.7292 436.568 54.714 436.151 55.5568C435.739 56.3996 435.162 57.0554 434.418 57.5241C433.68 57.9929 432.818 58.2273 431.833 58.2273ZM431.833 56.7216C432.581 56.7216 433.197 56.5298 433.68 56.1463C434.163 55.7628 434.52 55.2585 434.752 54.6335C434.984 54.0085 435.1 53.3314 435.1 52.6023C435.1 51.8731 434.984 51.1937 434.752 50.5639C434.52 49.9342 434.163 49.4252 433.68 49.0369C433.197 48.6487 432.581 48.4545 431.833 48.4545C431.085 48.4545 430.469 48.6487 429.987 49.0369C429.504 49.4252 429.146 49.9342 428.914 50.5639C428.682 51.1937 428.566 51.8731 428.566 52.6023C428.566 53.3314 428.682 54.0085 428.914 54.6335C429.146 55.2585 429.504 55.7628 429.987 56.1463C430.469 56.5298 431.085 56.7216 431.833 56.7216Z" fill="black"/>
<line x1="38" y1="27.5" x2="102" y2="27.5" stroke="white"/>
<rect x="707" y="28" width="33" height="30" fill="#D9D9D9"/>
<path d="M689.733 68H688.852C688.8 67.7467 688.709 67.5241 688.579 67.3324C688.451 67.1406 688.295 66.9796 688.11 66.8494C687.928 66.7169 687.725 66.6174 687.503 66.5511C687.28 66.4848 687.048 66.4517 686.807 66.4517C686.366 66.4517 685.968 66.563 685.61 66.7855C685.255 67.008 684.972 67.3359 684.761 67.7692C684.553 68.2024 684.449 68.7339 684.449 69.3636C684.449 69.9934 684.553 70.5249 684.761 70.9581C684.972 71.3913 685.255 71.7192 685.61 71.9418C685.968 72.1643 686.366 72.2756 686.807 72.2756C687.048 72.2756 687.28 72.2424 687.503 72.1761C687.725 72.1098 687.928 72.0116 688.11 71.8814C688.295 71.7488 688.451 71.5866 688.579 71.3949C688.709 71.2008 688.8 70.9782 688.852 70.7273H689.733C689.667 71.099 689.546 71.4316 689.371 71.7251C689.196 72.0187 688.978 72.2685 688.717 72.4744C688.457 72.678 688.165 72.8331 687.84 72.9396C687.518 73.0462 687.174 73.0994 686.807 73.0994C686.187 73.0994 685.635 72.9479 685.152 72.6449C684.669 72.3419 684.289 71.911 684.012 71.3523C683.735 70.7936 683.597 70.1307 683.597 69.3636C683.597 68.5966 683.735 67.9337 684.012 67.375C684.289 66.8163 684.669 66.3854 685.152 66.0824C685.635 65.7794 686.187 65.6278 686.807 65.6278C687.174 65.6278 687.518 65.6811 687.84 65.7876C688.165 65.8942 688.457 66.0504 688.717 66.2564C688.978 66.46 689.196 66.7086 689.371 67.0021C689.546 67.2933 689.667 67.6259 689.733 68ZM691.454 73H690.531L693.202 65.7273H694.111L696.781 73H695.858L693.684 66.8778H693.628L691.454 73ZM691.795 70.1591H695.517V70.9403H691.795V70.1591ZM697.914 73V65.7273H700.371C700.939 65.7273 701.406 65.8243 701.77 66.0185C702.135 66.2102 702.405 66.4742 702.58 66.8104C702.755 67.1465 702.843 67.5289 702.843 67.9574C702.843 68.3859 702.755 68.7659 702.58 69.0973C702.405 69.4287 702.136 69.6892 701.774 69.8786C701.412 70.0656 700.949 70.1591 700.385 70.1591H698.397V69.3636H700.357C700.745 69.3636 701.058 69.3068 701.295 69.1932C701.534 69.0795 701.706 68.9186 701.813 68.7102C701.922 68.4995 701.976 68.2486 701.976 67.9574C701.976 67.6662 701.922 67.4117 701.813 67.1939C701.704 66.9761 701.53 66.808 701.291 66.6896C701.052 66.5689 700.736 66.5085 700.343 66.5085H698.795V73H697.914ZM701.337 69.733L703.127 73H702.104L700.343 69.733H701.337ZM704.31 73V65.7273H706.768C707.336 65.7273 707.802 65.8243 708.167 66.0185C708.531 66.2102 708.801 66.4742 708.977 66.8104C709.152 67.1465 709.239 67.5289 709.239 67.9574C709.239 68.3859 709.152 68.7659 708.977 69.0973C708.801 69.4287 708.533 69.6892 708.17 69.8786C707.808 70.0656 707.345 70.1591 706.782 70.1591H704.793V69.3636H706.754C707.142 69.3636 707.454 69.3068 707.691 69.1932C707.93 69.0795 708.103 68.9186 708.21 68.7102C708.318 68.4995 708.373 68.2486 708.373 67.9574C708.373 67.6662 708.318 67.4117 708.21 67.1939C708.101 66.9761 707.927 66.808 707.688 66.6896C707.448 66.5689 707.132 66.5085 706.739 66.5085H705.191V73H704.31ZM707.734 69.733L709.523 73H708.501L706.739 69.733H707.734ZM711.588 65.7273V73H710.707V65.7273H711.588ZM719.12 65.7273V73H718.268L714.305 67.2898H714.234V73H713.353V65.7273H714.206L718.183 71.4517H718.254V65.7273H719.12ZM720.883 73V65.7273H721.763V68.9659H725.641V65.7273H726.522V73H725.641V69.7472H721.763V73H720.883ZM734.421 69.3636C734.421 70.1307 734.283 70.7936 734.006 71.3523C733.729 71.911 733.349 72.3419 732.866 72.6449C732.383 72.9479 731.831 73.0994 731.211 73.0994C730.591 73.0994 730.039 72.9479 729.556 72.6449C729.073 72.3419 728.693 71.911 728.416 71.3523C728.139 70.7936 728.001 70.1307 728.001 69.3636C728.001 68.5966 728.139 67.9337 728.416 67.375C728.693 66.8163 729.073 66.3854 729.556 66.0824C730.039 65.7794 730.591 65.6278 731.211 65.6278C731.831 65.6278 732.383 65.7794 732.866 66.0824C733.349 66.3854 733.729 66.8163 734.006 67.375C734.283 67.9337 734.421 68.5966 734.421 69.3636ZM733.569 69.3636C733.569 68.7339 733.464 68.2024 733.253 67.7692C733.045 67.3359 732.762 67.008 732.404 66.7855C732.049 66.563 731.651 66.4517 731.211 66.4517C730.771 66.4517 730.372 66.563 730.014 66.7855C729.659 67.008 729.376 67.3359 729.166 67.7692C728.957 68.2024 728.853 68.7339 728.853 69.3636C728.853 69.9934 728.957 70.5249 729.166 70.9581C729.376 71.3913 729.659 71.7192 730.014 71.9418C730.372 72.1643 730.771 72.2756 731.211 72.2756C731.651 72.2756 732.049 72.1643 732.404 71.9418C732.762 71.7192 733.045 71.3913 733.253 70.9581C733.464 70.5249 733.569 69.9934 733.569 69.3636Z" fill="white"/>
<path d="M29.2784 76.6364C29.2784 75.5625 29.4176 74.5753 29.696 73.6747C29.9773 72.7713 30.3778 71.9403 30.8977 71.1818H31.7841C31.5795 71.4631 31.3878 71.8097 31.2088 72.2216C31.0327 72.6307 30.8778 73.081 30.7443 73.5724C30.6108 74.0611 30.5057 74.5668 30.429 75.0895C30.3551 75.6122 30.3182 76.1278 30.3182 76.6364C30.3182 77.3125 30.3835 77.9986 30.5142 78.6946C30.6449 79.3906 30.821 80.0369 31.0426 80.6335C31.2642 81.2301 31.5114 81.7159 31.7841 82.0909H30.8977C30.3778 81.3324 29.9773 80.5028 29.696 79.6023C29.4176 78.6989 29.2784 77.7102 29.2784 76.6364ZM33.4045 72.2727H34.6658L37.6317 79.517H37.734L40.6999 72.2727H41.9613V81H40.9727V74.3693H40.8874L38.1602 81H37.2056L34.4783 74.3693H34.3931V81H33.4045V72.2727ZM44.0803 81V72.2727H49.3473V73.2102H45.1371V76.1591H49.0746V77.0966H45.1371V80.0625H49.4155V81H44.0803ZM58.1726 72.2727V81H57.1499L52.3942 74.1477H52.3089V81H51.2521V72.2727H52.2749L57.0476 79.142H57.1328V72.2727H58.1726ZM66.0146 72.2727H67.0714V78.0511C67.0714 78.6477 66.9308 79.1804 66.6495 79.6491C66.3711 80.1151 65.9776 80.483 65.4691 80.7528C64.9606 81.0199 64.364 81.1534 63.6793 81.1534C62.9947 81.1534 62.3981 81.0199 61.8896 80.7528C61.381 80.483 60.9862 80.1151 60.7049 79.6491C60.4265 79.1804 60.2873 78.6477 60.2873 78.0511V72.2727H61.3441V77.9659C61.3441 78.392 61.4379 78.7713 61.6254 79.1037C61.8129 79.4332 62.0799 79.6932 62.4265 79.8835C62.7759 80.071 63.1935 80.1648 63.6793 80.1648C64.1651 80.1648 64.5827 80.071 64.9322 79.8835C65.2816 79.6932 65.5487 79.4332 65.7333 79.1037C65.9208 78.7713 66.0146 78.392 66.0146 77.9659V72.2727ZM72.5568 81V72.2727H73.6136V80.0625H77.6705V81H72.5568ZM80.2156 81H79.1076L82.3121 72.2727H83.4031L86.6076 81H85.4996L82.8917 73.6534H82.8235L80.2156 81ZM80.6246 77.5909H85.0906V78.5284H80.6246V77.5909ZM86.4702 73.2102V72.2727H93.0156V73.2102H90.2713V81H89.2145V73.2102H86.4702ZM94.6467 81V72.2727H99.9137V73.2102H95.7035V76.1591H99.641V77.0966H95.7035V80.0625H99.9819V81H94.6467ZM101.819 81V72.2727H104.767C105.449 72.2727 106.009 72.3892 106.446 72.6222C106.884 72.8523 107.208 73.169 107.418 73.5724C107.628 73.9759 107.733 74.4347 107.733 74.9489C107.733 75.4631 107.628 75.919 107.418 76.3168C107.208 76.7145 106.885 77.027 106.451 77.2543C106.016 77.4787 105.461 77.5909 104.784 77.5909H102.398V76.6364H104.75C105.216 76.6364 105.591 76.5682 105.875 76.4318C106.162 76.2955 106.37 76.1023 106.498 75.8523C106.628 75.5994 106.694 75.2983 106.694 74.9489C106.694 74.5994 106.628 74.294 106.498 74.0327C106.367 73.7713 106.158 73.5696 105.871 73.4276C105.584 73.2827 105.205 73.2102 104.733 73.2102H102.875V81H101.819ZM105.926 77.0795L108.074 81H106.847L104.733 77.0795H105.926ZM109.852 81H108.744L111.949 72.2727H113.04L116.244 81H115.136L112.528 73.6534H112.46L109.852 81ZM110.261 77.5909H114.727V78.5284H110.261V77.5909ZM117.604 81V72.2727H118.661V80.0625H122.717V81H117.604ZM126.365 76.6364C126.365 77.7102 126.224 78.6989 125.943 79.6023C125.665 80.5028 125.266 81.3324 124.746 82.0909H123.859C124.064 81.8097 124.254 81.4631 124.43 81.0511C124.609 80.642 124.766 80.1932 124.899 79.7045C125.033 79.2131 125.136 78.706 125.21 78.1832C125.287 77.6577 125.325 77.142 125.325 76.6364C125.325 75.9602 125.26 75.2741 125.129 74.5781C124.999 73.8821 124.822 73.2358 124.601 72.6392C124.379 72.0426 124.132 71.5568 123.859 71.1818H124.746C125.266 71.9403 125.665 72.7713 125.943 73.6747C126.224 74.5753 126.365 75.5625 126.365 76.6364Z" fill="white"/>
<rect x="1" y="102" width="834" height="285" fill="#D9D9D9"/>
<line x1="-0.164615" y1="389.528" x2="825.835" y2="101.528" stroke="black"/>
<line x1="0.16303" y1="98.5273" x2="835.163" y2="386.527" stroke="black"/>
<rect x="32" y="413" width="373" height="295" fill="#D9D9D9"/>
<rect x="430" y="413" width="373" height="295" fill="#D9D9D9"/>
<line y1="-0.5" x2="473.462" y2="-0.5" transform="matrix(0.783452 -0.621452 0.786598 0.617465 34.9131 707.234)" stroke="black"/>
<line y1="-0.5" x2="474.801" y2="-0.5" transform="matrix(0.787377 0.616471 -0.782664 0.622444 32 414.532)" stroke="black"/>
<line y1="-0.5" x2="471.514" y2="-0.5" transform="matrix(0.792867 0.609394 -0.777013 0.629485 429.152 420.662)" stroke="black"/>
<line y1="-0.5" x2="467.97" y2="-0.5" transform="matrix(0.79057 -0.612371 0.779399 0.626528 433.036 701.104)" stroke="black"/>
<rect x="28" y="738" width="248" height="351" fill="#D9D9D9"/>
<rect x="555" y="738" width="248" height="351" fill="#D9D9D9"/>
<rect x="291" y="738" width="248" height="351" fill="#D9D9D9"/>
<line y1="-0.5" x2="424.921" y2="-0.5" transform="matrix(0.573828 -0.818976 0.825201 0.564839 32.047 1088)" stroke="black"/>
<line y1="-0.5" x2="421.543" y2="-0.5" transform="matrix(-0.571225 -0.820793 0.826975 -0.562238 272.843 1087)" stroke="black"/>
<line y1="-0.5" x2="423.868" y2="-0.5" transform="matrix(0.57764 -0.816291 0.82258 0.568649 294.09 1087)" stroke="black"/>
<line y1="-0.5" x2="424.453" y2="-0.5" transform="matrix(-0.579227 -0.815166 0.821481 -0.570236 536.91 1087)" stroke="black"/>
<line y1="-0.5" x2="421.651" y2="-0.5" transform="matrix(-0.578278 -0.81584 0.822139 -0.569287 798.953 1086)" stroke="black"/>
<line y1="-0.5" x2="427.959" y2="-0.5" transform="matrix(0.572118 -0.820171 0.826368 0.56313 558.157 1089)" stroke="black"/>
<rect x="28" y="1126" width="775" height="54" fill="#D9D9D9"/>
<line x1="27.9697" y1="1180.5" x2="802.97" y2="1133.5" stroke="black"/>
<line x1="797.967" y1="1177.5" x2="27.9669" y2="1126.5" stroke="black"/>
<rect x="28" y="1211" width="177" height="293" fill="#D9D9D9"/>
<rect x="626" y="1211" width="177" height="293" fill="#D9D9D9"/>
<rect x="228" y="1211" width="175" height="293" fill="#D9D9D9"/>
<rect x="428" y="1211" width="175" height="293" fill="#D9D9D9"/>
<line x1="30.5705" y1="1502.74" x2="204.57" y2="1210.74" stroke="black"/>
<line x1="202.571" y1="1503.26" x2="27.5711" y2="1211.26" stroke="black"/>
<line x1="230.572" y1="1496.74" x2="402.572" y2="1210.74" stroke="black"/>
<line x1="399.571" y1="1498.26" x2="227.571" y2="1211.26" stroke="black"/>
<line x1="428.572" y1="1497.74" x2="602.572" y2="1210.74" stroke="black"/>
<line x1="595.568" y1="1496.25" x2="429.568" y2="1211.25" stroke="black"/>
<line x1="631.568" y1="1495.75" x2="797.568" y2="1210.75" stroke="black"/>
<line x1="801.569" y1="1501.25" x2="631.569" y2="1211.25" stroke="black"/>
<path d="M374.057 1606V1597.27H377.006C377.688 1597.27 378.247 1597.39 378.685 1597.62C379.122 1597.85 379.446 1598.17 379.656 1598.57C379.866 1598.98 379.972 1599.43 379.972 1599.95C379.972 1600.46 379.866 1600.92 379.656 1601.32C379.446 1601.71 379.124 1602.03 378.689 1602.25C378.254 1602.48 377.699 1602.59 377.023 1602.59H374.636V1601.64H376.989C377.455 1601.64 377.83 1601.57 378.114 1601.43C378.401 1601.3 378.608 1601.1 378.736 1600.85C378.866 1600.6 378.932 1600.3 378.932 1599.95C378.932 1599.6 378.866 1599.29 378.736 1599.03C378.605 1598.77 378.396 1598.57 378.109 1598.43C377.822 1598.28 377.443 1598.21 376.972 1598.21H375.114V1606H374.057ZM378.165 1602.08L380.312 1606H379.085L376.972 1602.08H378.165ZM381.733 1606V1597.27H387V1598.21H382.789V1601.16H386.727V1602.1H382.789V1605.06H387.068V1606H381.733ZM391.598 1606H388.904V1597.27H391.717C392.564 1597.27 393.288 1597.45 393.89 1597.8C394.493 1598.14 394.954 1598.64 395.275 1599.29C395.596 1599.94 395.757 1600.72 395.757 1601.62C395.757 1602.53 395.595 1603.31 395.271 1603.97C394.947 1604.62 394.475 1605.12 393.856 1605.48C393.237 1605.83 392.484 1606 391.598 1606ZM389.961 1605.06H391.529C392.251 1605.06 392.849 1604.92 393.324 1604.64C393.798 1604.37 394.152 1603.97 394.385 1603.46C394.618 1602.94 394.734 1602.33 394.734 1601.62C394.734 1600.91 394.619 1600.31 394.389 1599.8C394.159 1599.29 393.815 1598.9 393.358 1598.62C392.9 1598.35 392.331 1598.21 391.649 1598.21H389.961V1605.06ZM397.529 1606V1597.27H402.797V1598.21H398.586V1601.16H402.524V1602.1H398.586V1605.06H402.865V1606H397.529ZM409.474 1599.45C409.423 1599.02 409.216 1598.69 408.852 1598.45C408.488 1598.21 408.042 1598.09 407.514 1598.09C407.127 1598.09 406.789 1598.15 406.5 1598.28C406.213 1598.4 405.988 1598.58 405.826 1598.79C405.667 1599.01 405.588 1599.26 405.588 1599.54C405.588 1599.77 405.643 1599.97 405.754 1600.14C405.868 1600.31 406.012 1600.44 406.189 1600.55C406.365 1600.66 406.549 1600.75 406.743 1600.82C406.936 1600.89 407.113 1600.95 407.275 1600.99L408.162 1601.23C408.389 1601.29 408.642 1601.37 408.92 1601.47C409.201 1601.58 409.47 1601.72 409.725 1601.9C409.984 1602.08 410.197 1602.31 410.365 1602.6C410.532 1602.88 410.616 1603.22 410.616 1603.63C410.616 1604.1 410.493 1604.53 410.245 1604.91C410.001 1605.29 409.643 1605.59 409.172 1605.82C408.703 1606.04 408.133 1606.15 407.463 1606.15C406.838 1606.15 406.297 1606.05 405.839 1605.85C405.385 1605.65 405.027 1605.37 404.765 1605.01C404.507 1604.65 404.36 1604.23 404.326 1603.75H405.417C405.446 1604.08 405.556 1604.35 405.75 1604.57C405.946 1604.78 406.193 1604.94 406.491 1605.05C406.792 1605.15 407.116 1605.2 407.463 1605.2C407.866 1605.2 408.228 1605.13 408.549 1605C408.87 1604.87 409.125 1604.68 409.312 1604.45C409.5 1604.21 409.593 1603.93 409.593 1603.61C409.593 1603.32 409.512 1603.09 409.35 1602.91C409.189 1602.72 408.975 1602.58 408.711 1602.46C408.447 1602.35 408.162 1602.25 407.855 1602.16L406.781 1601.86C406.099 1601.66 405.559 1601.38 405.162 1601.02C404.764 1600.65 404.565 1600.18 404.565 1599.59C404.565 1599.1 404.697 1598.68 404.961 1598.31C405.228 1597.95 405.586 1597.66 406.035 1597.46C406.487 1597.26 406.991 1597.15 407.548 1597.15C408.11 1597.15 408.61 1597.25 409.048 1597.46C409.485 1597.65 409.832 1597.93 410.088 1598.27C410.346 1598.62 410.483 1599.01 410.497 1599.45H409.474ZM420.501 1599.45C420.45 1599.02 420.243 1598.69 419.879 1598.45C419.516 1598.21 419.07 1598.09 418.541 1598.09C418.155 1598.09 417.817 1598.15 417.527 1598.28C417.24 1598.4 417.016 1598.58 416.854 1598.79C416.695 1599.01 416.615 1599.26 416.615 1599.54C416.615 1599.77 416.67 1599.97 416.781 1600.14C416.895 1600.31 417.04 1600.44 417.216 1600.55C417.392 1600.66 417.577 1600.75 417.77 1600.82C417.963 1600.89 418.141 1600.95 418.303 1600.99L419.189 1601.23C419.416 1601.29 419.669 1601.37 419.947 1601.47C420.229 1601.58 420.497 1601.72 420.753 1601.9C421.011 1602.08 421.224 1602.31 421.392 1602.6C421.56 1602.88 421.643 1603.22 421.643 1603.63C421.643 1604.1 421.52 1604.53 421.273 1604.91C421.028 1605.29 420.67 1605.59 420.199 1605.82C419.73 1606.04 419.161 1606.15 418.49 1606.15C417.865 1606.15 417.324 1606.05 416.866 1605.85C416.412 1605.65 416.054 1605.37 415.793 1605.01C415.534 1604.65 415.388 1604.23 415.354 1603.75H416.445C416.473 1604.08 416.584 1604.35 416.777 1604.57C416.973 1604.78 417.22 1604.94 417.518 1605.05C417.82 1605.15 418.143 1605.2 418.49 1605.2C418.893 1605.2 419.256 1605.13 419.577 1605C419.898 1604.87 420.152 1604.68 420.339 1604.45C420.527 1604.21 420.621 1603.93 420.621 1603.61C420.621 1603.32 420.54 1603.09 420.378 1602.91C420.216 1602.72 420.003 1602.58 419.739 1602.46C419.474 1602.35 419.189 1602.25 418.882 1602.16L417.808 1601.86C417.126 1601.66 416.587 1601.38 416.189 1601.02C415.791 1600.65 415.592 1600.18 415.592 1599.59C415.592 1599.1 415.724 1598.68 415.989 1598.31C416.256 1597.95 416.614 1597.66 417.062 1597.46C417.514 1597.26 418.018 1597.15 418.575 1597.15C419.138 1597.15 419.638 1597.25 420.075 1597.46C420.513 1597.65 420.859 1597.93 421.115 1598.27C421.374 1598.62 421.51 1599.01 421.524 1599.45H420.501ZM430.745 1601.64C430.745 1602.56 430.578 1603.35 430.246 1604.02C429.914 1604.69 429.458 1605.21 428.878 1605.57C428.299 1605.94 427.637 1606.12 426.892 1606.12C426.148 1606.12 425.486 1605.94 424.907 1605.57C424.327 1605.21 423.871 1604.69 423.539 1604.02C423.206 1603.35 423.04 1602.56 423.04 1601.64C423.04 1600.72 423.206 1599.92 423.539 1599.25C423.871 1598.58 424.327 1598.06 424.907 1597.7C425.486 1597.34 426.148 1597.15 426.892 1597.15C427.637 1597.15 428.299 1597.34 428.878 1597.7C429.458 1598.06 429.914 1598.58 430.246 1599.25C430.578 1599.92 430.745 1600.72 430.745 1601.64ZM429.722 1601.64C429.722 1600.88 429.596 1600.24 429.343 1599.72C429.093 1599.2 428.753 1598.81 428.324 1598.54C427.898 1598.28 427.421 1598.14 426.892 1598.14C426.364 1598.14 425.885 1598.28 425.456 1598.54C425.03 1598.81 424.691 1599.2 424.438 1599.72C424.188 1600.24 424.063 1600.88 424.063 1601.64C424.063 1602.39 424.188 1603.03 424.438 1603.55C424.691 1604.07 425.03 1604.46 425.456 1604.73C425.885 1605 426.364 1605.13 426.892 1605.13C427.421 1605.13 427.898 1605 428.324 1604.73C428.753 1604.46 429.093 1604.07 429.343 1603.55C429.596 1603.03 429.722 1602.39 429.722 1601.64ZM439.544 1600H438.488C438.425 1599.7 438.316 1599.43 438.159 1599.2C438.006 1598.97 437.819 1598.78 437.597 1598.62C437.378 1598.46 437.135 1598.34 436.868 1598.26C436.601 1598.18 436.323 1598.14 436.033 1598.14C435.505 1598.14 435.026 1598.28 434.597 1598.54C434.171 1598.81 433.831 1599.2 433.578 1599.72C433.328 1600.24 433.203 1600.88 433.203 1601.64C433.203 1602.39 433.328 1603.03 433.578 1603.55C433.831 1604.07 434.171 1604.46 434.597 1604.73C435.026 1605 435.505 1605.13 436.033 1605.13C436.323 1605.13 436.601 1605.09 436.868 1605.01C437.135 1604.93 437.378 1604.81 437.597 1604.66C437.819 1604.5 438.006 1604.3 438.159 1604.07C438.316 1603.84 438.425 1603.57 438.488 1603.27H439.544C439.465 1603.72 439.32 1604.12 439.11 1604.47C438.9 1604.82 438.638 1605.12 438.326 1605.37C438.013 1605.61 437.662 1605.8 437.273 1605.93C436.887 1606.06 436.473 1606.12 436.033 1606.12C435.289 1606.12 434.627 1605.94 434.047 1605.57C433.468 1605.21 433.012 1604.69 432.679 1604.02C432.347 1603.35 432.181 1602.56 432.181 1601.64C432.181 1600.72 432.347 1599.92 432.679 1599.25C433.012 1598.58 433.468 1598.06 434.047 1597.7C434.627 1597.34 435.289 1597.15 436.033 1597.15C436.473 1597.15 436.887 1597.22 437.273 1597.35C437.662 1597.47 438.013 1597.66 438.326 1597.91C438.638 1598.15 438.9 1598.45 439.11 1598.8C439.32 1599.15 439.465 1599.55 439.544 1600ZM442.309 1597.27V1606H441.252V1597.27H442.309ZM444.786 1606H443.678L446.882 1597.27H447.973L451.178 1606H450.07L447.462 1598.65H447.394L444.786 1606ZM445.195 1602.59H449.661V1603.53H445.195V1602.59ZM453.594 1597.27V1606H452.537V1597.27H453.594ZM460.486 1599.45C460.435 1599.02 460.227 1598.69 459.864 1598.45C459.5 1598.21 459.054 1598.09 458.526 1598.09C458.139 1598.09 457.801 1598.15 457.511 1598.28C457.224 1598.4 457 1598.58 456.838 1598.79C456.679 1599.01 456.599 1599.26 456.599 1599.54C456.599 1599.77 456.655 1599.97 456.766 1600.14C456.879 1600.31 457.024 1600.44 457.2 1600.55C457.376 1600.66 457.561 1600.75 457.754 1600.82C457.947 1600.89 458.125 1600.95 458.287 1600.99L459.173 1601.23C459.401 1601.29 459.653 1601.37 459.932 1601.47C460.213 1601.58 460.482 1601.72 460.737 1601.9C460.996 1602.08 461.209 1602.31 461.376 1602.6C461.544 1602.88 461.628 1603.22 461.628 1603.63C461.628 1604.1 461.504 1604.53 461.257 1604.91C461.013 1605.29 460.655 1605.59 460.183 1605.82C459.714 1606.04 459.145 1606.15 458.474 1606.15C457.849 1606.15 457.308 1606.05 456.851 1605.85C456.396 1605.65 456.038 1605.37 455.777 1605.01C455.518 1604.65 455.372 1604.23 455.338 1603.75H456.429C456.457 1604.08 456.568 1604.35 456.761 1604.57C456.957 1604.78 457.205 1604.94 457.503 1605.05C457.804 1605.15 458.128 1605.2 458.474 1605.2C458.878 1605.2 459.24 1605.13 459.561 1605C459.882 1604.87 460.136 1604.68 460.324 1604.45C460.511 1604.21 460.605 1603.93 460.605 1603.61C460.605 1603.32 460.524 1603.09 460.362 1602.91C460.2 1602.72 459.987 1602.58 459.723 1602.46C459.459 1602.35 459.173 1602.25 458.866 1602.16L457.793 1601.86C457.111 1601.66 456.571 1601.38 456.173 1601.02C455.776 1600.65 455.577 1600.18 455.577 1599.59C455.577 1599.1 455.709 1598.68 455.973 1598.31C456.24 1597.95 456.598 1597.66 457.047 1597.46C457.499 1597.26 458.003 1597.15 458.56 1597.15C459.122 1597.15 459.622 1597.25 460.06 1597.46C460.497 1597.65 460.844 1597.93 461.099 1598.27C461.358 1598.62 461.494 1599.01 461.509 1599.45H460.486Z" fill="white"/>
<rect x="374" y="1556" width="33" height="27" fill="#D9D9D9"/>
<rect x="428" y="1557" width="33" height="27" fill="#D9D9D9"/>
<line x1="378.667" y1="1581.63" x2="406.667" y2="1556.63" stroke="black"/>
<line x1="375.333" y1="1558.63" x2="403.333" y2="1583.63" stroke="black"/>
<line x1="458.686" y1="1581.39" x2="427.686" y2="1556.39" stroke="black"/>
<line x1="461.298" y1="1559.4" x2="430.298" y2="1582.4" stroke="black"/>
<line x1="28" y1="1558.5" x2="115.207" y2="1558.5" stroke="white"/>
<line x1="28" y1="1571.5" x2="115.207" y2="1571.5" stroke="white"/>
<line x1="28" y1="1583.5" x2="115.207" y2="1583.5" stroke="white"/>
</g>
<defs>
<clipPath id="clip0_0_1">
<rect width="834" height="1626" fill="white"/>
</clipPath>
</defs>
</svg>
