<svg width="360" height="2070" viewBox="0 0 360 2070" fill="none" xmlns="http://www.w3.org/2000/svg">
<rect width="360" height="2070" fill="#F5F5F5"/>
<g clip-path="url(#clip0_0_1)">
<rect width="360" height="2070" fill="white"/>
<rect y="1091" width="360" height="492" fill="black"/>
<rect width="360" height="68" fill="black"/>
<rect x="134" y="13" width="72" height="43" fill="#D9D9D9"/>
<path d="M157.057 36V27.2727H158.114V35.0625H162.17V36H157.057ZM166.33 36.1364C165.739 36.1364 165.22 35.9957 164.774 35.7145C164.331 35.4332 163.984 35.0398 163.734 34.5341C163.487 34.0284 163.364 33.4375 163.364 32.7614C163.364 32.0795 163.487 31.4844 163.734 30.9759C163.984 30.4673 164.331 30.0724 164.774 29.7912C165.22 29.5099 165.739 29.3693 166.33 29.3693C166.92 29.3693 167.438 29.5099 167.881 29.7912C168.327 30.0724 168.673 30.4673 168.92 30.9759C169.17 31.4844 169.295 32.0795 169.295 32.7614C169.295 33.4375 169.17 34.0284 168.92 34.5341C168.673 35.0398 168.327 35.4332 167.881 35.7145C167.438 35.9957 166.92 36.1364 166.33 36.1364ZM166.33 35.233C166.778 35.233 167.148 35.1179 167.438 34.8878C167.727 34.6577 167.942 34.3551 168.081 33.9801C168.22 33.6051 168.29 33.1989 168.29 32.7614C168.29 32.3239 168.22 31.9162 168.081 31.5384C167.942 31.1605 167.727 30.8551 167.438 30.6222C167.148 30.3892 166.778 30.2727 166.33 30.2727C165.881 30.2727 165.511 30.3892 165.222 30.6222C164.932 30.8551 164.717 31.1605 164.578 31.5384C164.439 31.9162 164.369 32.3239 164.369 32.7614C164.369 33.1989 164.439 33.6051 164.578 33.9801C164.717 34.3551 164.932 34.6577 165.222 34.8878C165.511 35.1179 165.881 35.233 166.33 35.233ZM173.473 38.5909C172.987 38.5909 172.569 38.5284 172.22 38.4034C171.87 38.2812 171.579 38.1193 171.346 37.9176C171.116 37.7188 170.933 37.5057 170.797 37.2784L171.598 36.7159C171.689 36.8352 171.804 36.9716 171.943 37.125C172.082 37.2812 172.272 37.4162 172.514 37.5298C172.758 37.6463 173.078 37.7045 173.473 37.7045C174.001 37.7045 174.437 37.5767 174.781 37.321C175.125 37.0653 175.297 36.6648 175.297 36.1193V34.7898H175.211C175.137 34.9091 175.032 35.0568 174.896 35.233C174.762 35.4062 174.569 35.5611 174.316 35.6974C174.066 35.831 173.728 35.8977 173.302 35.8977C172.774 35.8977 172.299 35.7727 171.879 35.5227C171.461 35.2727 171.13 34.9091 170.886 34.4318C170.645 33.9545 170.524 33.375 170.524 32.6932C170.524 32.0227 170.642 31.4389 170.877 30.9418C171.113 30.4418 171.441 30.0554 171.862 29.7827C172.282 29.5071 172.768 29.3693 173.319 29.3693C173.745 29.3693 174.083 29.4403 174.333 29.5824C174.586 29.7216 174.779 29.8807 174.913 30.0597C175.049 30.2358 175.154 30.3807 175.228 30.4943H175.331V29.4545H176.302V36.1875C176.302 36.75 176.174 37.2074 175.919 37.5597C175.666 37.9148 175.325 38.1747 174.896 38.3395C174.47 38.5071 173.995 38.5909 173.473 38.5909ZM173.439 34.9943C173.842 34.9943 174.183 34.902 174.461 34.7173C174.74 34.5327 174.951 34.267 175.096 33.9205C175.241 33.5739 175.314 33.1591 175.314 32.6761C175.314 32.2045 175.243 31.7884 175.1 31.4276C174.958 31.0668 174.748 30.7841 174.47 30.5795C174.191 30.375 173.848 30.2727 173.439 30.2727C173.012 30.2727 172.657 30.3807 172.373 30.5966C172.092 30.8125 171.88 31.1023 171.738 31.4659C171.599 31.8295 171.529 32.233 171.529 32.6761C171.529 33.1307 171.6 33.5327 171.743 33.8821C171.887 34.2287 172.1 34.5014 172.382 34.7003C172.666 34.8963 173.018 34.9943 173.439 34.9943ZM180.802 36.1364C180.211 36.1364 179.693 35.9957 179.247 35.7145C178.804 35.4332 178.457 35.0398 178.207 34.5341C177.96 34.0284 177.836 33.4375 177.836 32.7614C177.836 32.0795 177.96 31.4844 178.207 30.9759C178.457 30.4673 178.804 30.0724 179.247 29.7912C179.693 29.5099 180.211 29.3693 180.802 29.3693C181.393 29.3693 181.91 29.5099 182.353 29.7912C182.799 30.0724 183.146 30.4673 183.393 30.9759C183.643 31.4844 183.768 32.0795 183.768 32.7614C183.768 33.4375 183.643 34.0284 183.393 34.5341C183.146 35.0398 182.799 35.4332 182.353 35.7145C181.91 35.9957 181.393 36.1364 180.802 36.1364ZM180.802 35.233C181.251 35.233 181.62 35.1179 181.91 34.8878C182.2 34.6577 182.414 34.3551 182.554 33.9801C182.693 33.6051 182.762 33.1989 182.762 32.7614C182.762 32.3239 182.693 31.9162 182.554 31.5384C182.414 31.1605 182.2 30.8551 181.91 30.6222C181.62 30.3892 181.251 30.2727 180.802 30.2727C180.353 30.2727 179.984 30.3892 179.694 30.6222C179.404 30.8551 179.19 31.1605 179.051 31.5384C178.912 31.9162 178.842 32.3239 178.842 32.7614C178.842 33.1989 178.912 33.6051 179.051 33.9801C179.19 34.3551 179.404 34.6577 179.694 34.8878C179.984 35.1179 180.353 35.233 180.802 35.233Z" fill="black"/>
<line x1="49" y1="21.5" x2="18" y2="21.5" stroke="white"/>
<line x1="49" y1="34.5" x2="18" y2="34.5" stroke="white"/>
<line x1="49" y1="46.5" x2="18" y2="46.5" stroke="white"/>
<rect x="281" y="23" width="25" height="23" fill="#D9D9D9"/>
<rect x="320" y="23" width="25" height="23" fill="#D9D9D9"/>
<line x1="282.682" y1="42.6145" x2="305.682" y2="23.6145" stroke="black"/>
<line x1="305.67" y1="46.3754" x2="280.67" y2="24.3754" stroke="black"/>
<line x1="320.671" y1="44.6237" x2="344.671" y2="23.6237" stroke="black"/>
<line x1="343.663" y1="45.3692" x2="320.663" y2="24.3692" stroke="black"/>
<rect y="80" width="360" height="247" fill="#D9D9D9"/>
<rect y="339" width="360" height="247" fill="#D9D9D9"/>
<line x1="-0.283653" y1="328.588" x2="359.716" y2="80.5882" stroke="black"/>
<line x1="-0.283653" y1="586.588" x2="359.716" y2="338.588" stroke="black"/>
<line x1="359.718" y1="329.413" x2="-0.282094" y2="83.4128" stroke="black"/>
<line x1="359.718" y1="588.413" x2="-0.282094" y2="342.413" stroke="black"/>
<rect y="630" width="360" height="436" fill="#D9D9D9"/>
<line x1="319.38" y1="599.675" x2="331.38" y2="613.675" stroke="black"/>
<line x1="331.252" y1="614.432" x2="319.252" y2="621.432" stroke="black"/>
<line x1="-0.38666" y1="1062.68" x2="354.613" y2="629.683" stroke="black"/>
<line x1="0.383745" y1="631.679" x2="360.384" y2="1062.68" stroke="black"/>
<rect y="1118" width="360" height="128" fill="#D9D9D9"/>
<rect y="1268" width="360" height="128" fill="#D9D9D9"/>
<line x1="0.168665" y1="1267.53" x2="360.169" y2="1396.53" stroke="black"/>
<rect y="1418" width="360" height="128" fill="#D9D9D9"/>
<line x1="0.167505" y1="1418.53" x2="360.167" y2="1546.53" stroke="black"/>
<rect y="1602" width="360" height="259" fill="#D9D9D9"/>
<rect y="1869" width="360" height="201" fill="black"/>
<line x1="0.167505" y1="1117.53" x2="360.167" y2="1245.53" stroke="black"/>
<line x1="-0.168665" y1="1246.53" x2="359.831" y2="1117.53" stroke="black"/>
<line x1="-0.292004" y1="1860.59" x2="359.708" y2="1601.59" stroke="black"/>
<line x1="359.708" y1="1861.41" x2="-0.292002" y2="1602.41" stroke="black"/>
<line x1="-0.168665" y1="1545.53" x2="359.831" y2="1416.53" stroke="black"/>
<line x1="-0.168665" y1="1396.53" x2="359.831" y2="1267.53" stroke="black"/>
<rect x="144" y="1908" width="27" height="27" fill="#D9D9D9"/>
<rect x="193" y="1908" width="25" height="27" fill="#D9D9D9"/>
<line x1="22.9279" y1="1923.54" x2="79.0705" y2="1923.46" stroke="white"/>
<line x1="22.9992" y1="1934.59" x2="79.1418" y2="1934.5" stroke="white"/>
<line x1="22.9992" y1="1912.59" x2="79.1418" y2="1912.5" stroke="white"/>
<line x1="146.633" y1="1933.66" x2="170.633" y2="1907.66" stroke="black"/>
<line x1="144.354" y1="1907.65" x2="171.354" y2="1934.65" stroke="black"/>
<line x1="192.633" y1="1934.66" x2="217.633" y2="1907.66" stroke="black"/>
<line x1="193.354" y1="1908.65" x2="218.354" y2="1933.65" stroke="black"/>
</g>
<defs>
<clipPath id="clip0_0_1">
<rect width="360" height="2070" fill="white"/>
</clipPath>
</defs>
</svg>
