<?xml version="1.0" encoding="UTF-8"?>
<svg xmlns="http://www.w3.org/2000/svg" xmlns:xlink="http://www.w3.org/1999/xlink" width="25px" height="25px" viewBox="0 0 25 24" version="1.1">
<g id="surface1">
<path style=" stroke:none;fill-rule:nonzero;fill:rgb(100%,100%,100%);fill-opacity:1;" d="M 12.488281 0 C 5.597656 0 0 5.390625 0 12.03125 C 0 18.671875 5.597656 24.0625 12.488281 24.0625 C 19.382812 24.0625 24.980469 18.671875 24.980469 12.03125 C 24.980469 5.390625 19.332031 0 12.488281 0 Z M 20.054688 10.285156 L 19.847656 12.929688 L 17.050781 12.929688 L 17.050781 22.113281 L 13.472656 22.113281 L 13.472656 12.929688 L 11.558594 12.929688 L 11.558594 10.285156 L 13.472656 10.285156 L 13.472656 8.484375 C 13.472656 7.6875 13.472656 6.488281 14.097656 5.742188 C 14.71875 4.941406 15.597656 4.394531 17.050781 4.394531 C 19.433594 4.394531 20.472656 4.742188 20.472656 4.742188 L 19.953125 7.488281 C 19.953125 7.488281 19.175781 7.289062 18.398438 7.289062 C 17.671875 7.289062 17 7.539062 17 8.238281 L 17 10.285156 Z M 20.054688 10.285156 "/>
</g>
</svg>
