<?xml version="1.0" encoding="UTF-8"?>
<svg xmlns="http://www.w3.org/2000/svg" xmlns:xlink="http://www.w3.org/1999/xlink" width="25px" height="25px" viewBox="0 0 25 25" version="1.1">
<g id="surface1">
<path style=" stroke:none;fill-rule:nonzero;fill:rgb(100%,100%,100%);fill-opacity:1;" d="M 15.839844 6.042969 L 9.117188 6.042969 C 7.398438 6.042969 5.992188 7.453125 5.992188 9.171875 L 5.992188 15.894531 C 5.992188 17.613281 7.398438 19.019531 9.117188 19.019531 L 15.839844 19.019531 C 17.558594 19.019531 18.96875 17.613281 18.96875 15.894531 L 18.96875 9.117188 C 18.96875 7.453125 17.558594 6.042969 15.839844 6.042969 Z M 12.507812 16.519531 C 10.316406 16.519531 8.492188 14.746094 8.492188 12.507812 C 8.492188 10.316406 10.265625 8.492188 12.507812 8.492188 C 14.695312 8.492188 16.519531 10.265625 16.519531 12.507812 C 16.519531 14.695312 14.695312 16.519531 12.507812 16.519531 Z M 16.675781 9.222656 C 16.152344 9.222656 15.738281 8.804688 15.738281 8.285156 C 15.738281 7.765625 16.152344 7.347656 16.675781 7.347656 C 17.195312 7.347656 17.613281 7.765625 17.613281 8.285156 C 17.613281 8.804688 17.195312 9.222656 16.675781 9.222656 Z M 16.675781 9.222656 "/>
<path style=" stroke:none;fill-rule:nonzero;fill:rgb(100%,100%,100%);fill-opacity:1;" d="M 12.507812 0 C 5.574219 0 0 5.574219 0 12.507812 C 0 19.4375 5.574219 25.011719 12.507812 25.011719 C 19.4375 25.011719 25.011719 19.4375 25.011719 12.507812 C 25.011719 5.574219 19.4375 0 12.507812 0 Z M 20.320312 15.839844 C 20.320312 18.289062 18.34375 20.269531 15.894531 20.269531 L 9.117188 20.269531 C 6.722656 20.320312 4.691406 18.289062 4.691406 15.839844 L 4.691406 9.117188 C 4.691406 6.667969 6.722656 4.691406 9.117188 4.691406 L 15.839844 4.691406 C 18.289062 4.691406 20.269531 6.667969 20.269531 9.117188 L 20.269531 15.839844 Z M 20.320312 15.839844 "/>
<path style=" stroke:none;fill-rule:nonzero;fill:rgb(100%,100%,100%);fill-opacity:1;" d="M 12.507812 9.847656 C 11.046875 9.847656 9.847656 11.046875 9.847656 12.507812 C 9.847656 13.964844 11.046875 15.164062 12.507812 15.164062 C 13.964844 15.164062 15.164062 13.964844 15.164062 12.507812 C 15.164062 11.046875 13.964844 9.847656 12.507812 9.847656 Z M 12.507812 9.847656 "/>
</g>
</svg>
