<?xml version="1.0" encoding="UTF-8"?>
<svg xmlns="http://www.w3.org/2000/svg" xmlns:xlink="http://www.w3.org/1999/xlink" width="25px" height="25px" viewBox="0 0 25 24" version="1.1">
<g id="surface1">
<path style=" stroke:none;fill-rule:nonzero;fill:rgb(100%,100%,100%);fill-opacity:1;" d="M 12.488281 0 C 5.597656 0 0 5.390625 0 12.03125 C 0 18.671875 5.597656 24.0625 12.488281 24.0625 C 19.382812 24.0625 24.980469 18.671875 24.980469 12.03125 C 24.980469 5.390625 19.332031 0 12.488281 0 Z M 18.140625 9.183594 L 18.140625 9.535156 C 18.140625 13.277344 15.183594 17.570312 9.796875 17.570312 C 8.136719 17.570312 6.582031 17.121094 5.285156 16.324219 C 5.492188 16.375 5.753906 16.375 6.011719 16.375 C 7.410156 16.375 8.65625 15.925781 9.640625 15.175781 C 8.34375 15.175781 7.253906 14.328125 6.894531 13.230469 C 7.046875 13.277344 7.253906 13.277344 7.460938 13.277344 C 7.722656 13.277344 7.980469 13.230469 8.238281 13.179688 C 6.894531 12.929688 5.90625 11.78125 5.90625 10.382812 L 5.90625 10.332031 C 6.324219 10.53125 6.738281 10.683594 7.253906 10.683594 C 6.476562 10.183594 5.960938 9.285156 5.960938 8.335938 C 5.960938 7.835938 6.117188 7.339844 6.375 6.890625 C 7.824219 8.585938 10.003906 9.734375 12.4375 9.835938 C 12.386719 9.632812 12.386719 9.433594 12.386719 9.183594 C 12.386719 7.636719 13.683594 6.339844 15.339844 6.339844 C 16.167969 6.339844 16.945312 6.6875 17.464844 7.238281 C 18.140625 7.089844 18.761719 6.890625 19.332031 6.539062 C 19.125 7.1875 18.65625 7.738281 18.035156 8.085938 C 18.605469 8.035156 19.175781 7.886719 19.746094 7.636719 C 19.226562 8.285156 18.761719 8.785156 18.140625 9.183594 Z M 18.140625 9.183594 "/>
</g>
</svg>
