<?xml version="1.0" encoding="UTF-8"?>
<svg xmlns="http://www.w3.org/2000/svg" xmlns:xlink="http://www.w3.org/1999/xlink" width="25px" height="25px" viewBox="0 0 25 24" version="1.1">
<g id="surface1">
<path style=" stroke:none;fill-rule:nonzero;fill:rgb(100%,100%,100%);fill-opacity:1;" d="M 12.5 0 C 5.597656 0 0 5.382812 0 12.019531 C 0 18.660156 5.597656 24.042969 12.5 24.042969 C 19.402344 24.042969 25 18.660156 25 12.019531 C 25 5.382812 19.371094 0 12.5 0 Z M 20.429688 15.878906 C 20.242188 16.566406 19.683594 17.105469 18.96875 17.285156 C 17.664062 17.640625 12.5 17.640625 12.5 17.640625 C 12.5 17.640625 7.308594 17.640625 6.03125 17.3125 C 5.316406 17.132812 4.757812 16.59375 4.570312 15.90625 C 4.230469 14.652344 4.230469 12.050781 4.230469 12.050781 C 4.230469 12.050781 4.230469 9.449219 4.570312 8.191406 C 4.757812 7.503906 5.316406 6.96875 6.03125 6.789062 C 7.339844 6.457031 12.5 6.457031 12.5 6.457031 C 12.5 6.457031 17.695312 6.457031 18.96875 6.789062 C 19.683594 6.96875 20.242188 7.503906 20.429688 8.191406 C 20.773438 9.449219 20.773438 12.050781 20.773438 12.050781 C 20.773438 12.050781 20.773438 14.621094 20.429688 15.878906 Z M 20.429688 15.878906 "/>
<path style=" stroke:none;fill-rule:nonzero;fill:rgb(100%,100%,100%);fill-opacity:1;" d="M 10.105469 15.21875 L 15.953125 12.019531 L 10.105469 8.820312 Z M 10.105469 15.21875 "/>
</g>
</svg>
