<?xml version="1.0" standalone="no"?>
<!DOCTYPE svg PUBLIC "-//W3C//DTD SVG 20010904//EN"
 "http://www.w3.org/TR/2001/REC-SVG-20010904/DTD/svg10.dtd">
<svg version="1.0" xmlns="http://www.w3.org/2000/svg"
 width="747.000000pt" height="560.000000pt" viewBox="0 0 747.000000 560.000000"
 preserveAspectRatio="xMidYMid meet">

<g transform="translate(0.000000,560.000000) scale(0.100000,-0.100000)"
fill="#000000" stroke="none">
<path d="M6375 4420 c-4 -6 34 -10 107 -10 133 0 217 -18 302 -62 73 -39 184
-147 210 -206 21 -46 42 -59 25 -15 -13 36 -70 107 -128 161 -54 50 -183 116
-259 131 -67 14 -249 14 -257 1z"/>
<path d="M6228 4099 l-3 -264 -2 218 -3 217 -30 0 c-19 0 -33 -7 -40 -21 -14
-25 -11 -312 3 -379 7 -31 6 -45 -2 -48 -6 -2 -11 -19 -11 -38 0 -22 -4 -33
-10 -29 -6 4 -211 3 -455 -1 -402 -6 -445 -9 -445 -23 0 -26 -28 -59 -53 -63
-14 -2 -23 -11 -25 -25 -4 -25 -18 -31 -25 -10 -2 6 -2 3 0 -8 2 -11 5 -472 7
-1025 3 -718 2 -873 -4 -545 -4 253 -8 655 -9 893 -1 425 -1 432 -21 432 -11
0 -20 -4 -20 -10 0 -5 -9 -10 -20 -10 -13 0 -20 7 -20 20 0 17 7 20 40 20 l40
0 0 75 c0 68 -2 75 -20 76 -132 3 -175 0 -179 -12 -2 -8 -13 -20 -23 -27 -13
-9 -18 -23 -16 -40 2 -22 -2 -28 -19 -30 -20 -3 -23 1 -23 27 0 24 -4 31 -20
31 -13 0 -20 7 -20 20 0 17 -7 20 -40 20 -22 0 -40 -4 -40 -10 0 -5 -22 -10
-50 -10 l-50 0 0 53 c0 48 -3 55 -26 66 -25 11 -30 8 -88 -46 -70 -67 -85 -86
-129 -168 l-32 -60 -5 -297 c-3 -163 -8 -299 -11 -303 -7 -6 -13 93 -25 375
-6 135 -9 151 -19 125 -7 -16 -16 -75 -19 -130 -8 -105 -21 -150 -46 -150 -11
0 -18 20 -26 70 l-11 70 -34 -70 -34 -70 -5 220 c-5 233 -11 261 -53 269 -12
3 -78 8 -147 11 -69 4 -143 8 -165 10 -41 4 -152 12 -285 20 -41 2 -145 9
-230 14 -85 6 -198 13 -250 16 -52 3 -129 8 -170 10 -185 13 -221 15 -325 20
-60 3 -164 10 -230 15 -150 11 -214 14 -292 15 -37 0 -59 4 -56 10 3 6 0 5 -7
-2 -8 -7 -19 -9 -29 -4 -24 13 -121 19 -121 8 0 -5 7 -7 15 -4 8 4 17 2 19 -2
3 -5 -4 -8 -15 -7 -11 0 -24 8 -29 16 -9 13 -11 13 -20 0 -8 -12 -12 -12 -18
-2 -6 9 -29 13 -63 13 -54 -1 -126 3 -275 15 -77 6 -82 6 -99 -17 -11 -15 -15
-17 -12 -6 7 18 5 19 -40 21 -18 1 -27 -5 -29 -16 -3 -21 21 -42 38 -33 7 4 5
0 -4 -8 -22 -17 -11 -32 11 -14 14 11 14 10 2 -6 -13 -16 -16 -16 -47 8 -18
14 -42 25 -52 25 -15 0 -19 5 -15 20 3 11 13 20 22 21 21 0 -11 14 -56 22 -26
5 -33 3 -33 -9 0 -10 6 -14 15 -10 8 3 15 1 15 -5 0 -7 -10 -9 -26 -5 -14 4
-23 3 -20 -2 8 -13 -11 -35 -23 -28 -6 4 -9 11 -6 16 7 12 -32 33 -45 25 -6
-4 -9 -9 -6 -13 2 -4 0 -16 -5 -27 -6 -16 -8 -13 -9 15 -1 19 -4 29 -7 23 -8
-20 -22 -15 -16 6 3 10 -1 22 -8 27 -9 5 -11 2 -6 -12 7 -18 7 -18 -7 0 -13
15 -30 19 -115 20 -60 0 -101 5 -101 11 0 6 -5 3 -10 -5 -5 -8 -10 -10 -10 -4
0 14 -81 15 -98 1 -9 -7 -16 -7 -25 2 -9 10 -8 11 8 6 16 -5 17 -5 5 3 -10 8
-19 7 -29 -1 -12 -9 -13 -9 -8 0 12 20 -56 7 -70 -13 -7 -10 -13 -14 -13 -8 0
5 9 20 18 32 l18 24 175 -12 c153 -10 572 -37 1284 -85 121 -8 456 -31 745
-50 289 -19 620 -42 735 -50 294 -21 492 -34 550 -37 l50 -2 3 171 4 172 -26
24 c-32 30 -29 29 -461 62 -1400 105 -2890 213 -2965 216 -73 2 -76 2 -94 -17
-13 -12 -16 -45 -18 -172 -1 -86 -4 -122 -5 -80 -4 73 -5 78 -28 84 -28 7 -29
12 -15 48 8 21 6 27 -10 36 -28 15 -29 14 -33 -37 -2 -27 -4 -6 -5 46 -2 87
-3 93 -19 80 -16 -13 -17 -12 -4 3 7 10 17 16 21 13 13 -8 43 33 36 50 -9 24
-42 2 -66 -45 -11 -22 -34 -47 -50 -55 l-30 -16 0 -215 c0 -125 -4 -223 -10
-234 -6 -11 -39 -28 -83 -41 -39 -13 -76 -27 -82 -31 -7 -6 -9 -401 -7 -1161
l4 -1152 21 -23 21 -22 1990 0 c1356 0 2005 -3 2036 -11 24 -5 62 -7 85 -4 57
10 157 68 198 115 19 22 37 40 40 40 4 0 28 -15 54 -34 62 -43 94 -59 173 -85
58 -19 86 -22 260 -21 107 1 204 -2 215 -7 11 -4 248 -8 526 -8 414 0 509 2
522 14 15 12 17 48 17 331 l0 318 198 2 197 1 38 -133 c94 -336 251 -528 431
-528 154 0 269 111 320 308 34 128 18 446 -34 707 -11 55 -29 150 -40 210 -73
398 -118 556 -207 727 l-48 93 -5 -480 c-4 -315 -9 -490 -17 -510 -20 -55 -25
-65 -32 -65 -3 0 -6 55 -6 122 0 68 -4 273 -9 456 -8 313 -10 332 -27 332 -16
0 -19 8 -19 60 0 33 -4 60 -10 60 -5 0 -10 7 -10 16 0 22 -32 53 -38 36 -5
-17 -29 -15 -79 6 -28 11 -43 23 -43 35 0 11 -10 20 -30 24 -16 3 -30 9 -30
14 0 5 -7 9 -15 9 -8 0 -15 -4 -15 -9 0 -14 -38 -5 -55 13 -17 17 -20 46 -5
46 6 0 10 10 10 22 0 12 15 38 33 57 21 24 24 29 7 16 -15 -12 -10 -3 13 23
24 27 37 52 37 70 0 26 2 28 35 24 30 -4 40 1 70 32 18 20 32 36 30 36 -2 0
12 15 31 34 38 38 46 87 19 122 -14 18 -14 18 -8 -3 4 -20 1 -19 -30 10 -19
18 -30 34 -25 36 5 2 15 -2 21 -8 6 -6 15 -11 20 -11 5 0 2 7 -7 15 -19 19
-75 19 -102 0 -12 -8 -24 -12 -28 -10 -3 3 -4 2 -1 -2 3 -3 -3 -16 -14 -27
-28 -31 -61 -94 -61 -116 0 -17 -7 -20 -46 -20 -27 0 -43 -4 -39 -10 3 -5 0
-10 -8 -10 -19 0 -79 -60 -95 -95 -13 -29 -18 -150 -8 -183 7 -21 -39 -69 -48
-49 -2 7 -5 2 -5 -10 -1 -22 -31 -34 -31 -13 0 15 -26 12 -40 -5 -15 -18 -61
-20 -78 -3 -9 9 -13 6 -20 -12 -13 -35 -18 124 -21 620 -2 234 -5 427 -7 429
-2 2 -5 -115 -6 -260z m-5898 1 c0 -5 -5 -10 -11 -10 -5 0 -7 5 -4 10 3 6 8
10 11 10 2 0 4 -4 4 -10z m6523 -305 c20 -42 22 -54 5 -37 -16 16 -45 15 -51
0 -2 -7 -7 -11 -10 -8 -6 6 23 80 32 80 4 0 15 -16 24 -35z m-710 -74 c3 -11
20 -29 38 -40 19 -12 29 -21 23 -21 -6 0 -28 12 -49 26 l-38 26 -439 -4 c-331
-2 -438 0 -438 9 0 6 8 14 18 16 9 3 211 5 448 6 420 1 432 0 437 -18z m-5733
-36 c-13 -14 -28 -25 -34 -25 -5 0 3 13 19 30 16 16 31 28 33 25 3 -3 -5 -16
-18 -30z m224 -52 c-10 -7 -16 -13 -13 -14 2 0 13 -2 24 -4 11 -2 28 3 37 12
14 12 21 13 32 4 10 -8 16 -9 21 -1 3 6 11 8 16 4 6 -4 6 -11 -2 -20 -6 -7
-15 -11 -21 -8 -20 12 -37 -17 -31 -53 4 -25 3 -34 -5 -29 -13 7 -13 64 0 72
4 3 6 10 2 15 -8 14 -34 -9 -28 -26 3 -7 0 -16 -7 -21 -7 -4 -10 -3 -6 4 12
18 -4 41 -26 37 -11 -3 -26 0 -33 6 -7 6 -19 7 -26 3 -10 -5 -11 -4 0 7 9 10
15 10 24 1 16 -16 31 -15 21 1 -11 18 -12 37 -2 37 5 0 9 -4 9 -10 0 -5 5 -10
11 -10 6 0 8 7 5 16 -3 9 -3 21 1 27 5 8 9 3 11 -12 3 -15 -3 -30 -14 -38z
m168 29 c-2 -7 -7 -10 -10 -8 -3 3 -12 0 -21 -7 -14 -10 -14 -10 -3 5 10 13
10 17 0 21 -7 2 -1 4 13 3 17 -1 25 -6 21 -14z m5885 -4 c13 -12 23 -29 23
-37 -1 -10 -6 -7 -15 9 -7 14 -26 30 -42 37 -21 9 -23 12 -9 13 11 0 30 -10
43 -22z m-6003 -3 c-4 -8 -8 -15 -10 -15 -2 0 -4 7 -4 15 0 8 4 15 10 15 5 0
7 -7 4 -15z m-246 -24 c-2 -10 3 -25 10 -34 11 -12 11 -17 0 -23 -7 -4 -10 -4
-6 1 4 4 3 14 -4 22 -14 18 -20 66 -7 57 6 -3 9 -14 7 -23z m107 -23 c-2 -18
0 -37 3 -43 3 -5 7 -18 7 -29 2 -18 1 -18 -12 -1 -7 11 -13 13 -13 7 0 -7 -5
-12 -12 -12 -7 0 -6 6 3 18 9 9 15 36 14 59 0 23 2 40 6 37 4 -2 5 -18 4 -36z
m777 15 c-6 -3 -10 -8 -8 -12 3 -4 -1 -8 -9 -8 -13 0 -12 4 2 19 9 10 19 15
22 12 3 -4 0 -9 -7 -11z m83 6 c6 -4 24 -6 42 -4 18 1 30 -2 28 -6 -3 -4 -21
-6 -39 -5 -47 4 -64 -7 -44 -28 14 -14 18 -14 28 -1 7 8 17 15 22 15 6 0 0 -9
-13 -21 -18 -16 -20 -19 -6 -15 11 3 16 2 12 -4 -9 -15 -17 -12 -45 13 -25 22
-40 54 -20 42 5 -3 10 -1 10 4 0 17 -18 13 -29 -6 -9 -16 -10 -15 -11 5 0 20
5 23 28 21 15 -2 32 -6 37 -10z m5241 -1 c5 -7 9 -24 9 -38 0 -20 -6 -26 -27
-28 -26 -3 -28 -1 -28 31 0 18 3 37 7 40 10 11 30 8 39 -5z m-5056 -14 c0 -2
-9 -4 -21 -4 -11 0 -18 4 -14 10 5 8 35 3 35 -6z m37 -7 c0 -8 -6 -14 -13 -14
-7 0 -10 6 -7 14 3 7 8 13 12 13 4 0 8 -6 8 -13z m-638 -13 c7 5 9 1 5 -8 -5
-14 -24 -23 -24 -12 0 2 -3 13 -6 23 -4 14 -4 15 4 4 5 -7 15 -11 21 -7z
m-229 -9 c-10 -12 -10 -15 3 -15 8 0 18 6 20 13 4 8 8 8 14 2 4 -5 15 -10 23
-10 8 0 19 5 23 10 5 6 7 4 4 -5 -2 -10 -15 -14 -36 -13 -21 1 -31 -2 -28 -10
2 -7 14 -11 25 -9 29 4 28 -14 -1 -20 -31 -6 -54 2 -37 12 9 6 3 13 -19 24
-31 17 -43 30 -17 20 8 -3 17 -1 21 5 3 6 9 11 12 11 3 0 0 -7 -7 -15z m135
-16 c4 -10 11 -19 16 -19 5 0 9 -5 9 -10 0 -6 -8 -5 -19 2 -11 7 -17 16 -14
22 4 5 0 7 -8 4 -10 -4 -15 1 -15 12 0 23 23 15 31 -11z m600 21 c-3 -5 -13
-10 -21 -10 -8 0 -12 5 -9 10 3 6 13 10 21 10 8 0 12 -4 9 -10z m-982 -7 c-7
-2 -19 -2 -25 0 -7 3 -2 5 12 5 14 0 19 -2 13 -5z m587 -3 c0 -5 -4 -10 -10
-10 -5 0 -10 5 -10 10 0 6 5 10 10 10 6 0 10 -4 10 -10z m1054 1 c3 -5 -1 -11
-9 -14 -9 -4 -12 -1 -8 9 6 16 10 17 17 5z m-989 -11 c4 -6 1 -9 -6 -8 -7 2
-16 -8 -20 -22 -7 -24 -10 -22 -13 10 -1 12 8 21 31 29 1 1 5 -4 8 -9z m468
-7 c-3 -7 -9 -13 -15 -13 -5 0 -7 4 -4 9 4 5 0 11 -6 14 -7 3 -3 4 8 4 14 -1
20 -6 17 -14z m-366 -15 c-3 -8 -6 -5 -6 6 -1 11 2 17 5 13 3 -3 4 -12 1 -19z
m88 12 c3 -6 -1 -7 -9 -4 -18 7 -21 14 -7 14 6 0 13 -4 16 -10z m231 -14 c0
-14 -5 -21 -9 -17 -4 4 -5 15 -1 24 9 24 12 21 10 -7z m224 9 c-5 -7 -9 -14
-7 -16 1 -2 0 -3 -2 -1 -11 7 -7 29 5 29 9 0 11 -4 4 -12z m-810 -4 c0 -9 -20
-37 -20 -29 0 3 -2 13 -5 21 -4 8 0 14 10 14 8 0 15 -3 15 -6z m-360 -6 c0 -2
-6 -8 -13 -14 -10 -8 -14 -7 -14 2 0 8 6 14 14 14 7 0 13 -1 13 -2z m315 -5
c3 -6 -1 -7 -9 -4 -18 7 -21 14 -7 14 6 0 13 -4 16 -10z m125 0 c8 -5 10 -10
3 -10 -6 0 -10 -8 -8 -17 1 -10 0 -12 -2 -5 -4 12 -18 16 -37 13 -5 -1 -4 5 4
13 15 18 20 19 40 6z m461 -13 c-10 -9 -11 -8 -5 6 3 10 9 15 12 12 3 -3 0
-11 -7 -18z m849 19 c0 -2 -8 -10 -17 -17 -16 -13 -17 -12 -4 4 13 16 21 21
21 13z m-1492 -18 c-2 -6 -10 -14 -16 -16 -7 -2 -10 2 -6 12 7 18 28 22 22 4z
m560 -5 c-12 -14 -38 -18 -38 -5 0 14 11 21 30 19 14 -1 16 -4 8 -14z m-462
-51 c-3 -2 -15 3 -27 12 -14 10 -27 12 -34 6 -7 -6 -11 -3 -11 10 0 18 2 18
38 -2 21 -12 36 -23 34 -26z m214 33 c0 -2 -9 -3 -19 -2 -11 0 -18 5 -15 9 4
6 34 0 34 -7z m-177 -2 c-7 -2 -19 -2 -25 0 -7 3 -2 5 12 5 14 0 19 -2 13 -5z
m228 -8 c0 -5 -5 -11 -13 -13 -10 -3 -10 -1 1 6 11 8 10 11 -5 15 -16 5 -16 6
-1 4 10 -1 18 -6 18 -12z m-411 1 c0 -3 -4 -8 -10 -11 -5 -3 -10 -1 -10 4 0 6
5 11 10 11 6 0 10 -2 10 -4z m60 0 c0 -3 -4 -8 -10 -11 -5 -3 -10 -1 -10 4 0
6 5 11 10 11 6 0 10 -2 10 -4z m4160 -16 c-6 -11 -16 -20 -22 -20 -6 0 -3 9 7
20 10 11 20 20 22 20 2 0 -1 -9 -7 -20z m-4284 -37 c-7 -38 -14 -38 -12 1 0
19 4 32 9 29 4 -2 5 -16 3 -30z m184 13 c0 -3 -4 -8 -10 -11 -5 -3 -10 -1 -10
4 0 6 5 11 10 11 6 0 10 -2 10 -4z m47 -26 c-2 -11 -6 -22 -9 -26 -4 -3 -5 2
-3 13 2 10 4 21 4 26 1 4 3 7 6 7 3 0 4 -9 2 -20z m-513 -20 c-6 -6 -10 -3
-10 10 0 13 4 16 10 10 7 -7 7 -13 0 -20z m90 12 c2 -4 -4 -8 -14 -8 -10 0
-16 4 -14 8 3 4 9 8 14 8 5 0 11 -4 14 -8z m390 -8 c3 -8 2 -12 -4 -9 -6 3
-10 10 -10 16 0 14 7 11 14 -7z m246 6 c0 -5 -4 -10 -10 -10 -5 0 -10 5 -10
10 0 6 5 10 10 10 6 0 10 -4 10 -10z m157 -5 c-6 -7 -19 -10 -29 -7 -31 8 -28
17 7 18 25 1 30 -2 22 -11z m86 8 c-7 -2 -19 -2 -25 0 -7 3 -2 5 12 5 14 0 19
-2 13 -5z m-412 -10 c0 -5 2 -18 3 -30 1 -12 -1 -20 -6 -17 -5 4 -7 12 -4 19
2 7 -1 18 -7 24 -8 8 -8 11 1 11 7 0 12 -3 13 -7z m144 -73 c3 -5 -1 -10 -9
-10 -9 0 -16 5 -16 10 0 6 4 10 9 10 6 0 13 -4 16 -10z m3677 -68 c15 -15 30
-43 33 -62 l6 -35 -21 38 c-11 20 -40 51 -63 68 -40 30 -41 31 -12 25 17 -4
42 -19 57 -34z m-4032 -6 c0 -3 -4 -8 -10 -11 -5 -3 -10 -1 -10 4 0 6 5 11 10
11 6 0 10 -2 10 -4z m4009 -42 c12 -15 21 -31 21 -37 0 -14 -78 56 -79 71 -1
18 32 -1 58 -34z m1908 11 c13 -9 28 -27 33 -41 15 -38 12 -38 -14 -7 -14 16
-43 38 -65 48 -23 10 -41 22 -41 26 0 10 57 -7 87 -26z m-38 -36 c18 -11 31
-22 28 -25 -4 -5 -77 34 -77 42 0 9 16 3 49 -17z m-1699 -79 c0 -64 -3 -80
-15 -80 -12 0 -15 -15 -15 -78 0 -66 -3 -80 -20 -92 -17 -12 -20 -26 -20 -82
0 -39 -4 -68 -10 -68 -5 0 -10 -9 -10 -21 0 -15 -4 -19 -16 -15 -9 3 -27 6
-40 6 -15 0 -24 6 -24 15 0 8 -4 15 -10 15 -6 0 -10 29 -10 68 0 37 -4 73 -9
81 -14 22 10 67 46 86 18 10 33 21 33 25 0 4 12 5 28 3 19 -3 23 -2 13 5 -18
13 3 52 29 52 18 0 20 7 20 80 0 64 3 80 15 80 12 0 15 -16 15 -80z m-385 -80
l30 -35 -28 25 c-16 14 -33 34 -39 45 -11 21 -10 20 37 -35z m2165 -113 c0 -2
-12 -14 -27 -28 l-28 -24 24 28 c23 25 31 32 31 24z m-1520 -131 c0 -8 -5 -18
-11 -22 -14 -8 -33 11 -25 25 10 16 36 13 36 -3z m-555 -86 c-3 -5 -11 -10
-16 -10 -6 0 -7 5 -4 10 3 6 11 10 16 10 6 0 7 -4 4 -10z m61 -12 c10 -13 12
-17 4 -10 -8 6 -22 12 -33 12 -10 0 -15 5 -12 10 9 15 20 12 41 -12z m-469
-10 c-3 -8 -6 -5 -6 6 -1 11 2 17 5 13 3 -3 4 -12 1 -19z m498 -49 c4 -11 4
-23 1 -26 -3 -4 -6 0 -6 7 0 8 -10 25 -22 38 l-23 25 22 -12 c12 -6 25 -20 28
-32z m1742 20 c7 -1 10 -6 7 -11 -3 -5 -1 -14 4 -21 10 -12 16 -40 13 -67 -1
-8 -9 5 -18 30 -18 54 -37 69 -82 70 -25 0 -43 -8 -63 -27 -15 -15 -28 -22
-28 -16 0 7 12 21 27 33 27 21 58 23 140 9z m-1705 -64 c2 -19 0 -35 -4 -35
-4 0 -8 16 -8 35 0 19 2 35 4 35 2 0 6 -16 8 -35z m1559 -83 c8 -10 4 -7 -8 6
-15 15 -23 34 -22 55 1 32 1 32 9 -5 4 -21 13 -46 21 -56z m-1581 22 c0 -8 -5
-12 -10 -9 -6 4 -8 11 -5 16 9 14 15 11 15 -7z m1720 -12 c0 -4 -10 -13 -22
-21 -23 -14 -23 -14 -4 8 20 22 26 25 26 13z m-1962 -48 c12 -8 22 -21 22 -27
-1 -7 -5 -6 -13 4 -7 8 -21 21 -32 27 -11 6 -15 12 -10 12 6 0 21 -7 33 -16z
m417 -4 c26 -29 14 -33 -14 -4 -13 13 -19 24 -14 24 6 0 18 -9 28 -20z m45
-59 c0 -25 -7 -47 -21 -62 l-20 -24 16 27 c11 18 16 42 13 67 -2 22 0 37 4 35
5 -3 8 -22 8 -43z m-231 -165 c-2 -2 -13 8 -23 22 l-19 27 24 -22 c12 -12 21
-24 18 -27z m-4554 -496 c3 -5 1 -10 -4 -10 -6 0 -11 5 -11 10 0 6 2 10 4 10
3 0 8 -4 11 -10z m233 -267 c-3 -15 -16 -18 -76 -20 -65 -2 -72 0 -72 17 0 18
7 20 76 20 66 0 75 -2 72 -17z"/>
<path d="M6825 3790 c3 -5 8 -10 11 -10 2 0 4 5 4 10 0 6 -5 10 -11 10 -5 0
-7 -4 -4 -10z"/>
<path d="M695 3620 c3 -5 8 -10 11 -10 2 0 4 5 4 10 0 6 -5 10 -11 10 -5 0 -7
-4 -4 -10z"/>
<path d="M6620 3609 c0 -5 5 -7 10 -4 6 3 10 8 10 11 0 2 -4 4 -10 4 -5 0 -10
-5 -10 -11z"/>
<path d="M6620 3580 c0 -5 5 -10 10 -10 6 0 10 5 10 10 0 6 -4 10 -10 10 -5 0
-10 -4 -10 -10z"/>
<path d="M6303 4203 c-47 -51 -53 -72 -24 -80 11 -3 22 -16 25 -29 4 -16 11
-22 24 -18 38 13 62 28 62 41 0 7 5 13 11 13 17 0 39 27 39 49 0 16 -6 21 -25
21 -18 0 -25 5 -25 19 0 17 -19 32 -38 31 -4 -1 -26 -22 -49 -47z"/>
<path d="M400 4187 c0 -13 -6 -29 -12 -37 -11 -12 -10 -12 5 -1 9 7 17 22 17
32 0 15 5 18 23 15 12 -3 72 -8 132 -11 92 -5 594 -41 825 -59 36 -3 191 -15
345 -26 154 -12 453 -34 665 -51 212 -16 565 -43 785 -59 220 -17 478 -37 574
-46 95 -8 176 -13 178 -10 9 9 -37 15 -177 26 -273 21 -789 60 -930 70 -80 6
-221 17 -315 25 -93 8 -208 17 -255 20 -47 3 -175 12 -285 20 -110 8 -351 26
-536 40 -670 49 -756 55 -869 65 -168 14 -170 14 -170 -13z"/>
<path d="M6584 4066 c-21 -10 -35 -11 -42 -4 -6 6 -12 6 -17 -1 -3 -6 -3 -10
2 -9 4 2 8 -1 8 -7 0 -5 -4 -9 -8 -7 -5 1 -6 -2 -3 -7 4 -5 -5 -31 -19 -57
-14 -26 -25 -58 -25 -70 0 -22 -4 -24 -52 -25 -29 -1 -57 -1 -61 0 -5 1 -5 -4
-1 -10 5 -9 2 -10 -12 -5 -10 4 -15 4 -12 0 4 -3 -4 -23 -17 -44 -13 -21 -27
-50 -31 -64 -3 -14 -10 -24 -14 -21 -16 10 -20 -13 -13 -76 3 -35 8 -58 11
-51 4 14 32 16 32 2 0 -5 14 -10 30 -10 17 0 30 4 30 10 0 5 15 12 33 15 24 5
38 16 52 41 10 19 22 34 26 34 13 0 39 56 39 84 0 22 3 24 38 19 37 -5 41 -2
100 63 53 59 62 74 62 107 0 48 -22 82 -62 96 -38 13 -36 13 -74 -3z m92 -14
c12 -8 34 -46 34 -59 0 -4 -5 0 -11 10 -6 10 -25 27 -42 38 -26 15 -28 19 -12
19 11 0 25 -4 31 -8z m-30 -58 c-4 -15 -2 -32 5 -40 7 -9 8 -14 1 -14 -6 0
-14 5 -18 11 -4 8 -9 8 -17 0 -16 -16 -31 -13 -17 4 6 8 9 23 5 35 -7 21 10
29 18 8 3 -9 7 -7 12 5 11 26 18 20 11 -9z m-157 -158 c7 -8 11 -21 8 -28 -4
-9 -6 -7 -6 4 -1 9 -13 26 -28 38 -18 13 -20 17 -7 11 11 -5 26 -17 33 -25z
m-76 -28 c3 -10 7 -10 20 1 10 8 17 9 17 3 0 -6 -4 -14 -10 -17 -5 -3 -10 -18
-10 -32 0 -15 -3 -23 -7 -19 -12 11 -31 76 -23 76 5 0 10 -6 13 -12z"/>
<path d="M4765 3769 c-173 -22 -321 -120 -414 -274 -18 -30 -31 -60 -29 -66 2
-7 25 22 52 64 104 168 263 255 471 258 44 0 91 4 105 8 20 6 15 9 -30 14 -62
8 -59 8 -155 -4z"/>
<path d="M4928 3683 c7 -3 16 -2 19 1 4 3 -2 6 -13 5 -11 0 -14 -3 -6 -6z"/>
<path d="M993 3663 c9 -2 25 -2 35 0 9 3 1 5 -18 5 -19 0 -27 -2 -17 -5z"/>
<path d="M1160 3621 c0 -11 10 -26 23 -32 21 -12 21 -11 4 8 -9 11 -14 22 -11
25 3 3 1 9 -5 13 -7 3 -11 -2 -11 -14z"/>
</g>
</svg>
